{"glyphs":{"0":{"ha":764,"x_min":45,"x_max":728,"o":"m 387 -13 q 135 88 225 -13 q 45 388 45 189 l 45 599 q 88 827 45 738 q 207 959 130 916 q 386 1001 283 1001 q 638 899 547 1001 q 728 599 728 797 l 728 388 q 685 160 728 249 q 566 29 642 72 q 387 -13 489 -13 m 387 160 q 473 207 443 160 q 503 369 503 253 l 503 619 q 473 779 503 732 q 386 826 442 826 q 300 780 329 826 q 270 619 270 733 l 270 369 q 300 208 270 255 q 387 160 329 160 z "},"1":{"ha":764,"x_min":93,"x_max":551,"o":"m 551 0 l 320 0 l 320 737 l 93 670 l 93 845 l 531 997 l 551 997 l 551 0 z "},"2":{"ha":764,"x_min":27,"x_max":736,"o":"m 736 0 l 47 0 l 47 143 l 361 481 q 453 605 425 553 q 481 702 481 657 q 455 792 481 758 q 373 826 428 826 q 282 785 311 826 q 253 661 253 744 l 27 661 q 119 908 27 815 q 373 1001 212 1001 q 558 964 483 1001 q 669 858 632 926 q 707 705 707 791 q 659 540 707 613 q 499 344 611 466 l 344 174 l 736 174 l 736 0 z "},"3":{"ha":764,"x_min":22,"x_max":725,"o":"m 366 -13 q 123 61 223 -13 q 22 288 22 135 l 248 288 q 264 214 248 242 q 308 173 281 186 q 372 160 336 160 q 465 191 430 160 q 499 285 499 222 q 468 386 499 354 q 366 418 437 418 l 241 418 l 241 590 l 366 590 q 454 619 425 590 q 483 711 483 648 q 457 795 483 765 q 372 826 431 826 q 292 799 324 826 q 260 711 260 772 l 34 711 q 128 925 34 848 q 366 1001 223 1001 q 617 927 524 1001 q 709 713 709 853 q 668 588 709 646 q 581 508 627 529 q 682 427 638 488 q 725 283 725 366 q 625 65 725 142 q 366 -13 525 -13 z "},"4":{"ha":764,"x_min":19,"x_max":753,"o":"m 420 385 l 420 667 l 242 385 l 420 385 m 644 0 l 420 0 l 420 209 l 28 209 l 19 340 l 425 988 l 644 988 l 644 385 l 753 385 l 753 209 l 644 209 l 644 0 z "},"5":{"ha":764,"x_min":51,"x_max":730,"o":"m 71 427 l 129 988 l 697 988 l 697 807 l 317 807 l 296 632 q 333 644 298 632 q 429 658 375 658 q 651 571 574 658 q 730 322 730 482 q 644 82 730 176 q 389 -13 558 -13 q 149 63 247 -13 q 51 287 51 138 l 274 287 q 389 160 276 160 q 476 203 448 160 q 504 320 504 245 q 474 447 504 403 q 385 490 443 490 q 310 474 335 490 q 276 427 289 460 l 71 427 z "},"6":{"ha":764,"x_min":48,"x_max":748,"o":"m 408 -13 q 146 92 244 -13 q 48 389 48 198 l 48 577 q 160 888 48 774 q 450 1001 272 1001 q 552 991 505 1001 q 661 956 600 981 l 620 788 q 526 816 559 808 q 451 824 494 824 q 322 764 370 824 q 274 619 274 703 q 337 651 285 631 q 457 672 389 672 q 673 577 597 672 q 748 333 748 482 q 655 84 748 181 q 408 -13 562 -13 m 408 160 q 492 211 462 160 q 523 333 523 261 q 490 458 523 416 q 406 500 456 500 q 322 484 355 500 q 274 445 290 469 l 274 385 q 311 216 274 272 q 408 160 348 160 z "},"7":{"ha":764,"x_min":20,"x_max":733,"o":"m 431 0 l 206 0 l 216 112 q 499 813 263 540 l 20 813 l 20 988 l 733 988 l 733 822 q 520 486 574 637 q 442 110 466 335 l 431 0 z "},"8":{"ha":764,"x_min":42,"x_max":731,"o":"m 387 -13 q 136 61 231 -13 q 42 276 42 135 q 88 421 42 359 q 189 507 133 483 q 103 586 142 528 q 65 719 65 643 q 152 928 65 856 q 386 1001 240 1001 q 620 928 533 1001 q 708 719 708 856 q 668 586 708 643 q 583 506 628 528 q 685 421 640 483 q 731 276 731 359 q 636 61 731 135 q 387 -13 542 -13 m 387 594 q 456 623 430 594 q 483 710 483 651 q 456 797 483 768 q 386 826 429 826 q 316 798 342 826 q 290 710 290 770 q 317 622 290 651 q 387 594 343 594 m 387 160 q 471 192 438 160 q 505 290 505 224 q 471 387 505 354 q 386 419 437 419 q 302 387 335 419 q 269 290 269 354 q 302 192 269 223 q 387 160 335 160 z "},"9":{"ha":764,"x_min":35,"x_max":722,"o":"m 341 -13 q 122 32 226 -13 l 149 199 q 249 169 208 177 q 341 160 290 160 q 453 212 410 160 q 497 356 495 260 q 428 316 469 331 q 340 301 387 301 q 171 344 238 301 q 69 465 103 388 q 35 645 35 542 q 130 900 35 799 q 375 1001 224 1001 q 628 897 533 1001 q 722 602 722 793 l 722 375 q 617 90 722 192 q 341 -13 511 -13 m 373 468 q 449 484 418 468 q 497 524 480 500 l 497 624 q 464 777 497 728 q 376 826 431 826 q 293 775 326 826 q 260 645 260 723 q 290 513 260 557 q 373 468 320 468 z "}," ":{"ha":346,"x_min":0,"x_max":0,"o":""},"!":{"ha":369,"x_min":74,"x_max":300,"o":"m 300 0 l 74 0 l 74 197 l 300 197 l 300 0 m 300 331 l 74 331 l 74 988 l 300 988 l 300 331 z "},"\"":{"ha":431,"x_min":25,"x_max":408,"o":"m 367 665 l 241 665 l 241 1056 l 408 1056 l 408 951 l 367 665 m 151 665 l 25 665 l 25 1056 l 192 1056 l 192 951 l 151 665 z "},"#":{"ha":799,"x_min":15,"x_max":785,"o":"m 435 408 l 464 574 l 370 574 l 342 408 l 435 408 m 519 0 l 363 0 l 410 272 l 317 272 l 271 0 l 116 0 l 163 272 l 15 272 l 15 408 l 186 408 l 216 574 l 65 574 l 65 713 l 240 713 l 289 988 l 443 988 l 394 713 l 488 713 l 537 988 l 691 988 l 642 713 l 785 713 l 785 574 l 618 574 l 590 408 l 735 408 l 735 272 l 565 272 l 519 0 z "},"$":{"ha":772,"x_min":45,"x_max":732,"o":"m 468 -142 l 330 -142 l 330 -10 q 128 81 212 3 q 45 326 45 158 l 271 326 q 306 194 271 228 q 398 161 341 161 q 480 189 453 161 q 506 266 506 217 q 478 348 506 317 q 380 404 449 378 q 154 527 226 460 q 81 720 81 594 q 155 912 81 839 q 344 997 229 985 l 344 1141 l 481 1141 l 481 995 q 663 896 593 978 q 732 664 732 813 l 506 664 q 478 790 506 753 q 403 826 450 826 q 307 719 307 826 q 335 641 307 669 q 435 585 363 613 q 659 459 588 526 q 731 268 731 392 q 658 74 731 146 q 468 -9 584 3 l 468 -142 z "},"%":{"ha":992,"x_min":48,"x_max":959,"o":"m 274 528 q 107 588 166 528 q 48 739 48 648 l 48 789 q 106 941 48 881 q 273 1001 165 1001 q 440 941 382 1001 q 499 789 499 881 l 499 739 q 440 588 499 647 q 274 528 382 528 m 316 66 l 194 131 l 678 905 l 799 842 l 316 66 m 274 662 q 322 683 306 662 q 338 739 338 705 l 338 789 q 321 846 338 824 q 273 868 304 868 q 225 846 242 868 q 209 789 209 824 l 209 739 q 225 684 209 706 q 274 662 242 662 m 735 -12 q 567 47 626 -12 q 508 198 508 106 l 508 249 q 566 400 508 340 q 733 460 624 460 q 900 400 842 460 q 959 249 959 340 l 959 198 q 901 47 959 106 q 735 -12 842 -12 m 735 121 q 782 139 767 121 q 797 198 797 158 l 797 249 q 781 305 797 283 q 733 327 765 327 q 684 305 701 327 q 668 249 668 283 l 668 198 q 686 142 668 164 q 735 121 705 121 z "},"&":{"ha":881,"x_min":24,"x_max":899,"o":"m 356 -13 q 113 65 201 -13 q 24 273 24 144 q 68 413 24 356 q 194 527 112 470 q 130 633 151 583 q 109 738 109 684 q 141 875 109 815 q 235 968 173 934 q 388 1001 298 1001 q 572 933 503 1001 q 640 766 640 864 q 514 544 640 635 l 464 508 l 622 324 q 645 386 633 342 q 658 494 658 431 l 834 494 q 747 178 834 290 l 899 0 l 640 0 l 595 53 q 356 -13 492 -13 m 359 634 l 401 663 q 445 705 433 683 q 458 756 458 728 q 439 805 458 784 q 387 826 421 826 q 332 802 350 826 q 315 740 315 778 q 359 634 315 691 m 365 160 q 430 168 399 160 q 479 186 462 176 l 302 393 q 261 339 273 366 q 250 282 250 312 q 282 193 250 226 q 365 160 313 160 z "},"'":{"ha":217,"x_min":25,"x_max":199,"o":"m 151 666 l 25 666 l 25 1056 l 199 1056 l 199 948 l 151 666 z "},"(":{"ha":467,"x_min":68,"x_max":469,"o":"m 424 -308 q 169 -58 270 -239 q 68 390 68 122 l 68 404 q 169 852 68 672 q 424 1101 271 1033 l 469 977 q 320 769 376 908 q 277 602 290 694 q 263 388 263 510 q 469 -185 263 -26 l 424 -308 z "},")":{"ha":469,"x_min":2,"x_max":414,"o":"m 49 -308 l 2 -185 q 151 24 93 -115 q 195 191 182 98 q 209 406 209 284 q 151 770 209 630 q 2 980 92 910 l 49 1101 q 309 848 203 1033 q 414 404 414 664 l 414 390 q 309 -55 414 130 q 49 -308 203 -240 z "},"*":{"ha":593,"x_min":-2,"x_max":599,"o":"m 404 374 l 294 557 l 185 381 l 58 469 l 193 644 l -2 702 l 45 845 l 234 767 l 222 988 l 380 988 l 369 763 l 553 840 l 599 693 l 402 636 l 531 465 l 404 374 z "},"+":{"ha":732,"x_min":21,"x_max":713,"o":"m 475 97 l 260 97 l 260 369 l 21 369 l 21 562 l 260 562 l 260 823 l 475 823 l 475 562 l 713 562 l 713 369 l 475 369 l 475 97 z "},",":{"ha":347,"x_min":-1,"x_max":263,"o":"m 118 -244 l -1 -180 q 57 29 57 -85 l 57 187 l 263 187 l 262 40 q 224 -107 262 -31 q 118 -244 186 -183 z "},"-":{"ha":528,"x_min":60,"x_max":466,"o":"m 466 337 l 60 337 l 60 512 l 466 512 l 466 337 z "},".":{"ha":347,"x_min":63,"x_max":288,"o":"m 288 0 l 63 0 l 63 197 l 288 197 l 288 0 z "},"/":{"ha":497,"x_min":-32,"x_max":506,"o":"m 144 -83 l -32 -83 l 329 988 l 506 988 l 144 -83 z "},":":{"ha":347,"x_min":63,"x_max":288,"o":"m 288 0 l 63 0 l 63 197 l 288 197 l 288 0 m 288 565 l 63 565 l 63 761 l 288 761 l 288 565 z "},";":{"ha":347,"x_min":20,"x_max":283,"o":"m 282 565 l 56 565 l 56 761 l 282 761 l 282 565 m 139 -244 l 20 -180 q 78 29 78 -85 l 78 187 l 283 187 l 283 40 q 245 -107 283 -31 q 139 -244 207 -183 z "},"<":{"ha":685,"x_min":19,"x_max":622,"o":"m 622 85 l 19 341 l 19 507 l 622 763 l 622 553 l 260 424 l 622 296 l 622 85 z "},"=":{"ha":778,"x_min":76,"x_max":700,"o":"m 700 213 l 76 213 l 76 390 l 700 390 l 700 213 m 700 498 l 76 498 l 76 675 l 700 675 l 700 498 z "},">":{"ha":695,"x_min":65,"x_max":673,"o":"m 65 85 l 65 294 l 433 425 l 65 555 l 65 763 l 673 507 l 673 341 l 65 85 z "},"?":{"ha":669,"x_min":0,"x_max":661,"o":"m 423 274 l 198 274 q 226 428 199 385 q 336 535 253 472 q 409 615 383 574 q 435 708 435 656 q 408 794 435 764 q 327 824 381 824 q 256 800 284 824 q 226 710 227 775 l 0 710 q 91 931 1 860 q 327 1001 181 1001 q 512 965 438 1001 q 624 862 586 928 q 661 710 661 796 q 610 549 661 621 q 482 426 560 476 q 434 369 445 399 q 423 274 423 340 m 424 0 l 197 0 l 197 192 l 424 192 l 424 0 z "},"@":{"ha":1191,"x_min":27,"x_max":1160,"o":"m 578 -299 q 160 -133 303 -299 q 27 288 27 22 l 28 330 q 199 792 41 621 q 626 963 357 963 q 1033 801 896 963 q 1160 393 1160 651 l 1160 351 q 1073 94 1153 202 q 824 -13 993 -13 q 724 18 765 -13 q 677 68 683 50 q 619 18 665 47 q 508 -11 573 -11 q 351 71 403 -11 q 309 235 309 137 q 311 289 309 261 q 409 567 328 463 q 613 672 490 672 q 741 653 693 672 q 856 592 789 635 l 822 206 q 821 175 821 190 q 828 129 821 141 q 852 111 840 112 q 961 177 919 111 q 1008 353 1002 243 l 1010 400 q 924 710 1010 600 q 624 833 829 833 q 315 699 428 833 q 192 328 202 565 l 190 284 q 283 -34 190 81 q 581 -163 384 -162 q 810 -109 694 -163 l 842 -232 q 717 -283 786 -267 q 578 -299 648 -299 m 859 591 l 856 592 l 857 598 l 864 598 l 859 591 m 550 131 q 608 146 583 131 q 654 201 633 160 l 683 526 q 638 531 657 531 q 539 474 574 531 q 493 288 505 416 q 491 243 491 263 q 503 168 491 194 q 550 131 519 131 z "},"A":{"ha":873,"x_min":-10,"x_max":892,"o":"m 542 385 l 441 710 l 339 385 l 542 385 m 892 0 l 663 0 l 597 210 l 284 210 l 219 0 l -10 0 l 329 988 l 552 988 l 892 0 z "},"B":{"ha":874,"x_min":81,"x_max":834,"o":"m 473 0 l 81 0 l 81 988 l 428 988 q 624 959 541 988 q 752 870 707 931 q 798 710 798 809 q 768 593 798 643 q 686 517 738 542 q 797 430 759 492 q 834 293 834 368 q 790 127 834 192 q 666 31 747 63 q 473 0 585 0 m 435 585 q 538 611 503 585 q 572 696 572 637 q 539 786 572 758 q 428 813 506 813 l 306 813 l 306 585 l 435 585 m 473 174 q 608 294 608 174 q 578 395 608 364 q 484 426 547 426 l 306 426 l 306 174 l 473 174 z "},"C":{"ha":874,"x_min":56,"x_max":851,"o":"m 451 -13 q 162 100 268 -13 q 56 398 56 214 l 56 590 q 164 887 56 772 q 451 1001 271 1001 q 730 914 628 1001 q 851 639 832 827 l 625 639 q 577 784 617 741 q 451 826 538 826 q 358 796 395 826 q 301 713 320 766 q 282 591 282 659 l 282 398 q 300 274 282 328 q 356 191 319 221 q 451 160 394 160 q 577 204 538 160 q 624 344 617 248 l 850 344 q 731 74 835 161 q 451 -13 628 -13 z "},"D":{"ha":906,"x_min":81,"x_max":858,"o":"m 404 0 l 81 0 l 81 988 l 408 988 q 737 869 616 988 q 858 556 858 750 l 858 431 q 737 118 858 235 q 404 0 615 0 m 394 174 q 632 431 632 174 l 632 558 q 398 813 632 813 l 306 813 l 306 174 l 394 174 z "},"E":{"ha":782,"x_min":81,"x_max":772,"o":"m 772 0 l 81 0 l 81 988 l 771 988 l 771 813 l 306 813 l 306 597 l 705 597 l 705 423 l 306 423 l 306 174 l 772 174 l 772 0 z "},"F":{"ha":781,"x_min":81,"x_max":772,"o":"m 306 0 l 81 0 l 81 988 l 772 988 l 772 813 l 306 813 l 306 575 l 704 575 l 704 399 l 306 399 l 306 0 z "},"G":{"ha":909,"x_min":56,"x_max":853,"o":"m 472 -13 q 170 99 285 -13 q 56 393 56 211 l 56 594 q 166 889 56 776 q 456 1001 276 1001 q 738 915 644 1001 q 853 661 833 828 l 633 661 q 579 789 619 752 q 462 826 538 826 q 331 765 381 826 q 281 596 281 703 l 281 393 q 332 224 281 288 q 472 160 382 160 q 626 200 583 160 l 626 357 l 456 357 l 456 517 l 851 517 l 851 133 q 711 30 803 72 q 472 -13 619 -13 z "},"H":{"ha":963,"x_min":81,"x_max":891,"o":"m 891 0 l 666 0 l 666 399 l 306 399 l 306 0 l 81 0 l 81 988 l 306 988 l 306 575 l 666 575 l 666 988 l 891 988 l 891 0 z "},"I":{"ha":408,"x_min":93,"x_max":319,"o":"m 319 0 l 93 0 l 93 988 l 319 988 l 319 0 z "},"J":{"ha":777,"x_min":26,"x_max":706,"o":"m 370 -13 q 118 63 210 -13 q 26 306 26 140 l 252 306 q 281 189 252 218 q 370 160 309 160 q 452 194 422 160 q 481 302 481 228 l 481 988 l 706 988 l 706 302 q 613 71 706 156 q 370 -13 519 -13 z "},"K":{"ha":876,"x_min":81,"x_max":918,"o":"m 918 0 l 633 0 l 376 385 l 306 303 l 306 0 l 81 0 l 81 988 l 306 988 l 306 602 l 610 988 l 886 988 l 531 564 l 918 0 z "},"L":{"ha":746,"x_min":81,"x_max":735,"o":"m 735 0 l 81 0 l 81 988 l 307 988 l 307 174 l 735 174 l 735 0 z "},"M":{"ha":1184,"x_min":81,"x_max":1114,"o":"m 1114 0 l 888 0 l 888 300 l 902 632 l 674 0 l 519 0 l 292 628 l 306 300 l 306 0 l 81 0 l 81 988 l 361 988 l 597 310 l 832 988 l 1114 988 l 1114 0 z "},"N":{"ha":963,"x_min":81,"x_max":891,"o":"m 891 0 l 672 0 l 306 618 l 306 0 l 81 0 l 81 988 l 301 988 l 666 370 l 666 988 l 891 988 l 891 0 z "},"O":{"ha":938,"x_min":56,"x_max":892,"o":"m 472 -13 q 170 106 283 -13 q 56 407 56 224 l 56 581 q 169 883 56 764 q 472 1001 283 1001 q 776 882 661 1001 q 892 581 892 763 l 892 407 q 776 106 892 224 q 472 -13 661 -13 m 472 163 q 578 194 535 163 q 644 281 622 226 q 666 407 666 336 l 666 582 q 643 707 666 653 q 578 792 621 761 q 472 824 535 824 q 366 793 408 824 q 302 707 324 762 q 281 582 281 652 l 281 407 q 303 281 281 336 q 366 194 324 226 q 472 163 408 163 z "},"P":{"ha":885,"x_min":81,"x_max":852,"o":"m 306 0 l 81 0 l 81 988 l 480 988 q 754 900 656 988 q 852 668 852 813 q 755 435 852 522 q 480 349 657 349 l 306 349 l 306 0 m 480 524 q 565 542 532 524 q 612 592 597 560 q 627 667 627 624 q 612 742 627 709 q 564 794 597 774 q 480 813 531 813 l 306 813 l 306 524 l 480 524 z "},"Q":{"ha":938,"x_min":56,"x_max":915,"o":"m 770 -170 l 578 -1 q 472 -13 536 -13 q 170 106 283 -13 q 56 407 56 224 l 56 581 q 169 883 56 764 q 472 1001 283 1001 q 776 882 661 1001 q 892 581 892 763 l 892 407 q 854 220 892 302 q 757 90 816 139 l 915 -47 l 770 -170 m 472 163 q 579 194 535 163 q 644 281 622 226 q 666 407 666 336 l 666 582 q 644 707 666 653 q 578 792 622 761 q 472 824 535 824 q 366 793 408 824 q 303 707 324 762 q 282 582 282 652 l 282 407 q 303 281 282 336 q 366 194 324 226 q 472 163 408 163 z "},"R":{"ha":883,"x_min":81,"x_max":871,"o":"m 871 0 l 635 0 l 458 374 l 307 374 l 307 0 l 81 0 l 81 988 l 457 988 q 650 955 567 988 q 777 857 732 923 q 823 692 823 791 q 781 532 823 597 q 669 434 739 467 l 871 28 l 871 0 m 457 549 q 598 680 598 549 q 564 777 598 741 q 457 813 531 813 l 307 813 l 307 549 l 457 549 z "},"S":{"ha":849,"x_min":39,"x_max":818,"o":"m 447 -13 q 160 70 281 -13 q 39 324 39 153 l 265 324 q 311 194 265 228 q 447 159 358 159 q 558 188 523 159 q 592 264 592 217 q 555 348 592 317 q 427 404 517 378 q 158 525 249 456 q 68 720 68 595 q 173 924 68 847 q 443 1001 277 1001 q 715 914 612 1001 q 818 679 818 827 l 592 679 q 440 828 592 828 q 330 798 365 828 q 294 719 294 767 q 337 646 294 674 q 484 586 379 617 q 734 466 649 540 q 818 265 818 392 q 717 60 818 133 q 447 -13 616 -13 z "},"T":{"ha":860,"x_min":19,"x_max":850,"o":"m 547 0 l 321 0 l 321 813 l 19 813 l 19 988 l 850 988 l 850 813 l 547 813 l 547 0 z "},"U":{"ha":935,"x_min":70,"x_max":874,"o":"m 471 -13 q 179 77 288 -13 q 70 337 70 167 l 70 988 l 297 988 l 297 337 q 471 160 297 160 q 602 203 557 160 q 647 337 647 246 l 647 988 l 874 988 l 874 337 q 764 77 874 167 q 471 -13 653 -13 z "},"V":{"ha":867,"x_min":-10,"x_max":885,"o":"m 549 0 l 326 0 l -10 988 l 228 988 l 437 281 l 646 988 l 885 988 l 549 0 z "},"W":{"ha":1180,"x_min":26,"x_max":1163,"o":"m 951 0 l 747 0 l 595 588 l 443 0 l 239 0 l 26 988 l 247 988 l 360 388 l 512 988 l 678 988 l 831 387 l 943 988 l 1163 988 l 951 0 z "},"X":{"ha":861,"x_min":-6,"x_max":875,"o":"m 875 0 l 606 0 l 431 326 l 256 0 l -6 0 l 294 499 l 1 988 l 262 988 l 428 669 l 597 988 l 858 988 l 566 499 l 875 0 z "},"Y":{"ha":856,"x_min":-16,"x_max":880,"o":"m 542 0 l 317 0 l 317 359 l -16 988 l 231 988 l 432 564 l 633 988 l 880 988 l 542 349 l 542 0 z "},"Z":{"ha":800,"x_min":40,"x_max":776,"o":"m 776 0 l 40 0 l 40 117 l 486 813 l 41 813 l 41 988 l 765 988 l 765 874 l 317 174 l 776 174 l 776 0 z "},"[":{"ha":374,"x_min":65,"x_max":383,"o":"m 383 -222 l 65 -222 l 65 1143 l 383 1143 l 383 974 l 291 974 l 291 -53 l 383 -53 l 383 -222 z "},"\\":{"ha":562,"x_min":-22,"x_max":615,"o":"m 615 -83 l 390 -83 l -22 988 l 203 988 l 615 -83 z "},"]":{"ha":374,"x_min":-8,"x_max":311,"o":"m 311 -222 l -8 -222 l -8 -53 l 85 -53 l 85 974 l -8 974 l -8 1143 l 311 1143 l 311 -222 z "},"^":{"ha":586,"x_min":7,"x_max":586,"o":"m 586 481 l 399 481 l 297 742 l 194 481 l 7 481 l 215 988 l 378 988 l 586 481 z "},"_":{"ha":597,"x_min":-16,"x_max":617,"o":"m 617 -144 l -16 -144 l -16 26 l 617 26 l 617 -144 z "},"`":{"ha":444,"x_min":13,"x_max":415,"o":"m 415 801 l 222 801 l 13 1002 l 265 1002 l 415 801 z "},"a":{"ha":728,"x_min":35,"x_max":709,"o":"m 278 -13 q 98 46 160 -13 q 35 215 35 105 q 119 390 35 331 q 368 449 203 449 l 449 449 l 449 508 q 430 572 449 556 q 358 588 410 588 q 293 570 312 588 q 274 502 274 552 l 49 502 q 132 692 49 629 q 370 754 215 754 q 595 696 515 754 q 675 507 675 638 l 675 197 q 681 100 675 142 q 709 0 688 58 l 483 0 q 467 40 472 23 l 464 50 l 465 46 q 399 9 451 32 q 278 -13 347 -13 m 335 156 q 407 168 377 156 q 449 198 436 181 l 449 313 l 368 313 q 286 290 311 313 q 260 221 260 268 q 277 171 260 186 q 335 156 294 156 z "},"b":{"ha":766,"x_min":63,"x_max":741,"o":"m 447 -12 q 328 15 377 -12 q 269 58 280 43 l 260 0 l 63 0 l 63 1056 l 288 1056 l 288 695 q 445 754 349 754 q 667 649 594 754 q 724 519 708 591 q 741 351 741 447 q 667 86 741 185 q 447 -12 593 -12 m 398 163 q 488 207 460 163 q 515 351 515 251 l 515 365 q 488 523 515 469 q 397 578 460 578 q 288 516 319 578 l 288 219 q 398 163 318 163 z "},"c":{"ha":701,"x_min":28,"x_max":689,"o":"m 376 -12 q 116 91 204 -12 q 28 360 28 195 l 28 380 q 116 649 28 544 q 375 754 204 754 q 603 675 517 754 q 689 450 689 597 l 474 450 q 446 549 474 518 q 372 579 417 579 q 281 527 305 579 q 260 457 265 497 q 254 360 254 417 q 279 212 254 263 q 372 161 304 161 q 446 187 418 161 q 474 272 474 213 l 689 272 q 599 64 689 140 q 376 -12 510 -12 z "},"d":{"ha":765,"x_min":32,"x_max":708,"o":"m 326 -12 q 107 86 183 -12 q 49 208 65 141 q 32 365 32 276 q 107 647 32 540 q 327 754 183 754 q 482 694 420 754 l 482 1056 l 708 1056 l 708 0 l 510 0 l 500 59 q 440 15 488 42 q 326 -12 392 -12 m 376 163 q 482 219 449 163 l 482 517 q 440 561 467 544 q 377 578 413 578 q 308 551 335 578 q 269 476 282 524 q 257 365 257 428 l 257 351 q 373 163 257 164 l 376 163 z "},"e":{"ha":717,"x_min":39,"x_max":698,"o":"m 394 -12 q 134 90 230 -12 q 39 350 39 192 l 39 376 q 128 648 39 542 q 375 754 218 754 l 378 754 q 616 664 534 754 q 698 418 698 574 l 698 300 l 268 300 q 312 202 274 242 q 415 161 350 161 q 516 173 478 161 q 624 222 555 185 l 674 69 q 552 8 622 29 q 394 -12 483 -12 m 476 453 q 455 545 476 511 q 378 579 433 579 q 323 562 346 579 q 288 516 301 544 q 271 453 274 488 l 476 453 z "},"f":{"ha":484,"x_min":7,"x_max":517,"o":"m 339 0 l 113 0 l 113 579 l 7 579 l 7 741 l 113 741 l 113 807 q 185 1003 113 935 q 394 1070 258 1070 q 445 1067 419 1070 q 517 1053 471 1063 l 497 883 q 451 892 466 890 q 417 894 437 894 q 357 872 375 894 q 339 807 339 849 l 339 741 l 481 741 l 481 579 l 339 579 l 339 0 z "},"g":{"ha":714,"x_min":-17,"x_max":715,"o":"m 715 613 l 644 613 q 662 569 651 602 q 673 499 673 536 l 673 483 q 584 301 673 373 q 347 228 494 228 q 296 231 321 228 q 258 236 271 233 q 254 228 258 236 q 251 210 251 220 q 267 181 251 189 q 319 174 283 174 l 440 174 q 641 119 570 174 q 712 -37 712 65 q 607 -211 712 -134 q 328 -289 502 -289 q 74 -233 165 -289 q -17 -93 -17 -178 q 20 13 -17 -31 q 101 76 58 56 q 88 103 96 82 q 79 153 79 125 q 102 231 79 198 q 145 277 125 263 q 56 358 94 302 q 18 483 18 414 l 18 499 q 107 684 18 615 q 345 754 197 754 q 406 751 377 754 q 460 741 435 748 l 714 741 l 715 613 m 242 483 q 270 419 242 444 q 347 394 299 394 q 422 419 395 394 q 449 483 449 445 l 449 499 q 421 564 449 540 q 345 588 394 588 q 270 564 297 588 q 242 499 242 539 l 242 483 m 283 8 q 249 9 265 8 q 226 11 233 10 q 206 -10 215 6 q 197 -50 197 -27 q 228 -103 197 -82 q 328 -124 260 -124 q 448 -99 409 -124 q 488 -47 488 -75 q 471 -6 488 -20 q 410 8 455 8 l 283 8 z "},"h":{"ha":767,"x_min":58,"x_max":714,"o":"m 714 0 l 488 0 l 488 439 q 463 549 488 519 q 388 578 439 578 q 284 534 318 578 l 284 0 l 58 0 l 58 1056 l 284 1056 l 284 683 q 359 734 315 714 q 458 754 403 754 q 648 677 581 754 q 714 438 714 599 l 714 0 z "},"i":{"ha":369,"x_min":74,"x_max":299,"o":"m 299 885 l 74 885 l 74 1056 l 299 1056 l 299 885 m 299 0 l 74 0 l 74 741 l 299 741 l 299 0 z "},"j":{"ha":361,"x_min":-81,"x_max":299,"o":"m 295 887 l 69 887 l 69 1056 l 295 1056 l 295 887 m 30 -288 q -23 -285 1 -288 q -81 -274 -46 -283 l -70 -99 q -24 -109 -39 -107 q 8 -111 -9 -111 q 56 -88 39 -111 q 72 -12 72 -65 l 72 741 l 299 741 l 299 -12 q 227 -218 299 -149 q 30 -288 156 -288 z "},"k":{"ha":725,"x_min":63,"x_max":771,"o":"m 771 0 l 513 0 l 335 278 l 290 228 l 290 0 l 63 0 l 63 1056 l 290 1056 l 290 510 q 483 741 297 519 l 747 741 l 481 440 l 771 0 z "},"l":{"ha":449,"x_min":74,"x_max":445,"o":"m 303 -15 q 74 211 82 -15 l 74 1056 l 299 1056 l 299 224 q 310 173 299 185 q 342 161 320 161 q 369 163 359 161 q 421 178 379 165 l 445 14 q 374 -9 403 -3 q 303 -15 344 -15 z "},"m":{"ha":1169,"x_min":63,"x_max":1118,"o":"m 1118 0 l 892 0 l 892 447 q 870 551 892 525 q 804 578 849 578 q 701 520 733 578 q 701 502 701 511 q 702 0 702 493 l 477 0 l 477 447 q 455 550 477 523 q 388 578 433 578 q 288 531 320 578 l 288 0 l 63 0 l 63 741 l 274 741 l 280 676 q 359 732 310 710 q 472 754 408 754 q 599 722 547 754 q 667 655 652 690 q 740 720 684 686 q 873 754 795 754 q 1004 722 949 754 q 1089 621 1060 689 q 1118 446 1118 553 l 1118 0 z "},"n":{"ha":766,"x_min":60,"x_max":715,"o":"m 715 0 l 488 0 l 488 459 q 465 551 488 524 q 388 578 442 578 q 285 528 320 578 l 285 0 l 60 0 l 60 741 l 272 741 l 278 670 q 359 731 310 708 q 469 754 408 754 q 715 460 715 754 l 715 0 z "},"o":{"ha":765,"x_min":32,"x_max":740,"o":"m 385 -12 q 124 92 215 -12 q 32 364 32 196 l 32 377 q 124 649 32 544 q 384 754 215 754 q 647 649 554 754 q 740 377 740 544 l 740 364 q 647 92 740 196 q 385 -12 555 -12 m 385 161 q 459 186 431 161 q 501 257 488 211 q 514 364 514 302 q 507 456 514 418 q 482 526 500 494 q 384 579 451 579 q 311 553 339 579 q 270 482 283 528 q 257 377 257 437 l 257 364 q 287 215 257 269 q 385 161 317 161 z "},"p":{"ha":766,"x_min":63,"x_max":741,"o":"m 288 -275 l 63 -275 l 63 741 l 272 741 l 278 689 q 333 728 286 701 q 444 754 381 754 q 665 648 590 754 q 724 517 707 590 q 741 351 741 445 q 665 87 741 187 q 446 -12 590 -12 q 288 41 348 -12 l 288 -275 m 396 161 q 515 351 515 161 l 515 365 q 502 476 515 429 q 394 578 476 577 q 288 520 320 578 l 288 213 q 396 161 317 161 z "},"q":{"ha":765,"x_min":32,"x_max":706,"o":"m 706 -275 l 481 -275 l 481 40 q 326 -12 419 -12 q 107 86 183 -12 q 49 208 65 141 q 32 365 32 276 q 107 647 32 540 q 327 754 183 754 q 440 726 392 754 q 498 683 488 699 l 509 741 l 706 741 l 706 -275 m 376 161 q 481 213 451 161 l 481 524 q 377 579 447 579 q 308 552 335 579 q 269 477 282 525 q 257 365 257 428 l 257 351 q 285 209 257 256 q 376 161 314 161 z "},"r":{"ha":495,"x_min":63,"x_max":501,"o":"m 289 0 l 63 0 l 63 741 l 274 741 l 279 677 q 424 754 334 753 q 501 742 456 754 l 478 543 l 385 546 q 289 492 313 546 l 289 0 z "},"s":{"ha":700,"x_min":25,"x_max":668,"o":"m 351 -12 q 111 63 198 -12 q 25 253 25 139 l 240 253 q 273 166 243 188 q 356 145 302 145 q 448 210 448 145 q 448 210 448 210 q 422 256 448 236 q 316 293 397 276 q 116 373 183 320 q 48 520 48 426 q 130 686 48 619 q 350 754 212 754 q 514 725 443 754 q 626 640 585 697 q 667 499 667 583 l 441 499 q 356 595 441 595 q 355 595 356 595 q 287 576 308 595 q 266 528 266 557 q 289 483 266 501 q 395 449 312 465 q 603 366 539 422 q 668 218 668 310 q 583 51 668 115 q 351 -12 498 -12 z "},"t":{"ha":456,"x_min":2,"x_max":456,"o":"m 319 -12 q 152 48 206 -12 q 99 228 99 109 l 99 579 l 2 579 l 2 741 l 99 741 l 99 916 l 324 916 l 324 741 l 447 741 l 447 579 l 324 579 l 324 229 q 335 178 324 192 q 367 165 347 165 q 393 167 382 165 q 438 177 403 168 l 456 14 q 319 -12 390 -12 z "},"u":{"ha":767,"x_min":58,"x_max":714,"o":"m 315 -12 q 125 63 191 -12 q 58 297 58 138 l 58 741 l 283 741 l 283 295 q 306 191 283 219 q 372 163 328 163 q 488 212 451 163 l 488 741 l 714 741 l 714 0 l 513 0 l 505 61 q 439 16 492 44 q 315 -12 385 -12 z "},"v":{"ha":690,"x_min":-8,"x_max":705,"o":"m 453 0 l 244 0 l -8 741 l 228 741 l 350 288 l 469 741 l 705 741 l 453 0 z "},"w":{"ha":992,"x_min":2,"x_max":997,"o":"m 808 0 l 620 0 l 499 402 l 378 0 l 190 0 l 2 741 l 217 741 l 301 322 l 422 741 l 578 741 l 697 323 l 781 741 l 997 741 l 808 0 z "},"x":{"ha":690,"x_min":-11,"x_max":710,"o":"m 710 0 l 456 0 l 351 215 l 244 0 l -11 0 l 219 374 l -4 741 l 249 741 l 348 534 l 448 741 l 703 741 l 480 374 l 710 0 z "},"y":{"ha":690,"x_min":-15,"x_max":712,"o":"m 161 -288 q 113 -284 136 -288 q 48 -269 90 -280 l 74 -103 l 101 -107 q 125 -110 117 -110 q 187 -95 167 -110 q 222 -37 207 -80 l 242 14 l -15 741 l 226 741 l 346 331 l 469 741 l 712 741 l 415 -97 q 332 -232 388 -176 q 161 -288 276 -288 z "},"z":{"ha":693,"x_min":38,"x_max":665,"o":"m 665 0 l 38 0 l 38 131 l 365 565 l 48 565 l 48 741 l 653 741 l 653 615 l 323 174 l 665 174 l 665 0 z "},"{":{"ha":442,"x_min":15,"x_max":443,"o":"m 398 -241 q 188 -116 244 -198 q 133 84 133 -34 l 133 217 q 108 311 133 281 q 15 342 83 342 l 15 502 q 108 532 83 502 q 133 626 133 562 l 133 760 q 188 960 133 879 q 398 1085 244 1042 l 443 958 q 358 886 379 934 q 338 760 338 838 l 338 626 q 307 497 338 551 q 233 422 276 444 q 307 346 276 399 q 338 217 338 292 l 338 84 q 359 -41 338 7 q 443 -112 380 -88 l 398 -241 z "},"|":{"ha":346,"x_min":101,"x_max":250,"o":"m 250 -178 l 101 -178 l 101 988 l 250 988 l 250 -178 z "},"}":{"ha":443,"x_min":3,"x_max":432,"o":"m 49 -241 l 3 -112 q 88 -42 67 -89 q 108 84 108 6 l 108 217 q 124 310 108 269 q 163 379 139 351 q 216 422 188 407 q 164 464 188 436 q 124 534 139 492 q 108 626 108 576 l 108 760 q 88 885 108 838 q 3 958 67 933 l 49 1085 q 258 960 202 1041 q 314 760 314 880 l 314 626 q 338 532 314 562 q 432 502 362 502 l 432 342 q 338 311 362 342 q 314 217 314 281 l 314 84 q 258 -117 314 -35 q 49 -241 202 -198 z "},"~":{"ha":872,"x_min":55,"x_max":824,"o":"m 601 250 q 492 271 542 250 q 387 342 442 292 q 331 382 353 370 q 286 393 310 393 q 241 365 261 393 q 221 277 221 337 l 55 298 q 115 497 55 422 q 276 571 174 571 q 492 478 391 571 q 544 439 522 451 q 592 428 566 428 q 636 456 616 428 q 657 547 657 485 l 824 525 q 763 325 824 400 q 601 250 701 250 z "}," ":{"ha":346,"x_min":0,"x_max":0,"o":""},"¡":{"ha":385,"x_min":80,"x_max":306,"o":"m 306 544 l 80 544 l 80 741 l 306 741 l 306 544 m 306 -247 l 80 -247 l 80 408 l 306 408 l 306 -247 z "},"¢":{"ha":777,"x_min":52,"x_max":713,"o":"m 481 -162 l 316 -162 l 316 -5 q 121 114 190 15 q 52 360 52 214 l 52 380 q 122 626 52 526 q 316 747 191 726 l 316 897 l 481 897 l 481 746 q 647 653 581 729 q 713 450 713 578 l 499 450 q 470 549 499 518 q 394 579 442 579 q 303 527 328 579 q 284 457 289 497 q 278 360 278 417 q 303 212 278 263 q 395 161 328 161 q 470 187 442 161 q 499 272 499 213 l 713 272 q 645 85 713 158 q 481 -4 578 13 l 481 -162 z "},"£":{"ha":797,"x_min":46,"x_max":778,"o":"m 778 0 l 88 0 l 88 174 l 108 174 q 143 231 129 182 q 156 337 156 280 l 155 388 l 46 388 l 46 563 l 147 563 l 142 692 q 225 920 142 840 q 451 1001 308 1001 q 686 924 604 1001 q 767 703 767 847 l 542 703 q 516 801 542 776 q 451 826 490 826 q 391 794 414 826 q 369 692 369 762 l 374 563 l 609 563 l 609 388 l 382 388 l 384 346 q 364 243 384 292 q 325 174 344 194 l 778 174 l 778 0 z "},"¤":{"ha":928,"x_min":33,"x_max":911,"o":"m 796 -26 l 707 65 q 605 10 666 32 q 470 -12 544 -12 q 334 9 396 -12 q 233 64 272 31 l 147 -25 l 33 91 l 124 183 q 78 287 96 228 q 60 415 60 346 q 79 548 60 486 q 129 654 98 609 l 33 753 l 147 869 l 242 771 q 339 820 280 799 q 470 842 399 842 q 601 820 541 842 q 699 769 661 799 l 796 869 l 911 753 l 812 652 q 860 546 841 607 q 879 415 879 485 q 862 287 879 345 q 817 185 844 228 l 911 91 l 796 -26 m 470 139 q 649 217 576 139 q 723 415 723 294 q 650 612 723 534 q 470 690 577 690 q 289 613 363 690 q 216 415 216 535 q 289 216 216 294 q 470 139 363 139 z "},"¥":{"ha":818,"x_min":-11,"x_max":836,"o":"m 523 0 l 297 0 l 297 191 l 74 191 l 74 325 l 297 325 l 297 381 l 74 381 l 74 517 l 241 517 l -11 988 l 238 988 l 413 608 l 589 988 l 836 988 l 585 517 l 738 517 l 738 381 l 523 381 l 523 325 l 738 325 l 738 191 l 523 191 l 523 0 z "},"¦":{"ha":342,"x_min":70,"x_max":276,"o":"m 276 461 l 70 461 l 70 988 l 276 988 l 276 461 m 276 -178 l 70 -178 l 70 373 l 276 373 l 276 -178 z "},"§":{"ha":845,"x_min":46,"x_max":797,"o":"m 422 -304 q 153 -235 260 -304 q 46 1 46 -167 l 272 2 q 313 -102 272 -76 q 422 -128 355 -128 q 523 -105 492 -128 q 554 -43 554 -81 q 520 20 554 -3 q 374 76 485 43 q 127 183 207 119 q 47 367 47 246 q 76 479 47 432 q 145 547 105 526 q 88 620 112 572 q 65 737 65 669 q 162 932 65 862 q 424 1001 259 1001 q 689 925 594 1001 q 783 692 783 848 l 558 692 q 523 794 558 763 q 424 826 488 826 q 322 802 354 826 q 290 738 290 778 q 322 672 290 693 q 469 619 353 651 q 718 512 638 575 q 797 327 797 449 q 768 215 797 262 q 699 147 739 169 q 756 74 732 122 q 780 -42 780 26 q 734 -188 780 -130 q 608 -275 689 -246 q 422 -304 528 -304 m 535 230 q 563 259 550 238 q 575 310 575 280 q 539 378 575 352 q 392 439 503 405 q 307 464 334 454 q 283 435 293 456 q 272 385 272 415 q 303 313 272 336 q 451 254 335 289 q 535 230 501 241 z "},"¨":{"ha":719,"x_min":90,"x_max":628,"o":"m 299 826 l 90 826 l 90 988 l 299 988 l 299 826 m 628 826 l 420 826 l 420 988 l 628 988 l 628 826 z "},"©":{"ha":1053,"x_min":42,"x_max":1012,"o":"m 527 -13 q 181 132 319 -13 q 42 494 42 277 q 181 856 42 710 q 527 1001 320 1001 q 873 856 734 1001 q 1012 494 1012 710 q 873 132 1012 277 q 527 -13 733 -13 m 527 95 q 790 208 683 95 q 898 494 898 322 q 791 780 898 667 q 527 892 683 892 q 263 780 369 892 q 156 494 156 667 q 263 208 156 322 q 527 95 370 95 m 518 186 q 381 221 436 186 q 298 317 326 256 q 271 455 271 378 l 271 534 q 336 728 271 654 q 518 803 401 803 q 693 746 631 803 q 756 568 756 690 l 620 568 q 595 663 620 639 q 518 687 571 687 q 434 645 461 687 q 406 535 406 603 l 406 455 q 518 302 406 304 q 595 325 572 302 q 619 421 619 347 l 756 421 q 756 419 756 420 q 518 186 756 186 z "},"ª":{"ha":610,"x_min":214,"x_max":374,"o":"m 275 578 q 228 589 242 578 q 214 623 214 599 q 235 665 214 647 q 301 683 256 683 l 374 683 l 374 630 q 334 595 364 612 q 275 578 304 578 z "},"«":{"ha":694,"x_min":30,"x_max":651,"o":"m 381 76 l 222 76 l 30 344 l 30 363 l 222 630 l 381 630 l 214 353 l 381 76 m 651 76 l 492 76 l 300 344 l 300 363 l 492 630 l 651 630 l 484 353 l 651 76 z "},"¬":{"ha":744,"x_min":69,"x_max":653,"o":"m 653 247 l 488 247 l 488 419 l 69 419 l 69 558 l 653 558 l 653 247 z "},"­":{"ha":528,"x_min":60,"x_max":466,"o":"m 466 337 l 60 337 l 60 512 l 466 512 l 466 337 z "},"®":{"ha":1053,"x_min":42,"x_max":1012,"o":"m 527 -13 q 181 132 319 -13 q 42 494 42 277 q 181 856 42 710 q 527 1001 320 1001 q 873 856 734 1001 q 1012 494 1012 710 q 873 132 1012 277 q 527 -13 733 -13 m 527 95 q 790 208 683 95 q 898 494 898 322 q 791 780 898 667 q 527 892 683 892 q 263 780 369 892 q 156 494 156 667 q 263 208 156 322 q 527 95 370 95 m 758 209 l 627 209 q 615 262 617 235 q 614 353 614 289 q 597 414 614 397 q 536 431 579 431 l 449 431 l 449 209 l 316 209 l 316 796 l 518 796 q 639 776 588 796 q 720 715 691 756 q 749 610 749 674 q 728 537 749 568 q 687 494 707 506 q 728 445 710 483 q 747 353 747 408 l 747 316 q 758 235 747 260 l 758 209 m 522 546 q 590 562 563 546 q 617 610 617 578 q 596 668 617 653 q 518 682 575 682 l 449 682 l 449 546 l 522 546 z "},"¯":{"ha":678,"x_min":84,"x_max":600,"o":"m 600 853 l 84 853 l 84 988 l 600 988 l 600 853 z "},"ˉ":{"ha":678,"x_min":84,"x_max":600,"o":"m 600 853 l 84 853 l 84 988 l 600 988 l 600 853 z "},"°":{"ha":525,"x_min":69,"x_max":459,"o":"m 266 615 q 126 672 182 615 q 69 808 69 728 q 126 944 69 888 q 266 1001 182 1001 q 403 944 347 1001 q 459 808 459 888 q 403 671 459 727 q 266 615 347 615 m 266 739 q 309 757 290 739 q 328 808 328 774 q 310 860 328 841 q 266 879 291 879 q 219 860 240 879 q 199 808 199 841 q 219 757 199 776 q 266 739 240 739 z "},"±":{"ha":723,"x_min":44,"x_max":682,"o":"m 648 1 l 65 1 l 65 178 l 648 178 l 648 1 m 467 219 l 264 219 l 264 472 l 44 472 l 44 652 l 264 652 l 264 892 l 467 892 l 467 652 l 682 652 l 682 472 l 467 472 l 467 219 z "},"²":{"ha":566,"x_min":55,"x_max":507,"o":"m 507 441 l 64 441 l 64 561 l 272 731 q 319 783 309 763 q 330 826 330 804 q 285 874 330 874 q 283 874 284 874 q 240 858 254 874 q 226 804 226 843 l 55 804 q 118 951 55 899 q 287 1003 182 1003 q 447 956 392 1003 q 503 826 503 910 q 467 725 503 767 q 326 597 423 676 l 294 569 l 507 569 l 507 441 z "},"³":{"ha":563,"x_min":44,"x_max":518,"o":"m 283 433 q 112 477 179 433 q 44 619 44 522 l 217 619 q 232 573 217 585 q 282 561 247 561 q 347 609 345 561 q 329 651 347 638 q 273 665 310 665 l 183 665 l 183 778 l 273 778 q 322 790 307 778 q 337 828 337 802 q 281 873 337 873 q 280 873 281 873 q 238 862 251 873 q 225 824 225 851 l 53 824 q 116 958 53 915 q 276 1002 179 1002 q 397 984 344 1002 q 480 931 450 967 q 510 838 510 894 q 484 764 510 797 q 444 727 458 732 q 491 686 463 720 q 518 601 518 651 q 488 507 518 544 q 405 451 458 469 q 283 433 352 433 z "},"´":{"ha":477,"x_min":44,"x_max":449,"o":"m 234 801 l 44 801 l 195 1002 l 449 1002 l 234 801 z "},"µ":{"ha":840,"x_min":81,"x_max":752,"o":"m 306 -275 l 81 -275 l 81 741 l 306 741 l 306 318 q 331 192 306 222 q 408 163 357 163 q 526 223 496 163 l 526 741 l 752 741 l 752 0 l 540 0 l 538 24 q 493 2 533 18 q 403 -13 453 -13 q 336 -6 367 -13 l 306 1 l 306 -275 z "},"¶":{"ha":708,"x_min":24,"x_max":630,"o":"m 630 0 l 404 0 l 404 344 l 366 344 q 113 432 201 344 q 24 666 24 521 q 113 899 24 810 q 366 988 201 988 l 630 988 l 630 0 z "},"·":{"ha":411,"x_min":92,"x_max":317,"o":"m 317 375 l 92 375 l 92 574 l 317 574 l 317 375 z "},"¸":{"ha":362,"x_min":47,"x_max":339,"o":"m 75 -303 l 69 -169 q 128 -160 114 -169 q 143 -128 143 -151 q 128 -100 143 -108 q 47 -87 113 -92 l 72 30 l 250 30 l 242 -10 q 307 -46 274 -15 q 339 -135 339 -76 q 275 -258 339 -212 q 75 -303 210 -303 z "},"¹":{"ha":525,"x_min":98,"x_max":371,"o":"m 371 455 l 219 455 l 219 820 l 98 795 l 98 910 l 358 993 l 371 993 l 371 455 z "},"º":{"ha":617,"x_min":64,"x_max":553,"o":"m 310 456 q 175 487 229 456 q 92 570 120 518 q 64 690 64 623 l 64 767 q 92 886 64 833 q 174 970 120 939 q 308 1001 228 1001 q 443 970 389 1001 q 526 886 498 939 q 553 767 553 833 l 553 690 q 526 570 553 623 q 443 487 498 518 q 310 456 389 456 m 310 579 q 382 609 359 579 q 406 690 406 639 l 406 767 q 382 847 406 817 q 308 878 358 878 q 236 847 259 878 q 213 767 213 817 l 213 690 q 236 608 213 638 q 310 579 260 579 z "},"»":{"ha":694,"x_min":22,"x_max":653,"o":"m 182 100 l 22 100 l 188 376 l 22 653 l 182 653 l 375 387 l 375 367 l 182 100 m 460 100 l 301 100 l 467 376 l 301 653 l 460 653 l 653 387 l 653 367 l 460 100 z "},"¼":{"ha":1013,"x_min":57,"x_max":988,"o":"m 330 454 l 178 454 l 178 819 l 57 794 l 57 908 l 317 992 l 330 992 l 330 454 m 270 72 l 148 136 l 632 910 l 753 847 l 270 72 m 749 222 l 749 337 l 658 222 l 749 222 m 921 0 l 749 0 l 749 92 l 479 92 l 468 192 l 756 556 l 921 556 l 921 222 l 988 222 l 988 92 l 921 92 l 921 0 z "},"½":{"ha":1053,"x_min":43,"x_max":1002,"o":"m 316 454 l 164 454 l 164 819 l 43 794 l 43 908 l 303 992 l 316 992 l 316 454 m 269 72 l 147 136 l 631 910 l 752 847 l 269 72 m 1002 0 l 559 0 l 559 122 l 768 292 q 815 343 805 322 q 825 387 825 364 q 778 434 825 434 q 735 418 749 434 q 722 364 722 402 l 550 364 q 613 510 550 458 q 782 562 676 562 q 942 516 886 562 q 998 386 998 469 q 961 284 998 326 q 822 157 918 235 l 790 129 l 1002 129 l 1002 0 z "},"¾":{"ha":1156,"x_min":39,"x_max":1115,"o":"m 277 449 q 106 494 173 449 q 39 636 39 539 l 210 636 q 226 590 210 602 q 276 578 241 578 q 341 625 340 578 q 323 667 341 653 q 267 681 304 681 l 177 681 l 177 794 l 267 794 q 316 807 301 794 q 331 844 331 819 q 274 890 331 890 q 232 879 245 890 q 219 841 219 868 l 47 841 q 110 975 47 931 q 269 1018 173 1018 q 391 1001 339 1018 q 474 947 444 983 q 503 854 503 910 q 478 781 503 813 q 438 743 452 749 q 484 702 457 736 q 512 618 512 668 q 482 523 512 560 q 399 467 452 485 q 277 449 346 449 m 418 72 l 296 136 l 780 910 l 901 847 l 418 72 m 1048 0 l 876 0 l 876 92 l 606 92 l 595 192 l 883 556 l 1048 556 l 1048 222 l 1115 222 l 1115 92 l 1048 92 l 1048 0 m 876 222 l 876 337 l 785 222 l 876 222 z "},"¿":{"ha":678,"x_min":34,"x_max":694,"o":"m 498 549 l 270 549 l 270 741 l 498 741 l 498 549 m 367 -259 q 182 -222 256 -259 q 70 -120 107 -185 q 34 31 34 -56 q 84 191 34 118 q 213 315 134 264 q 260 371 249 341 q 272 467 272 401 l 497 467 q 468 313 496 356 q 358 205 441 269 q 286 126 312 167 q 260 32 260 84 q 367 -83 260 -81 q 438 -58 410 -83 q 469 30 466 -33 l 694 30 q 602 -190 692 -120 q 367 -259 513 -259 z "},"À":{"ha":873,"x_min":-10,"x_max":892,"o":"m 542 385 l 441 710 l 339 385 l 542 385 m 892 0 l 663 0 l 597 210 l 284 210 l 219 0 l -10 0 l 329 988 l 552 988 l 892 0 m 570 1039 l 377 1039 l 168 1240 l 421 1240 l 570 1039 z "},"Á":{"ha":873,"x_min":-10,"x_max":892,"o":"m 542 385 l 441 710 l 339 385 l 542 385 m 892 0 l 663 0 l 597 210 l 284 210 l 219 0 l -10 0 l 329 988 l 552 988 l 892 0 m 514 1039 l 324 1039 l 475 1240 l 728 1240 l 514 1039 z "},"Â":{"ha":873,"x_min":-10,"x_max":892,"o":"m 542 385 l 441 710 l 339 385 l 542 385 m 892 0 l 663 0 l 597 210 l 284 210 l 219 0 l -10 0 l 329 988 l 552 988 l 892 0 m 707 1059 l 540 1059 l 444 1149 l 350 1059 l 186 1059 l 186 1094 l 382 1262 l 508 1262 l 707 1093 l 707 1059 z "},"Ã":{"ha":873,"x_min":-10,"x_max":892,"o":"m 722 1303 q 710 1231 722 1265 q 677 1172 699 1197 q 627 1131 656 1146 q 564 1115 598 1115 q 508 1125 532 1115 q 463 1145 484 1134 q 421 1165 442 1156 q 373 1174 399 1174 q 336 1159 351 1174 q 321 1112 321 1144 l 192 1118 q 204 1189 192 1154 q 237 1249 216 1223 q 286 1290 258 1274 q 350 1306 315 1306 q 400 1297 376 1306 q 447 1277 424 1288 q 492 1257 469 1266 q 541 1249 515 1249 q 579 1264 563 1249 q 594 1310 594 1278 l 722 1303 m 892 0 l 663 0 l 597 210 l 284 210 l 219 0 l -10 0 l 329 988 l 552 988 l 892 0 m 542 385 l 441 710 l 339 385 l 542 385 z "},"Ä":{"ha":873,"x_min":-10,"x_max":892,"o":"m 542 385 l 441 710 l 339 385 l 542 385 m 892 0 l 663 0 l 597 210 l 284 210 l 219 0 l -10 0 l 329 988 l 552 988 l 892 0 m 384 1065 l 175 1065 l 175 1226 l 384 1226 l 384 1065 m 714 1065 l 506 1065 l 506 1226 l 714 1226 l 714 1065 z "},"Å":{"ha":873,"x_min":-10,"x_max":892,"o":"m 450 1033 q 338 1071 383 1033 q 293 1172 293 1109 q 338 1275 293 1234 q 450 1315 382 1315 q 561 1274 517 1315 q 605 1172 605 1233 q 560 1070 605 1108 q 450 1033 516 1033 m 450 1121 q 482 1133 469 1121 q 495 1172 495 1146 q 482 1212 495 1199 q 450 1225 469 1225 q 417 1212 431 1225 q 402 1172 402 1199 q 417 1134 402 1147 q 450 1121 431 1121 m 892 0 l 663 0 l 597 210 l 284 210 l 219 0 l -10 0 l 329 988 l 552 988 l 892 0 m 542 385 l 441 710 l 339 385 l 542 385 z "},"Æ":{"ha":1268,"x_min":-19,"x_max":1251,"o":"m 610 406 l 597 707 l 447 406 l 610 406 m 1251 0 l 626 0 l 617 222 l 355 222 l 243 0 l -19 0 l 513 988 l 1210 988 l 1210 811 l 818 811 l 828 596 l 1157 596 l 1157 420 l 835 420 l 844 176 l 1251 176 l 1251 0 z "},"Ç":{"ha":874,"x_min":56,"x_max":851,"o":"m 377 -304 l 372 -171 q 431 -162 416 -171 q 445 -130 445 -153 q 430 -102 445 -110 q 349 -89 415 -94 l 367 -6 q 163 101 242 15 q 56 398 56 214 l 56 590 q 164 887 56 772 q 451 1001 271 1001 q 730 914 628 1001 q 851 639 832 827 l 625 639 q 577 784 617 741 q 451 826 538 826 q 358 796 395 826 q 301 713 320 766 q 282 591 282 659 l 282 398 q 300 274 282 328 q 356 191 319 221 q 451 160 394 160 q 577 204 538 160 q 624 344 617 248 l 850 344 q 731 74 835 161 q 544 -6 657 11 l 544 -11 q 609 -47 576 -17 q 641 -136 641 -78 q 577 -259 641 -214 q 377 -304 513 -304 z "},"È":{"ha":782,"x_min":81,"x_max":772,"o":"m 772 0 l 81 0 l 81 988 l 771 988 l 771 813 l 306 813 l 306 597 l 705 597 l 705 423 l 306 423 l 306 174 l 772 174 l 772 0 m 533 1039 l 340 1039 l 131 1240 l 384 1240 l 533 1039 z "},"É":{"ha":782,"x_min":81,"x_max":772,"o":"m 772 0 l 81 0 l 81 988 l 771 988 l 771 813 l 306 813 l 306 597 l 705 597 l 705 423 l 306 423 l 306 174 l 772 174 l 772 0 m 477 1039 l 287 1039 l 438 1240 l 692 1240 l 477 1039 z "},"Ê":{"ha":782,"x_min":81,"x_max":772,"o":"m 772 0 l 81 0 l 81 988 l 771 988 l 771 813 l 306 813 l 306 597 l 705 597 l 705 423 l 306 423 l 306 174 l 772 174 l 772 0 m 672 1059 l 504 1059 l 408 1149 l 315 1059 l 151 1059 l 151 1094 l 347 1262 l 472 1262 l 672 1093 l 672 1059 z "},"Ë":{"ha":782,"x_min":81,"x_max":772,"o":"m 772 0 l 81 0 l 81 988 l 771 988 l 771 813 l 306 813 l 306 597 l 705 597 l 705 423 l 306 423 l 306 174 l 772 174 l 772 0 m 348 1065 l 139 1065 l 139 1226 l 348 1226 l 348 1065 m 678 1065 l 469 1065 l 469 1226 l 678 1226 l 678 1065 z "},"Ì":{"ha":408,"x_min":-76,"x_max":326,"o":"m 319 0 l 93 0 l 93 988 l 319 988 l 319 0 m 326 1039 l 133 1039 l -76 1240 l 177 1240 l 326 1039 z "},"Í":{"ha":408,"x_min":78,"x_max":483,"o":"m 319 0 l 93 0 l 93 988 l 319 988 l 319 0 m 269 1039 l 78 1039 l 230 1240 l 483 1240 l 269 1039 z "},"Î":{"ha":408,"x_min":-57,"x_max":464,"o":"m 319 0 l 93 0 l 93 988 l 319 988 l 319 0 m 464 1059 l 297 1059 l 201 1149 l 107 1059 l -57 1059 l -57 1094 l 139 1262 l 265 1262 l 464 1093 l 464 1059 z "},"Ï":{"ha":408,"x_min":-68,"x_max":471,"o":"m 319 0 l 93 0 l 93 988 l 319 988 l 319 0 m 141 1065 l -68 1065 l -68 1226 l 141 1226 l 141 1065 m 471 1065 l 263 1065 l 263 1226 l 471 1226 l 471 1065 z "},"Ð":{"ha":924,"x_min":9,"x_max":876,"o":"m 421 0 l 98 0 l 98 431 l 9 431 l 9 577 l 98 577 l 98 988 l 425 988 q 755 869 633 988 q 876 556 876 750 l 876 431 q 754 118 876 235 q 421 0 632 0 m 412 174 q 649 430 649 174 q 649 431 649 431 l 649 558 q 415 813 649 813 l 324 813 l 324 577 l 485 577 l 485 431 l 324 431 l 324 174 l 412 174 z "},"Ñ":{"ha":963,"x_min":81,"x_max":891,"o":"m 768 1303 q 757 1231 768 1265 q 724 1172 745 1197 q 674 1131 703 1146 q 610 1115 644 1115 q 555 1125 578 1115 q 510 1145 531 1134 q 467 1165 489 1156 q 419 1174 446 1174 q 383 1159 398 1174 q 367 1112 367 1144 l 239 1118 q 251 1189 239 1154 q 283 1249 263 1223 q 333 1290 304 1274 q 397 1306 362 1306 q 447 1297 423 1306 q 493 1277 470 1288 q 539 1257 516 1266 q 588 1249 562 1249 q 625 1264 610 1249 q 641 1310 641 1278 l 768 1303 m 891 0 l 672 0 l 306 618 l 306 0 l 81 0 l 81 988 l 301 988 l 666 370 l 666 988 l 891 988 l 891 0 z "},"Ò":{"ha":938,"x_min":56,"x_max":892,"o":"m 604 1053 l 411 1053 l 202 1254 l 455 1254 l 604 1053 m 472 -13 q 170 106 283 -13 q 56 407 56 224 l 56 581 q 169 883 56 764 q 472 1001 283 1001 q 776 882 661 1001 q 892 581 892 763 l 892 407 q 776 106 892 224 q 472 -13 661 -13 m 472 163 q 578 194 535 163 q 644 281 622 226 q 666 407 666 336 l 666 582 q 643 707 666 653 q 578 792 621 761 q 472 824 535 824 q 366 793 408 824 q 302 707 324 762 q 281 582 281 652 l 281 407 q 303 281 281 336 q 366 194 324 226 q 472 163 408 163 z "},"Ó":{"ha":938,"x_min":56,"x_max":892,"o":"m 547 1053 l 357 1053 l 508 1254 l 762 1254 l 547 1053 m 472 -13 q 170 106 283 -13 q 56 407 56 224 l 56 581 q 169 883 56 764 q 472 1001 283 1001 q 776 882 661 1001 q 892 581 892 763 l 892 407 q 776 106 892 224 q 472 -13 661 -13 m 472 163 q 578 194 535 163 q 644 281 622 226 q 666 407 666 336 l 666 582 q 643 707 666 653 q 578 792 621 761 q 472 824 535 824 q 366 793 408 824 q 302 707 324 762 q 281 582 281 652 l 281 407 q 303 281 281 336 q 366 194 324 226 q 472 163 408 163 z "},"Ô":{"ha":938,"x_min":56,"x_max":892,"o":"m 742 1074 l 574 1074 l 478 1163 l 385 1074 l 221 1074 l 221 1109 l 417 1276 l 542 1276 l 742 1108 l 742 1074 m 472 -13 q 170 106 283 -13 q 56 407 56 224 l 56 581 q 169 883 56 764 q 472 1001 283 1001 q 776 882 661 1001 q 892 581 892 763 l 892 407 q 776 106 892 224 q 472 -13 661 -13 m 472 163 q 578 194 535 163 q 644 281 622 226 q 666 407 666 336 l 666 582 q 643 707 666 653 q 578 792 621 761 q 472 824 535 824 q 366 793 408 824 q 302 707 324 762 q 281 582 281 652 l 281 407 q 303 281 281 336 q 366 194 324 226 q 472 163 408 163 z "},"Õ":{"ha":938,"x_min":56,"x_max":892,"o":"m 756 1318 q 745 1247 756 1281 q 712 1187 733 1213 q 662 1146 691 1161 q 599 1131 633 1131 q 543 1140 567 1131 q 498 1160 519 1149 q 456 1180 477 1171 q 408 1189 434 1189 q 371 1174 386 1189 q 356 1127 356 1159 l 227 1133 q 239 1204 227 1169 q 272 1264 251 1238 q 321 1305 292 1290 q 385 1321 350 1321 q 435 1312 411 1321 q 481 1292 458 1303 q 527 1273 504 1281 q 576 1264 550 1264 q 614 1279 598 1264 q 629 1326 629 1294 l 756 1318 m 472 -13 q 170 106 283 -13 q 56 407 56 224 l 56 581 q 169 883 56 764 q 472 1001 283 1001 q 776 882 661 1001 q 892 581 892 763 l 892 407 q 776 106 892 224 q 472 -13 661 -13 m 472 163 q 578 194 535 163 q 644 281 622 226 q 666 407 666 336 l 666 582 q 643 707 666 653 q 578 792 621 761 q 472 824 535 824 q 366 793 408 824 q 302 707 324 762 q 281 582 281 652 l 281 407 q 303 281 281 336 q 366 194 324 226 q 472 163 408 163 z "},"Ö":{"ha":938,"x_min":56,"x_max":892,"o":"m 419 1079 l 210 1079 l 210 1240 l 419 1240 l 419 1079 m 749 1079 l 540 1079 l 540 1240 l 749 1240 l 749 1079 m 472 -13 q 170 106 283 -13 q 56 407 56 224 l 56 581 q 169 883 56 764 q 472 1001 283 1001 q 776 882 661 1001 q 892 581 892 763 l 892 407 q 776 106 892 224 q 472 -13 661 -13 m 472 163 q 578 194 535 163 q 644 281 622 226 q 666 407 666 336 l 666 582 q 643 707 666 653 q 578 792 621 761 q 472 824 535 824 q 366 793 408 824 q 302 707 324 762 q 281 582 281 652 l 281 407 q 303 281 281 336 q 366 194 324 226 q 472 163 408 163 z "},"×":{"ha":713,"x_min":22,"x_max":692,"o":"m 556 129 l 357 333 l 157 129 l 22 258 l 226 466 l 22 674 l 157 804 l 357 599 l 556 804 l 692 674 l 488 466 l 692 258 l 556 129 z "},"Ø":{"ha":933,"x_min":53,"x_max":889,"o":"m 231 -62 l 101 -62 l 188 88 q 91 220 128 139 q 53 407 53 301 l 53 581 q 167 883 53 764 q 469 1001 280 1001 q 596 985 539 1001 q 688 945 653 968 l 736 1029 l 866 1029 l 777 875 q 858 749 827 824 q 889 581 889 674 l 889 407 q 774 106 889 224 q 469 -13 660 -13 q 360 -2 409 -13 q 282 26 310 10 l 231 -62 m 300 280 l 590 778 q 541 811 572 797 q 469 824 510 824 q 363 793 405 824 q 300 707 321 762 q 278 582 278 652 l 278 407 q 287 324 278 360 q 300 280 296 288 m 469 163 q 576 194 533 163 q 641 281 619 226 q 663 407 663 336 l 663 582 q 656 653 663 612 l 654 664 l 376 187 q 413 170 388 178 q 469 163 438 163 z "},"Ù":{"ha":935,"x_min":70,"x_max":874,"o":"m 602 1039 l 409 1039 l 200 1240 l 453 1240 l 602 1039 m 471 -13 q 179 77 288 -13 q 70 337 70 167 l 70 988 l 297 988 l 297 337 q 471 160 297 160 q 602 203 557 160 q 647 337 647 246 l 647 988 l 874 988 l 874 337 q 764 77 874 167 q 471 -13 653 -13 z "},"Ú":{"ha":935,"x_min":70,"x_max":874,"o":"m 546 1039 l 356 1039 l 507 1240 l 760 1240 l 546 1039 m 471 -13 q 179 77 288 -13 q 70 337 70 167 l 70 988 l 297 988 l 297 337 q 471 160 297 160 q 602 203 557 160 q 647 337 647 246 l 647 988 l 874 988 l 874 337 q 764 77 874 167 q 471 -13 653 -13 z "},"Û":{"ha":935,"x_min":70,"x_max":874,"o":"m 740 1059 l 572 1059 l 476 1149 l 383 1059 l 219 1059 l 219 1094 l 415 1262 l 540 1262 l 740 1093 l 740 1059 m 471 -13 q 179 77 288 -13 q 70 337 70 167 l 70 988 l 297 988 l 297 337 q 471 160 297 160 q 602 203 557 160 q 647 337 647 246 l 647 988 l 874 988 l 874 337 q 764 77 874 167 q 471 -13 653 -13 z "},"Ü":{"ha":935,"x_min":70,"x_max":874,"o":"m 416 1065 l 207 1065 l 207 1226 l 416 1226 l 416 1065 m 746 1065 l 538 1065 l 538 1226 l 746 1226 l 746 1065 m 471 -13 q 179 77 288 -13 q 70 337 70 167 l 70 988 l 297 988 l 297 337 q 471 160 297 160 q 602 203 557 160 q 647 337 647 246 l 647 988 l 874 988 l 874 337 q 764 77 874 167 q 471 -13 653 -13 z "},"Ý":{"ha":856,"x_min":-16,"x_max":880,"o":"m 542 0 l 317 0 l 317 359 l -16 988 l 231 988 l 432 564 l 633 988 l 880 988 l 542 349 l 542 0 m 512 1039 l 322 1039 l 473 1240 l 726 1240 l 512 1039 z "},"Þ":{"ha":828,"x_min":78,"x_max":806,"o":"m 303 0 l 78 0 l 78 988 l 303 988 l 303 810 l 433 810 q 709 725 612 810 q 806 501 806 640 q 709 276 806 360 q 433 192 612 192 l 303 192 l 303 0 m 433 366 q 544 403 508 366 q 579 500 579 440 q 544 597 579 560 q 433 634 508 634 l 303 634 l 303 366 l 433 366 z "},"ß":{"ha":856,"x_min":78,"x_max":833,"o":"m 521 -12 q 413 -2 467 -12 q 319 31 358 8 l 362 208 q 439 172 404 183 q 517 161 474 161 q 585 182 563 161 q 608 240 608 203 q 509 370 608 283 q 409 558 410 458 q 446 688 409 622 q 481 799 481 752 q 456 867 481 842 q 400 891 431 891 q 331 854 359 891 q 303 738 303 817 l 303 0 l 78 0 l 78 740 q 120 922 78 849 q 237 1030 162 994 q 413 1065 312 1065 q 623 999 540 1065 q 705 810 705 933 q 670 672 705 735 q 635 564 635 608 q 734 439 635 531 q 833 249 833 347 q 521 -12 833 -12 z "},"à":{"ha":728,"x_min":35,"x_max":708,"o":"m 491 818 l 298 818 l 89 1019 l 342 1019 l 491 818 m 277 -13 q 97 46 159 -13 q 35 215 35 105 q 119 390 35 331 q 367 449 203 449 l 448 449 l 448 508 q 429 572 448 556 q 357 588 410 588 q 292 570 311 588 q 274 502 274 552 l 49 502 q 132 692 49 629 q 369 754 215 754 q 594 696 514 754 q 674 507 674 638 l 674 197 q 681 100 674 142 q 708 0 687 58 l 482 0 q 467 40 472 23 l 463 50 l 464 46 q 398 9 450 32 q 277 -13 347 -13 m 334 156 q 406 168 376 156 q 448 198 435 181 l 448 313 l 367 313 q 285 290 310 313 q 260 221 260 268 q 277 171 260 186 q 334 156 294 156 z "},"á":{"ha":728,"x_min":35,"x_max":708,"o":"m 435 818 l 244 818 l 396 1019 l 649 1019 l 435 818 m 277 -13 q 97 46 159 -13 q 35 215 35 105 q 119 390 35 331 q 367 449 203 449 l 448 449 l 448 508 q 429 572 448 556 q 357 588 410 588 q 292 570 311 588 q 274 502 274 552 l 49 502 q 132 692 49 629 q 369 754 215 754 q 594 696 514 754 q 674 507 674 638 l 674 197 q 681 100 674 142 q 708 0 687 58 l 482 0 q 467 40 472 23 l 463 50 l 464 46 q 398 9 450 32 q 277 -13 347 -13 m 334 156 q 406 168 376 156 q 448 198 435 181 l 448 313 l 367 313 q 285 290 310 313 q 260 221 260 268 q 277 171 260 186 q 334 156 294 156 z "},"â":{"ha":728,"x_min":35,"x_max":708,"o":"m 628 839 l 461 839 l 365 928 l 272 839 l 108 839 l 108 874 l 303 1042 l 429 1042 l 628 873 l 628 839 m 277 -13 q 97 46 159 -13 q 35 215 35 105 q 119 390 35 331 q 367 449 203 449 l 448 449 l 448 508 q 429 572 448 556 q 357 588 410 588 q 292 570 311 588 q 274 502 274 552 l 49 502 q 132 692 49 629 q 369 754 215 754 q 594 696 514 754 q 674 507 674 638 l 674 197 q 681 100 674 142 q 708 0 687 58 l 482 0 q 467 40 472 23 l 463 50 l 464 46 q 398 9 450 32 q 277 -13 347 -13 m 334 156 q 406 168 376 156 q 448 198 435 181 l 448 313 l 367 313 q 285 290 310 313 q 260 221 260 268 q 277 171 260 186 q 334 156 294 156 z "},"ã":{"ha":728,"x_min":35,"x_max":708,"o":"m 643 1083 q 632 1011 643 1045 q 599 951 620 977 q 549 910 578 926 q 485 895 519 895 q 430 905 453 895 q 385 925 406 914 q 342 944 364 935 q 294 953 321 953 q 258 939 273 953 q 242 892 242 924 l 114 898 q 126 968 114 934 q 158 1028 138 1003 q 208 1070 179 1054 q 272 1085 237 1085 q 322 1077 298 1085 q 368 1057 345 1068 q 414 1037 391 1046 q 463 1028 437 1028 q 500 1043 485 1028 q 516 1090 516 1058 l 643 1083 m 277 -13 q 97 46 159 -13 q 35 215 35 105 q 119 390 35 331 q 367 449 203 449 l 448 449 l 448 508 q 429 572 448 556 q 357 588 410 588 q 292 570 311 588 q 274 502 274 552 l 49 502 q 132 692 49 629 q 369 754 215 754 q 594 696 514 754 q 674 507 674 638 l 674 197 q 681 100 674 142 q 708 0 687 58 l 482 0 q 467 40 472 23 l 463 50 l 464 46 q 398 9 450 32 q 277 -13 347 -13 m 334 156 q 406 168 376 156 q 448 198 435 181 l 448 313 l 367 313 q 285 290 310 313 q 260 221 260 268 q 277 171 260 186 q 334 156 294 156 z "},"ä":{"ha":728,"x_min":35,"x_max":708,"o":"m 306 844 l 97 844 l 97 1006 l 306 1006 l 306 844 m 635 844 l 427 844 l 427 1006 l 635 1006 l 635 844 m 277 -13 q 97 46 159 -13 q 35 215 35 105 q 119 390 35 331 q 367 449 203 449 l 448 449 l 448 508 q 429 572 448 556 q 357 588 410 588 q 292 570 311 588 q 274 502 274 552 l 49 502 q 132 692 49 629 q 369 754 215 754 q 594 696 514 754 q 674 507 674 638 l 674 197 q 681 100 674 142 q 708 0 687 58 l 482 0 q 467 40 472 23 l 463 50 l 464 46 q 398 9 450 32 q 277 -13 347 -13 m 334 156 q 406 168 376 156 q 448 198 435 181 l 448 313 l 367 313 q 285 290 310 313 q 260 221 260 268 q 277 171 260 186 q 334 156 294 156 z "},"å":{"ha":728,"x_min":35,"x_max":708,"o":"m 371 812 q 259 850 303 812 q 214 951 214 888 q 258 1054 214 1013 q 371 1094 303 1094 q 482 1053 438 1094 q 526 951 526 1013 q 481 850 526 888 q 371 812 437 812 m 371 900 q 403 913 390 900 q 416 951 416 925 q 403 991 416 978 q 371 1004 390 1004 q 338 991 352 1004 q 323 951 323 978 q 338 913 323 926 q 371 900 352 900 m 277 -13 q 97 46 159 -13 q 35 215 35 105 q 119 390 35 331 q 367 449 203 449 l 448 449 l 448 508 q 429 572 448 556 q 357 588 410 588 q 292 570 311 588 q 274 502 274 552 l 49 502 q 132 692 49 629 q 369 754 215 754 q 594 696 514 754 q 674 507 674 638 l 674 197 q 681 100 674 142 q 708 0 687 58 l 482 0 q 467 40 472 23 l 463 50 l 464 46 q 398 9 450 32 q 277 -13 347 -13 m 334 156 q 406 168 376 156 q 448 198 435 181 l 448 313 l 367 313 q 285 290 310 313 q 260 221 260 268 q 277 171 260 186 q 334 156 294 156 z "},"æ":{"ha":1139,"x_min":18,"x_max":1128,"o":"m 827 -13 q 664 15 731 -13 q 564 81 597 42 q 466 17 535 47 q 299 -13 396 -13 q 141 16 203 -13 q 48 99 78 46 q 18 223 18 152 q 55 346 18 294 q 168 426 92 398 q 363 454 244 454 l 466 454 l 466 480 q 442 555 466 531 q 379 579 419 579 q 281 497 281 579 l 281 491 l 56 506 q 98 643 56 588 q 213 726 140 699 q 381 754 286 754 q 512 735 456 754 q 599 690 568 715 q 684 735 629 716 q 811 754 739 754 q 986 712 916 754 q 1092 593 1057 669 q 1128 417 1128 517 l 1128 300 l 694 300 q 735 200 699 239 q 847 160 771 160 q 943 173 903 160 q 1050 222 983 185 l 1112 76 q 989 11 1060 35 q 827 -13 917 -13 m 906 451 q 884 545 906 511 q 811 579 863 579 q 729 543 757 579 q 696 451 701 508 l 906 451 m 335 149 q 408 167 371 149 q 466 208 446 185 l 466 307 l 364 307 q 272 281 301 307 q 243 220 243 254 q 335 149 243 149 z "},"ç":{"ha":701,"x_min":28,"x_max":688,"o":"m 297 -304 l 291 -171 q 350 -162 335 -171 q 365 -130 365 -153 q 350 -102 365 -110 q 268 -89 335 -94 l 287 -5 q 116 92 179 16 q 28 360 28 195 l 28 380 q 116 649 28 544 q 374 754 203 754 q 602 675 517 754 q 688 450 688 597 l 474 450 q 445 549 474 518 q 371 579 417 579 q 280 527 304 579 q 259 457 265 497 q 253 360 253 417 q 278 212 253 263 q 372 161 303 161 q 445 187 417 161 q 474 272 474 213 l 688 272 q 599 64 688 140 q 465 -3 541 15 l 463 -11 q 528 -47 496 -17 q 560 -136 560 -78 q 496 -259 560 -214 q 297 -304 432 -304 z "},"è":{"ha":717,"x_min":38,"x_max":697,"o":"m 492 819 l 299 819 l 90 1020 l 343 1020 l 492 819 m 394 -12 q 134 90 229 -12 q 38 350 38 192 l 38 376 q 128 648 38 542 q 374 754 217 754 l 377 754 q 615 664 533 754 q 697 418 697 574 l 697 300 l 267 300 q 311 202 274 242 q 414 161 349 161 q 516 173 477 161 q 623 222 554 185 l 674 69 q 551 8 621 29 q 394 -12 482 -12 m 476 453 q 454 545 476 511 q 377 579 432 579 q 323 562 345 579 q 287 516 300 544 q 270 453 274 488 l 476 453 z "},"é":{"ha":717,"x_min":38,"x_max":697,"o":"m 436 819 l 246 819 l 397 1020 l 651 1020 l 436 819 m 394 -12 q 134 90 229 -12 q 38 350 38 192 l 38 376 q 128 648 38 542 q 374 754 217 754 l 377 754 q 615 664 533 754 q 697 418 697 574 l 697 300 l 267 300 q 311 202 274 242 q 414 161 349 161 q 516 173 477 161 q 623 222 554 185 l 674 69 q 551 8 621 29 q 394 -12 482 -12 m 476 453 q 454 545 476 511 q 377 579 432 579 q 323 562 345 579 q 287 516 300 544 q 270 453 274 488 l 476 453 z "},"ê":{"ha":717,"x_min":38,"x_max":697,"o":"m 630 840 l 463 840 l 367 929 l 273 840 l 109 840 l 109 875 l 305 1042 l 431 1042 l 630 874 l 630 840 m 394 -12 q 134 90 229 -12 q 38 350 38 192 l 38 376 q 128 648 38 542 q 374 754 217 754 l 377 754 q 615 664 533 754 q 697 418 697 574 l 697 300 l 267 300 q 311 202 274 242 q 414 161 349 161 q 516 173 477 161 q 623 222 554 185 l 674 69 q 551 8 621 29 q 394 -12 482 -12 m 476 453 q 454 545 476 511 q 377 579 432 579 q 323 562 345 579 q 287 516 300 544 q 270 453 274 488 l 476 453 z "},"ë":{"ha":717,"x_min":38,"x_max":697,"o":"m 307 845 l 98 845 l 98 1006 l 307 1006 l 307 845 m 637 845 l 428 845 l 428 1006 l 637 1006 l 637 845 m 394 -12 q 134 90 229 -12 q 38 350 38 192 l 38 376 q 128 648 38 542 q 374 754 217 754 l 377 754 q 615 664 533 754 q 697 418 697 574 l 697 300 l 267 300 q 311 202 274 242 q 414 161 349 161 q 516 173 477 161 q 623 222 554 185 l 674 69 q 551 8 621 29 q 394 -12 482 -12 m 476 453 q 454 545 476 511 q 377 579 432 579 q 323 562 345 579 q 287 516 300 544 q 270 453 274 488 l 476 453 z "},"ì":{"ha":379,"x_min":-90,"x_max":312,"o":"m 302 0 l 76 0 l 76 741 l 302 741 l 302 0 m 312 804 l 119 804 l -90 1006 l 163 1006 l 312 804 z "},"í":{"ha":379,"x_min":63,"x_max":468,"o":"m 302 0 l 76 0 l 76 741 l 302 741 l 302 0 m 253 804 l 63 804 l 215 1006 l 468 1006 l 253 804 z "},"î":{"ha":379,"x_min":-72,"x_max":449,"o":"m 302 0 l 76 0 l 76 741 l 302 741 l 302 0 m 449 825 l 281 825 l 185 915 l 92 825 l -72 825 l -72 860 l 124 1028 l 249 1028 l 449 859 l 449 825 z "},"ï":{"ha":379,"x_min":-83,"x_max":456,"o":"m 302 0 l 76 0 l 76 741 l 302 741 l 302 0 m 126 831 l -83 831 l -83 992 l 126 992 l 126 831 m 456 831 l 247 831 l 247 992 l 456 992 l 456 831 z "},"ð":{"ha":805,"x_min":19,"x_max":770,"o":"m 391 -13 q 121 82 224 -13 q 19 322 19 178 q 110 572 19 479 q 365 665 202 665 q 515 629 447 665 q 479 698 501 665 q 438 752 458 731 l 283 667 l 215 764 l 333 829 q 246 863 324 836 l 317 1032 q 532 939 459 996 l 674 1017 l 741 920 l 625 856 q 730 686 690 788 q 770 450 770 584 l 770 399 q 663 102 770 217 q 391 -13 556 -13 m 394 160 q 504 226 463 160 q 544 399 544 292 l 544 448 q 490 483 528 467 q 396 499 452 499 q 282 450 319 499 q 244 322 244 401 q 262 240 244 276 q 313 182 280 203 q 394 160 345 160 z "},"ñ":{"ha":766,"x_min":59,"x_max":714,"o":"m 666 1083 q 655 1011 666 1045 q 622 951 643 977 q 572 910 601 926 q 508 895 542 895 q 452 905 476 895 q 408 925 428 914 q 365 944 387 935 q 317 953 344 953 q 281 939 296 953 q 265 892 265 924 l 137 898 q 149 968 137 934 q 181 1028 160 1003 q 231 1070 202 1054 q 294 1085 260 1085 q 344 1077 321 1085 q 391 1057 368 1068 q 437 1037 414 1046 q 485 1028 460 1028 q 523 1043 508 1028 q 539 1090 539 1058 l 666 1083 m 714 0 l 488 0 l 488 459 q 465 551 488 524 q 388 578 442 578 q 285 528 319 578 l 285 0 l 59 0 l 59 741 l 271 741 l 277 670 q 359 731 310 708 q 468 754 408 754 q 714 460 714 754 l 714 0 z "},"ò":{"ha":765,"x_min":31,"x_max":739,"o":"m 514 818 l 321 818 l 112 1019 l 365 1019 l 514 818 m 385 -12 q 123 92 215 -12 q 31 364 31 196 l 31 377 q 123 649 31 544 q 383 754 215 754 q 646 649 553 754 q 739 377 739 544 l 739 364 q 647 92 739 196 q 385 -12 554 -12 m 385 161 q 459 186 431 161 q 500 257 487 211 q 513 364 513 302 q 506 456 513 418 q 481 526 499 494 q 383 579 450 579 q 310 553 338 579 q 269 482 283 528 q 256 377 256 437 l 256 364 q 286 215 256 269 q 385 161 316 161 z "},"ó":{"ha":765,"x_min":31,"x_max":739,"o":"m 457 818 l 267 818 l 418 1019 l 672 1019 l 457 818 m 385 -12 q 123 92 215 -12 q 31 364 31 196 l 31 377 q 123 649 31 544 q 383 754 215 754 q 646 649 553 754 q 739 377 739 544 l 739 364 q 647 92 739 196 q 385 -12 554 -12 m 385 161 q 459 186 431 161 q 500 257 487 211 q 513 364 513 302 q 506 456 513 418 q 481 526 499 494 q 383 579 450 579 q 310 553 338 579 q 269 482 283 528 q 256 377 256 437 l 256 364 q 286 215 256 269 q 385 161 316 161 z "},"ô":{"ha":765,"x_min":31,"x_max":739,"o":"m 651 839 l 484 839 l 388 928 l 294 839 l 131 839 l 131 874 l 326 1042 l 452 1042 l 651 873 l 651 839 m 385 -12 q 123 92 215 -12 q 31 364 31 196 l 31 377 q 123 649 31 544 q 383 754 215 754 q 646 649 553 754 q 739 377 739 544 l 739 364 q 647 92 739 196 q 385 -12 554 -12 m 385 161 q 459 186 431 161 q 500 257 487 211 q 513 364 513 302 q 506 456 513 418 q 481 526 499 494 q 383 579 450 579 q 310 553 338 579 q 269 482 283 528 q 256 377 256 437 l 256 364 q 286 215 256 269 q 385 161 316 161 z "},"õ":{"ha":765,"x_min":31,"x_max":739,"o":"m 666 1083 q 655 1011 666 1045 q 622 951 643 977 q 572 910 601 926 q 508 895 542 895 q 452 905 476 895 q 408 925 428 914 q 365 944 387 935 q 317 953 344 953 q 281 939 296 953 q 265 892 265 924 l 137 898 q 149 968 137 934 q 181 1028 160 1003 q 231 1070 202 1054 q 294 1085 260 1085 q 344 1077 321 1085 q 391 1057 368 1068 q 437 1037 414 1046 q 485 1028 460 1028 q 523 1043 508 1028 q 539 1090 539 1058 l 666 1083 m 385 -12 q 123 92 215 -12 q 31 364 31 196 l 31 377 q 123 649 31 544 q 383 754 215 754 q 646 649 553 754 q 739 377 739 544 l 739 364 q 647 92 739 196 q 385 -12 554 -12 m 385 161 q 459 186 431 161 q 500 257 487 211 q 513 364 513 302 q 506 456 513 418 q 481 526 499 494 q 383 579 450 579 q 310 553 338 579 q 269 482 283 528 q 256 377 256 437 l 256 364 q 286 215 256 269 q 385 161 316 161 z "},"ö":{"ha":765,"x_min":31,"x_max":739,"o":"m 328 844 l 119 844 l 119 1006 l 328 1006 l 328 844 m 658 844 l 449 844 l 449 1006 l 658 1006 l 658 844 m 385 -12 q 123 92 215 -12 q 31 364 31 196 l 31 377 q 123 649 31 544 q 383 754 215 754 q 646 649 553 754 q 739 377 739 544 l 739 364 q 647 92 739 196 q 385 -12 554 -12 m 385 161 q 459 186 431 161 q 500 257 487 211 q 513 364 513 302 q 506 456 513 418 q 481 526 499 494 q 383 579 450 579 q 310 553 338 579 q 269 482 283 528 q 256 377 256 437 l 256 364 q 286 215 256 269 q 385 161 316 161 z "},"÷":{"ha":766,"x_min":26,"x_max":739,"o":"m 496 108 l 269 108 l 269 289 l 496 289 l 496 108 m 739 378 l 26 378 l 26 555 l 739 555 l 739 378 m 496 642 l 269 642 l 269 823 l 496 823 l 496 642 z "},"ø":{"ha":765,"x_min":32,"x_max":740,"o":"m 234 -92 l 92 -92 l 165 56 q 68 176 104 98 q 32 364 32 254 l 32 377 q 124 649 32 544 q 384 754 215 754 q 452 749 421 754 q 498 738 483 743 l 543 828 l 685 828 l 611 679 q 704 558 669 635 q 740 377 740 481 l 740 364 q 647 92 740 196 q 385 -12 555 -12 q 322 -8 351 -12 q 280 0 292 -3 l 234 -92 m 266 263 l 418 575 q 413 576 417 576 q 401 578 409 577 q 384 579 392 579 q 311 553 339 579 q 270 482 283 528 q 257 377 257 437 q 258 330 257 350 q 263 290 259 310 q 266 263 266 269 m 385 161 q 459 186 431 161 q 501 257 488 211 q 514 364 514 302 q 513 406 514 388 q 506 463 513 419 l 359 163 l 362 163 q 385 161 372 161 z "},"ù":{"ha":767,"x_min":58,"x_max":713,"o":"m 513 804 l 320 804 l 111 1006 l 364 1006 l 513 804 m 315 -12 q 124 63 190 -12 q 58 297 58 138 l 58 741 l 283 741 l 283 295 q 305 191 283 219 q 371 163 327 163 q 487 212 451 163 l 487 741 l 713 741 l 713 0 l 513 0 l 504 61 q 438 16 492 44 q 315 -12 385 -12 z "},"ú":{"ha":767,"x_min":58,"x_max":713,"o":"m 456 804 l 266 804 l 417 1006 l 671 1006 l 456 804 m 315 -12 q 124 63 190 -12 q 58 297 58 138 l 58 741 l 283 741 l 283 295 q 305 191 283 219 q 371 163 327 163 q 487 212 451 163 l 487 741 l 713 741 l 713 0 l 513 0 l 504 61 q 438 16 492 44 q 315 -12 385 -12 z "},"û":{"ha":767,"x_min":58,"x_max":713,"o":"m 651 825 l 483 825 l 388 915 l 294 825 l 130 825 l 130 860 l 326 1028 l 451 1028 l 651 859 l 651 825 m 315 -12 q 124 63 190 -12 q 58 297 58 138 l 58 741 l 283 741 l 283 295 q 305 191 283 219 q 371 163 327 163 q 487 212 451 163 l 487 741 l 713 741 l 713 0 l 513 0 l 504 61 q 438 16 492 44 q 315 -12 385 -12 z "},"ü":{"ha":767,"x_min":58,"x_max":713,"o":"m 327 831 l 118 831 l 118 992 l 327 992 l 327 831 m 657 831 l 449 831 l 449 992 l 657 992 l 657 831 m 315 -12 q 124 63 190 -12 q 58 297 58 138 l 58 741 l 283 741 l 283 295 q 305 191 283 219 q 371 163 327 163 q 487 212 451 163 l 487 741 l 713 741 l 713 0 l 513 0 l 504 61 q 438 16 492 44 q 315 -12 385 -12 z "},"ý":{"ha":690,"x_min":-16,"x_max":711,"o":"m 420 804 l 230 804 l 381 1006 l 635 1006 l 420 804 m 160 -288 q 113 -284 135 -288 q 47 -269 90 -280 l 73 -103 l 101 -107 q 124 -110 116 -110 q 186 -95 166 -110 q 221 -37 206 -80 l 241 14 l -16 741 l 226 741 l 345 331 l 468 741 l 711 741 l 415 -97 q 332 -232 388 -176 q 160 -288 276 -288 z "},"þ":{"ha":770,"x_min":65,"x_max":743,"o":"m 290 -275 l 65 -275 l 65 0 l 65 0 l 65 1056 l 290 1056 l 290 696 q 447 754 351 754 q 667 648 592 754 q 726 517 709 590 q 743 351 743 445 q 667 87 743 187 q 448 -12 592 -12 q 290 41 350 -12 l 290 -275 m 398 161 q 517 351 517 161 l 517 365 q 504 476 517 429 q 397 578 478 577 q 290 520 322 578 l 290 213 q 398 161 319 161 z "},"ÿ":{"ha":690,"x_min":-16,"x_max":711,"o":"m 292 831 l 83 831 l 83 992 l 292 992 l 292 831 m 622 831 l 413 831 l 413 992 l 622 992 l 622 831 m 160 -288 q 113 -284 135 -288 q 47 -269 90 -280 l 73 -103 l 101 -107 q 124 -110 116 -110 q 186 -95 166 -110 q 221 -37 206 -80 l 241 14 l -16 741 l 226 741 l 345 331 l 468 741 l 711 741 l 415 -97 q 332 -232 388 -176 q 160 -288 276 -288 z "},"Ā":{"ha":873,"x_min":-10,"x_max":892,"o":"m 542 385 l 441 710 l 339 385 l 542 385 m 892 0 l 663 0 l 597 210 l 284 210 l 219 0 l -10 0 l 329 988 l 552 988 l 892 0 m 704 1072 l 188 1072 l 188 1208 l 704 1208 l 704 1072 z "},"ā":{"ha":728,"x_min":35,"x_max":708,"o":"m 625 853 l 109 853 l 109 988 l 625 988 l 625 853 m 277 -13 q 97 46 159 -13 q 35 215 35 105 q 119 390 35 331 q 367 449 203 449 l 448 449 l 448 508 q 429 572 448 556 q 357 588 410 588 q 292 570 311 588 q 274 502 274 552 l 49 502 q 132 692 49 629 q 369 754 215 754 q 594 696 514 754 q 674 507 674 638 l 674 197 q 681 100 674 142 q 708 0 687 58 l 482 0 q 467 40 472 23 l 463 50 l 464 46 q 398 9 450 32 q 277 -13 347 -13 m 334 156 q 406 168 376 156 q 448 198 435 181 l 448 313 l 367 313 q 285 290 310 313 q 260 221 260 268 q 277 171 260 186 q 334 156 294 156 z "},"Ă":{"ha":873,"x_min":-10,"x_max":892,"o":"m 446 1069 q 318 1093 374 1069 q 231 1166 263 1117 q 200 1289 200 1215 l 369 1289 q 386 1222 369 1242 q 446 1201 403 1201 q 504 1222 487 1201 q 522 1289 522 1242 l 692 1289 q 660 1166 692 1215 q 573 1093 628 1117 q 446 1069 517 1069 m 892 0 l 663 0 l 597 210 l 284 210 l 219 0 l -10 0 l 329 988 l 552 988 l 892 0 m 542 385 l 441 710 l 339 385 l 542 385 z "},"ă":{"ha":728,"x_min":35,"x_max":708,"o":"m 367 848 q 240 872 295 848 q 153 945 184 897 q 122 1068 122 994 l 291 1068 q 308 1001 291 1022 q 367 981 325 981 q 426 1001 408 981 q 443 1068 443 1021 l 613 1068 q 582 945 613 994 q 494 872 550 897 q 367 848 439 848 m 277 -13 q 97 46 159 -13 q 35 215 35 105 q 119 390 35 331 q 367 449 203 449 l 448 449 l 448 508 q 429 572 448 556 q 357 588 410 588 q 292 570 311 588 q 274 502 274 552 l 49 502 q 132 692 49 629 q 369 754 215 754 q 594 696 514 754 q 674 507 674 638 l 674 197 q 681 100 674 142 q 708 0 687 58 l 482 0 q 467 40 472 23 l 463 50 l 464 46 q 398 9 450 32 q 277 -13 347 -13 m 334 156 q 406 168 376 156 q 448 198 435 181 l 448 313 l 367 313 q 285 290 310 313 q 260 221 260 268 q 277 171 260 186 q 334 156 294 156 z "},"Ą":{"ha":873,"x_min":-10,"x_max":892,"o":"m 708 -280 q 624 -263 661 -280 q 564 -212 586 -246 q 542 -130 542 -179 q 572 -37 542 -79 q 651 33 601 4 l 596 210 l 284 210 l 219 0 l -10 0 l 329 988 l 552 988 l 892 0 l 810 0 q 740 -51 761 -27 q 719 -106 719 -76 q 725 -129 719 -122 q 747 -136 731 -136 q 776 -130 760 -136 l 811 -116 l 835 -243 q 775 -271 805 -262 q 708 -280 746 -280 m 542 385 l 441 710 l 339 385 l 542 385 z "},"ą":{"ha":728,"x_min":35,"x_max":710,"o":"m 583 -294 q 463 -255 510 -294 q 417 -144 417 -215 q 497 0 417 -62 l 483 0 q 467 40 472 23 l 464 50 l 465 46 q 399 9 451 32 q 278 -13 347 -13 q 98 46 160 -13 q 35 215 35 105 q 119 390 35 331 q 368 449 203 449 l 449 449 l 449 508 q 430 572 449 556 q 358 588 410 588 q 293 570 312 588 q 274 502 274 552 l 49 502 q 132 692 49 629 q 370 754 215 754 q 594 696 514 754 q 675 507 675 638 l 675 197 q 681 100 675 142 q 709 0 688 58 q 616 -65 638 -42 q 594 -121 594 -88 q 600 -143 594 -137 q 621 -150 607 -150 q 643 -147 634 -150 q 685 -131 651 -144 l 710 -258 q 652 -285 681 -276 q 583 -294 624 -294 m 335 156 q 407 168 377 156 q 449 198 436 181 l 449 313 l 368 313 q 286 290 311 313 q 260 221 260 268 q 277 171 260 186 q 335 156 294 156 z "},"Ć":{"ha":874,"x_min":56,"x_max":851,"o":"m 529 1053 l 339 1053 l 490 1254 l 744 1254 l 529 1053 m 451 -13 q 162 100 268 -13 q 56 398 56 214 l 56 590 q 164 887 56 772 q 451 1001 271 1001 q 730 914 628 1001 q 851 639 832 827 l 625 639 q 577 784 617 741 q 451 826 538 826 q 358 796 395 826 q 301 713 320 766 q 282 591 282 659 l 282 398 q 300 274 282 328 q 356 191 319 221 q 451 160 394 160 q 577 204 538 160 q 624 344 617 248 l 850 344 q 731 74 835 161 q 451 -13 628 -13 z "},"ć":{"ha":701,"x_min":28,"x_max":688,"o":"m 426 818 l 235 818 l 387 1019 l 640 1019 l 426 818 m 375 -12 q 116 91 203 -12 q 28 360 28 195 l 28 380 q 116 649 28 544 q 374 754 203 754 q 602 675 517 754 q 688 450 688 597 l 474 450 q 445 549 474 518 q 371 579 417 579 q 280 527 304 579 q 259 457 265 497 q 253 360 253 417 q 278 212 253 263 q 372 161 303 161 q 445 187 417 161 q 474 272 474 213 l 688 272 q 599 64 688 140 q 375 -12 509 -12 z "},"Ĉ":{"ha":874,"x_min":56,"x_max":851,"o":"m 724 1074 l 556 1074 l 460 1163 l 367 1074 l 203 1074 l 203 1109 l 399 1276 l 524 1276 l 724 1108 l 724 1074 m 451 -13 q 162 100 268 -13 q 56 398 56 214 l 56 590 q 164 887 56 772 q 451 1001 271 1001 q 730 914 628 1001 q 851 639 832 827 l 625 639 q 577 784 617 741 q 451 826 538 826 q 358 796 395 826 q 301 713 320 766 q 282 591 282 659 l 282 398 q 300 274 282 328 q 356 191 319 221 q 451 160 394 160 q 577 204 538 160 q 624 344 617 248 l 850 344 q 731 74 835 161 q 451 -13 628 -13 z "},"ĉ":{"ha":701,"x_min":28,"x_max":688,"o":"m 619 839 l 452 839 l 356 928 l 263 839 l 99 839 l 99 874 l 294 1042 l 420 1042 l 619 873 l 619 839 m 375 -12 q 116 91 203 -12 q 28 360 28 195 l 28 380 q 116 649 28 544 q 374 754 203 754 q 602 675 517 754 q 688 450 688 597 l 474 450 q 445 549 474 518 q 371 579 417 579 q 280 527 304 579 q 259 457 265 497 q 253 360 253 417 q 278 212 253 263 q 372 161 303 161 q 445 187 417 161 q 474 272 474 213 l 688 272 q 599 64 688 140 q 375 -12 509 -12 z "},"Ċ":{"ha":874,"x_min":56,"x_max":851,"o":"m 580 1081 l 347 1081 l 347 1266 l 580 1266 l 580 1081 m 451 -13 q 162 100 268 -13 q 56 398 56 214 l 56 590 q 164 887 56 772 q 451 1001 271 1001 q 730 914 628 1001 q 851 639 832 827 l 625 639 q 577 784 617 741 q 451 826 538 826 q 358 796 395 826 q 301 713 320 766 q 282 591 282 659 l 282 398 q 300 274 282 328 q 356 191 319 221 q 451 160 394 160 q 577 204 538 160 q 624 344 617 248 l 850 344 q 731 74 835 161 q 451 -13 628 -13 z "},"ċ":{"ha":701,"x_min":28,"x_max":688,"o":"m 477 846 l 244 846 l 244 1031 l 477 1031 l 477 846 m 375 -12 q 116 91 203 -12 q 28 360 28 195 l 28 380 q 116 649 28 544 q 374 754 203 754 q 602 675 517 754 q 688 450 688 597 l 474 450 q 445 549 474 518 q 371 579 417 579 q 280 527 304 579 q 259 457 265 497 q 253 360 253 417 q 278 212 253 263 q 372 161 303 161 q 445 187 417 161 q 474 272 474 213 l 688 272 q 599 64 688 140 q 375 -12 509 -12 z "},"Č":{"ha":874,"x_min":56,"x_max":851,"o":"m 533 1079 l 387 1079 l 192 1257 l 192 1286 l 381 1286 l 460 1201 l 539 1286 l 728 1286 l 728 1256 l 533 1079 m 451 -13 q 162 100 268 -13 q 56 398 56 214 l 56 590 q 164 887 56 772 q 451 1001 271 1001 q 730 914 628 1001 q 851 639 832 827 l 625 639 q 577 784 617 741 q 451 826 538 826 q 358 796 395 826 q 301 713 320 766 q 282 591 282 659 l 282 398 q 300 274 282 328 q 356 191 319 221 q 451 160 394 160 q 577 204 538 160 q 624 344 617 248 l 850 344 q 731 74 835 161 q 451 -13 628 -13 z "},"č":{"ha":701,"x_min":28,"x_max":688,"o":"m 429 844 l 283 844 l 89 1022 l 89 1051 l 278 1051 l 356 967 l 435 1051 l 624 1051 l 624 1022 l 429 844 m 375 -12 q 116 91 203 -12 q 28 360 28 195 l 28 380 q 116 649 28 544 q 374 754 203 754 q 602 675 517 754 q 688 450 688 597 l 474 450 q 445 549 474 518 q 371 579 417 579 q 280 527 304 579 q 259 457 265 497 q 253 360 253 417 q 278 212 253 263 q 372 161 303 161 q 445 187 417 161 q 474 272 474 213 l 688 272 q 599 64 688 140 q 375 -12 509 -12 z "},"Ď":{"ha":906,"x_min":81,"x_max":858,"o":"m 473 1065 l 327 1065 l 133 1243 l 133 1272 l 322 1272 l 400 1188 l 479 1272 l 668 1272 l 668 1242 l 473 1065 m 404 0 l 81 0 l 81 988 l 408 988 q 737 869 616 988 q 858 556 858 750 l 858 431 q 737 118 858 235 q 404 0 615 0 m 394 174 q 632 431 632 174 l 632 558 q 398 813 632 813 l 306 813 l 306 174 l 394 174 z "},"ď":{"ha":892,"x_min":31,"x_max":967,"o":"m 858 748 l 739 813 q 782 905 770 864 q 794 997 794 945 l 794 1088 l 967 1088 l 967 1006 q 941 875 967 942 q 858 748 915 807 m 325 -12 q 106 86 182 -12 q 48 208 65 141 q 31 365 31 276 q 107 647 31 540 q 326 754 182 754 q 481 694 419 754 l 481 1056 l 708 1056 l 708 0 l 510 0 l 499 59 q 439 15 488 42 q 325 -12 391 -12 m 375 163 q 481 219 449 163 l 481 517 q 439 561 466 544 q 376 578 413 578 q 308 551 334 578 q 269 476 281 524 q 256 365 256 428 l 256 351 q 372 163 256 164 l 375 163 z "},"Đ":{"ha":924,"x_min":9,"x_max":876,"o":"m 421 0 l 98 0 l 98 431 l 9 431 l 9 577 l 98 577 l 98 988 l 425 988 q 755 869 633 988 q 876 556 876 750 l 876 431 q 754 118 876 235 q 421 0 632 0 m 412 174 q 649 430 649 174 q 649 431 649 431 l 649 558 q 415 813 649 813 l 324 813 l 324 577 l 485 577 l 485 431 l 324 431 l 324 174 l 412 174 z "},"đ":{"ha":783,"x_min":32,"x_max":804,"o":"m 326 -12 q 107 86 183 -12 q 49 208 65 141 q 32 365 32 276 q 107 647 32 540 q 327 754 183 754 q 482 694 420 754 l 482 806 l 328 806 l 328 951 l 482 951 l 482 1056 l 708 1056 l 708 951 l 804 951 l 804 806 l 708 806 l 708 0 l 510 0 l 500 59 q 440 15 488 42 q 326 -12 392 -12 m 376 163 q 482 219 449 163 l 482 517 q 440 561 467 544 q 377 578 413 578 q 308 551 335 578 q 269 476 282 524 q 257 365 257 428 l 257 351 q 373 163 257 164 l 376 163 z "},"Ē":{"ha":782,"x_min":81,"x_max":772,"o":"m 772 0 l 81 0 l 81 988 l 771 988 l 771 813 l 306 813 l 306 597 l 705 597 l 705 423 l 306 423 l 306 174 l 772 174 l 772 0 m 668 1072 l 152 1072 l 152 1208 l 668 1208 l 668 1072 z "},"ē":{"ha":717,"x_min":38,"x_max":697,"o":"m 626 853 l 110 853 l 110 988 l 626 988 l 626 853 m 394 -12 q 134 90 229 -12 q 38 350 38 192 l 38 376 q 128 648 38 542 q 374 754 217 754 l 377 754 q 615 664 533 754 q 697 418 697 574 l 697 300 l 267 300 q 311 202 274 242 q 414 161 349 161 q 516 173 477 161 q 623 222 554 185 l 674 69 q 551 8 621 29 q 394 -12 482 -12 m 476 453 q 454 545 476 511 q 377 579 432 579 q 323 562 345 579 q 287 516 300 544 q 270 453 274 488 l 476 453 z "},"Ĕ":{"ha":782,"x_min":81,"x_max":772,"o":"m 409 1069 q 281 1093 337 1069 q 194 1166 226 1117 q 163 1289 163 1215 l 333 1289 q 350 1222 333 1242 q 409 1201 367 1201 q 467 1222 450 1201 q 485 1289 485 1242 l 655 1289 q 623 1166 655 1215 q 536 1093 592 1117 q 409 1069 481 1069 m 772 0 l 81 0 l 81 988 l 771 988 l 771 813 l 306 813 l 306 597 l 705 597 l 705 423 l 306 423 l 306 174 l 772 174 l 772 0 z "},"ĕ":{"ha":717,"x_min":38,"x_max":697,"o":"m 369 849 q 241 873 297 849 q 154 946 185 897 q 123 1069 123 994 l 292 1069 q 309 1002 292 1022 q 369 981 326 981 q 427 1001 410 981 q 444 1069 444 1022 l 615 1069 q 583 946 615 994 q 496 873 551 897 q 369 849 440 849 m 394 -12 q 134 90 229 -12 q 38 350 38 192 l 38 376 q 128 648 38 542 q 374 754 217 754 l 377 754 q 615 664 533 754 q 697 418 697 574 l 697 300 l 267 300 q 311 202 274 242 q 414 161 349 161 q 516 173 477 161 q 623 222 554 185 l 674 69 q 551 8 621 29 q 394 -12 482 -12 m 476 453 q 454 545 476 511 q 377 579 432 579 q 323 562 345 579 q 287 516 300 544 q 270 453 274 488 l 476 453 z "},"Ė":{"ha":782,"x_min":81,"x_max":772,"o":"m 772 0 l 81 0 l 81 988 l 771 988 l 771 813 l 306 813 l 306 597 l 705 597 l 705 423 l 306 423 l 306 174 l 772 174 l 772 0 m 528 1066 l 295 1066 l 295 1251 l 528 1251 l 528 1066 z "},"ė":{"ha":717,"x_min":38,"x_max":697,"o":"m 487 847 l 253 847 l 253 1031 l 487 1031 l 487 847 m 394 -12 q 134 90 229 -12 q 38 350 38 192 l 38 376 q 128 648 38 542 q 374 754 217 754 l 377 754 q 615 664 533 754 q 697 418 697 574 l 697 300 l 267 300 q 311 202 274 242 q 414 161 349 161 q 516 173 477 161 q 623 222 554 185 l 674 69 q 551 8 621 29 q 394 -12 482 -12 m 476 453 q 454 545 476 511 q 377 579 432 579 q 323 562 345 579 q 287 516 300 544 q 270 453 274 488 l 476 453 z "},"Ę":{"ha":782,"x_min":81,"x_max":772,"o":"m 613 -280 q 527 -263 565 -280 q 468 -212 490 -246 q 446 -130 446 -179 q 463 -58 446 -90 q 509 0 480 -25 l 81 0 l 81 988 l 771 988 l 771 813 l 306 813 l 306 597 l 705 597 l 705 423 l 306 423 l 306 174 l 772 174 l 772 0 l 713 0 q 644 -51 665 -27 q 623 -106 623 -76 q 629 -129 623 -122 q 649 -136 635 -136 q 680 -130 664 -136 l 715 -116 l 740 -243 q 680 -271 709 -262 q 613 -280 650 -280 z "},"ę":{"ha":717,"x_min":39,"x_max":698,"o":"m 458 -272 q 338 -232 384 -272 q 291 -122 291 -192 q 307 -52 291 -85 q 333 -10 322 -19 q 125 98 212 -2 q 39 350 39 198 l 39 376 q 128 648 39 542 q 375 754 218 754 l 378 754 q 616 664 534 754 q 698 418 698 574 l 698 300 l 268 300 q 312 202 274 242 q 415 161 350 161 q 516 173 478 161 q 624 222 555 185 l 674 69 q 618 34 646 48 q 594 22 597 24 l 587 26 q 490 -42 512 -17 q 468 -97 468 -66 q 474 -120 468 -113 q 495 -127 480 -127 q 517 -124 508 -127 q 559 -107 526 -122 l 585 -235 q 526 -262 555 -253 q 458 -272 498 -272 m 476 453 q 455 545 476 511 q 378 579 433 579 q 323 562 346 579 q 288 516 301 544 q 271 453 274 488 l 476 453 z "},"Ě":{"ha":782,"x_min":81,"x_max":772,"o":"m 772 0 l 81 0 l 81 988 l 771 988 l 771 813 l 306 813 l 306 597 l 705 597 l 705 423 l 306 423 l 306 174 l 772 174 l 772 0 m 481 1065 l 335 1065 l 140 1243 l 140 1272 l 329 1272 l 408 1188 l 487 1272 l 676 1272 l 676 1242 l 481 1065 z "},"ě":{"ha":717,"x_min":38,"x_max":697,"o":"m 440 845 l 294 845 l 99 1023 l 99 1052 l 288 1052 l 367 967 l 446 1052 l 635 1052 l 635 1022 l 440 845 m 394 -12 q 134 90 229 -12 q 38 350 38 192 l 38 376 q 128 648 38 542 q 374 754 217 754 l 377 754 q 615 664 533 754 q 697 418 697 574 l 697 300 l 267 300 q 311 202 274 242 q 414 161 349 161 q 516 173 477 161 q 623 222 554 185 l 674 69 q 551 8 621 29 q 394 -12 482 -12 m 476 453 q 454 545 476 511 q 377 579 432 579 q 323 562 345 579 q 287 516 300 544 q 270 453 274 488 l 476 453 z "},"Ĝ":{"ha":909,"x_min":56,"x_max":853,"o":"m 720 1074 l 553 1074 l 457 1163 l 363 1074 l 199 1074 l 199 1109 l 395 1276 l 521 1276 l 720 1108 l 720 1074 m 472 -13 q 170 99 285 -13 q 56 393 56 211 l 56 594 q 166 889 56 776 q 456 1001 276 1001 q 738 915 644 1001 q 853 661 833 828 l 633 661 q 579 789 619 752 q 462 826 538 826 q 331 765 381 826 q 281 596 281 703 l 281 393 q 332 224 281 288 q 472 160 382 160 q 626 200 583 160 l 626 357 l 456 357 l 456 517 l 851 517 l 851 133 q 711 30 803 72 q 472 -13 619 -13 z "},"ĝ":{"ha":714,"x_min":-18,"x_max":715,"o":"m 637 839 l 469 839 l 374 928 l 280 839 l 116 839 l 116 874 l 312 1042 l 438 1042 l 637 873 l 637 839 m 715 613 l 644 613 q 661 569 651 602 q 672 499 672 536 l 672 483 q 583 301 672 373 q 347 228 494 228 q 295 231 320 228 q 258 236 270 233 q 253 228 257 236 q 250 210 250 220 q 266 181 250 189 q 318 174 282 174 l 439 174 q 640 119 569 174 q 711 -37 711 65 q 606 -211 711 -134 q 327 -289 501 -289 q 73 -233 165 -289 q -18 -93 -18 -178 q 19 13 -18 -31 q 101 76 57 56 q 87 103 95 82 q 78 153 78 125 q 101 231 78 198 q 144 277 124 263 q 55 358 93 302 q 17 483 17 414 l 17 499 q 107 684 17 615 q 344 754 196 754 q 405 751 376 754 q 459 741 434 748 l 713 741 l 715 613 m 242 483 q 270 419 242 444 q 347 394 298 394 q 421 419 394 394 q 448 483 448 445 l 448 499 q 420 564 448 540 q 344 588 393 588 q 269 564 297 588 q 242 499 242 539 l 242 483 m 282 8 q 249 9 265 8 q 225 11 233 10 q 205 -10 215 6 q 196 -50 196 -27 q 228 -103 196 -82 q 327 -124 260 -124 q 448 -99 408 -124 q 487 -47 487 -75 q 470 -6 487 -20 q 410 8 454 8 l 282 8 z "},"Ğ":{"ha":909,"x_min":56,"x_max":853,"o":"m 458 1083 q 331 1107 386 1083 q 244 1180 275 1131 q 213 1303 213 1228 l 382 1303 q 399 1236 382 1256 q 458 1215 416 1215 q 517 1235 499 1215 q 534 1303 534 1256 l 704 1303 q 673 1180 704 1228 q 585 1107 641 1131 q 458 1083 530 1083 m 472 -13 q 170 99 285 -13 q 56 393 56 211 l 56 594 q 166 889 56 776 q 456 1001 276 1001 q 738 915 644 1001 q 853 661 833 828 l 633 661 q 579 789 619 752 q 462 826 538 826 q 331 765 381 826 q 281 596 281 703 l 281 393 q 332 224 281 288 q 472 160 382 160 q 626 200 583 160 l 626 357 l 456 357 l 456 517 l 851 517 l 851 133 q 711 30 803 72 q 472 -13 619 -13 z "},"ğ":{"ha":714,"x_min":-18,"x_max":715,"o":"m 376 848 q 248 872 303 848 q 161 945 192 897 q 130 1068 130 994 l 299 1068 q 316 1001 299 1022 q 376 981 333 981 q 434 1001 417 981 q 451 1068 451 1021 l 622 1068 q 590 945 622 994 q 503 872 558 897 q 376 848 447 848 m 715 613 l 644 613 q 661 569 651 602 q 672 499 672 536 l 672 483 q 583 301 672 373 q 347 228 494 228 q 295 231 320 228 q 258 236 270 233 q 253 228 257 236 q 250 210 250 220 q 266 181 250 189 q 318 174 282 174 l 439 174 q 640 119 569 174 q 711 -37 711 65 q 606 -211 711 -134 q 327 -289 501 -289 q 73 -233 165 -289 q -18 -93 -18 -178 q 19 13 -18 -31 q 101 76 57 56 q 87 103 95 82 q 78 153 78 125 q 101 231 78 198 q 144 277 124 263 q 55 358 93 302 q 17 483 17 414 l 17 499 q 107 684 17 615 q 344 754 196 754 q 405 751 376 754 q 459 741 434 748 l 713 741 l 715 613 m 242 483 q 270 419 242 444 q 347 394 298 394 q 421 419 394 394 q 448 483 448 445 l 448 499 q 420 564 448 540 q 344 588 393 588 q 269 564 297 588 q 242 499 242 539 l 242 483 m 282 8 q 249 9 265 8 q 225 11 233 10 q 205 -10 215 6 q 196 -50 196 -27 q 228 -103 196 -82 q 327 -124 260 -124 q 448 -99 408 -124 q 487 -47 487 -75 q 470 -6 487 -20 q 410 8 454 8 l 282 8 z "},"Ġ":{"ha":909,"x_min":56,"x_max":853,"o":"m 576 1081 l 343 1081 l 343 1266 l 576 1266 l 576 1081 m 472 -13 q 170 99 285 -13 q 56 393 56 211 l 56 594 q 166 889 56 776 q 456 1001 276 1001 q 738 915 644 1001 q 853 661 833 828 l 633 661 q 579 789 619 752 q 462 826 538 826 q 331 765 381 826 q 281 596 281 703 l 281 393 q 332 224 281 288 q 472 160 382 160 q 626 200 583 160 l 626 357 l 456 357 l 456 517 l 851 517 l 851 133 q 711 30 803 72 q 472 -13 619 -13 z "},"ġ":{"ha":714,"x_min":-18,"x_max":715,"o":"m 494 846 l 260 846 l 260 1031 l 494 1031 l 494 846 m 715 613 l 644 613 q 661 569 651 602 q 672 499 672 536 l 672 483 q 583 301 672 373 q 347 228 494 228 q 295 231 320 228 q 258 236 270 233 q 253 228 257 236 q 250 210 250 220 q 266 181 250 189 q 318 174 282 174 l 439 174 q 640 119 569 174 q 711 -37 711 65 q 606 -211 711 -134 q 327 -289 501 -289 q 73 -233 165 -289 q -18 -93 -18 -178 q 19 13 -18 -31 q 101 76 57 56 q 87 103 95 82 q 78 153 78 125 q 101 231 78 198 q 144 277 124 263 q 55 358 93 302 q 17 483 17 414 l 17 499 q 107 684 17 615 q 344 754 196 754 q 405 751 376 754 q 459 741 434 748 l 713 741 l 715 613 m 242 483 q 270 419 242 444 q 347 394 298 394 q 421 419 394 394 q 448 483 448 445 l 448 499 q 420 564 448 540 q 344 588 393 588 q 269 564 297 588 q 242 499 242 539 l 242 483 m 282 8 q 249 9 265 8 q 225 11 233 10 q 205 -10 215 6 q 196 -50 196 -27 q 228 -103 196 -82 q 327 -124 260 -124 q 448 -99 408 -124 q 487 -47 487 -75 q 470 -6 487 -20 q 410 8 454 8 l 282 8 z "},"Ģ":{"ha":909,"x_min":56,"x_max":853,"o":"m 472 -13 q 170 99 285 -13 q 56 393 56 211 l 56 594 q 166 889 56 776 q 456 1001 276 1001 q 738 915 644 1001 q 853 661 833 828 l 633 661 q 579 789 619 752 q 462 826 538 826 q 331 765 381 826 q 281 596 281 703 l 281 393 q 332 224 281 288 q 472 160 382 160 q 626 200 583 160 l 626 357 l 456 357 l 456 517 l 851 517 l 851 133 q 711 30 803 72 q 472 -13 619 -13 m 451 -369 l 332 -303 q 375 -212 363 -253 q 388 -120 388 -172 l 388 -29 l 560 -29 l 560 -111 q 534 -242 560 -174 q 451 -369 508 -310 z "},"ģ":{"ha":714,"x_min":-18,"x_max":715,"o":"m 472 835 l 282 835 l 282 965 l 362 1147 l 497 1147 l 472 955 l 472 835 m 715 613 l 644 613 q 661 569 651 602 q 672 499 672 536 l 672 483 q 583 301 672 373 q 347 228 494 228 q 295 231 320 228 q 258 236 270 233 q 253 228 257 236 q 250 210 250 220 q 266 181 250 189 q 318 174 282 174 l 439 174 q 640 119 569 174 q 711 -37 711 65 q 606 -211 711 -134 q 327 -289 501 -289 q 73 -233 165 -289 q -18 -93 -18 -178 q 19 13 -18 -31 q 101 76 57 56 q 87 103 95 82 q 78 153 78 125 q 101 231 78 198 q 144 277 124 263 q 55 358 93 302 q 17 483 17 414 l 17 499 q 107 684 17 615 q 344 754 196 754 q 405 751 376 754 q 459 741 434 748 l 713 741 l 715 613 m 242 483 q 270 419 242 444 q 347 394 298 394 q 421 419 394 394 q 448 483 448 445 l 448 499 q 420 564 448 540 q 344 588 393 588 q 269 564 297 588 q 242 499 242 539 l 242 483 m 282 8 q 249 9 265 8 q 225 11 233 10 q 205 -10 215 6 q 196 -50 196 -27 q 228 -103 196 -82 q 327 -124 260 -124 q 448 -99 408 -124 q 487 -47 487 -75 q 470 -6 487 -20 q 410 8 454 8 l 282 8 z "},"Ĥ":{"ha":963,"x_min":81,"x_max":891,"o":"m 891 0 l 666 0 l 666 399 l 306 399 l 306 0 l 81 0 l 81 988 l 306 988 l 306 575 l 666 575 l 666 988 l 891 988 l 891 0 m 752 1059 l 585 1059 l 489 1149 l 395 1059 l 231 1059 l 231 1094 l 427 1262 l 553 1262 l 752 1093 l 752 1059 z "},"ĥ":{"ha":767,"x_min":58,"x_max":713,"o":"m 616 1095 l 449 1095 l 353 1185 l 259 1095 l 95 1095 l 95 1131 l 291 1298 l 417 1298 l 616 1129 l 616 1095 m 713 0 l 487 0 l 487 439 q 463 549 487 519 q 387 578 438 578 q 283 534 317 578 l 283 0 l 58 0 l 58 1056 l 283 1056 l 283 683 q 358 734 314 714 q 458 754 402 754 q 647 677 581 754 q 713 438 713 599 l 713 0 z "},"Ħ":{"ha":954,"x_min":-1,"x_max":971,"o":"m 663 575 l 663 678 l 303 678 l 303 575 l 663 575 m 888 0 l 663 0 l 663 399 l 303 399 l 303 0 l 77 0 l 77 678 l -1 678 l -1 818 l 77 818 l 77 988 l 303 988 l 303 818 l 663 818 l 663 988 l 888 988 l 888 818 l 971 818 l 971 678 l 888 678 l 888 0 z "},"ħ":{"ha":784,"x_min":-17,"x_max":731,"o":"m 731 0 l 505 0 l 505 439 q 480 549 505 519 q 405 578 456 578 q 301 534 335 578 l 301 0 l 75 0 l 75 804 l -17 804 l -17 949 l 75 949 l 75 1056 l 301 1056 l 301 949 l 458 949 l 458 804 l 301 804 l 301 683 q 375 734 331 714 q 475 754 419 754 q 665 677 599 754 q 731 438 731 599 l 731 0 z "},"Ĩ":{"ha":408,"x_min":-51,"x_max":478,"o":"m 478 1303 q 467 1231 478 1265 q 434 1172 456 1197 q 384 1131 413 1146 q 321 1115 355 1115 q 265 1125 289 1115 q 220 1145 241 1134 q 178 1165 199 1156 q 130 1174 156 1174 q 93 1159 108 1174 q 78 1112 78 1144 l -51 1118 q -39 1189 -51 1154 q -6 1249 -27 1223 q 43 1290 15 1274 q 107 1306 72 1306 q 157 1297 133 1306 q 203 1277 181 1288 q 249 1257 226 1266 q 298 1249 272 1249 q 336 1264 320 1249 q 351 1310 351 1278 l 478 1303 m 319 0 l 93 0 l 93 988 l 319 988 l 319 0 z "},"ĩ":{"ha":379,"x_min":-66,"x_max":463,"o":"m 463 1068 q 452 997 463 1031 q 419 937 440 963 q 369 896 398 911 q 306 881 340 881 q 250 890 274 881 q 205 910 226 899 q 163 930 184 921 q 115 939 141 939 q 78 924 93 939 q 63 877 63 909 l -66 883 q -54 954 -66 919 q -22 1014 -42 988 q 28 1055 -1 1040 q 92 1071 57 1071 q 142 1062 118 1071 q 188 1042 165 1053 q 234 1023 211 1031 q 283 1014 257 1014 q 320 1029 305 1014 q 336 1076 336 1044 l 463 1068 m 302 0 l 76 0 l 76 741 l 302 741 l 302 0 z "},"Ī":{"ha":408,"x_min":-56,"x_max":460,"o":"m 319 0 l 93 0 l 93 988 l 319 988 l 319 0 m 460 1072 l -56 1072 l -56 1208 l 460 1208 l 460 1072 z "},"ī":{"ha":379,"x_min":-71,"x_max":445,"o":"m 302 0 l 76 0 l 76 741 l 302 741 l 302 0 m 445 838 l -71 838 l -71 974 l 445 974 l 445 838 z "},"Ĭ":{"ha":408,"x_min":-43,"x_max":449,"o":"m 203 1069 q 75 1093 131 1069 q -12 1166 19 1117 q -43 1289 -43 1215 l 126 1289 q 143 1222 126 1242 q 203 1201 160 1201 q 261 1222 244 1201 q 278 1289 278 1242 l 449 1289 q 417 1166 449 1215 q 330 1093 385 1117 q 203 1069 274 1069 m 319 0 l 93 0 l 93 988 l 319 988 l 319 0 z "},"ĭ":{"ha":379,"x_min":-59,"x_max":433,"o":"m 187 834 q 59 858 115 834 q -28 931 3 883 q -59 1054 -59 980 l 110 1054 q 127 987 110 1008 q 187 967 144 967 q 245 987 228 967 q 263 1054 263 1007 l 433 1054 q 401 931 433 980 q 314 858 369 883 q 187 834 258 834 m 302 0 l 76 0 l 76 741 l 302 741 l 302 0 z "},"Į":{"ha":408,"x_min":5,"x_max":319,"o":"m 319 0 l 260 0 q 205 -42 221 -25 q 181 -99 181 -67 q 188 -122 181 -115 q 209 -129 194 -129 q 238 -123 223 -129 l 274 -109 l 298 -236 q 238 -264 267 -255 q 171 -273 208 -273 q 85 -256 123 -273 q 26 -206 48 -239 q 5 -123 5 -172 q 93 26 5 -38 l 93 988 l 319 988 l 319 0 z "},"į":{"ha":369,"x_min":-19,"x_max":299,"o":"m 299 885 l 73 885 l 73 1056 l 299 1056 l 299 885 m 299 0 l 248 0 q 181 -49 199 -29 q 158 -106 158 -74 q 164 -129 158 -122 q 185 -136 170 -136 q 215 -130 199 -136 l 250 -116 l 274 -243 q 214 -271 244 -262 q 147 -280 185 -280 q 62 -263 99 -280 q 3 -212 24 -246 q -19 -130 -19 -179 q 73 22 -19 -44 l 73 741 l 299 741 l 299 0 z "},"İ":{"ha":408,"x_min":88,"x_max":321,"o":"m 319 0 l 93 0 l 93 988 l 319 988 l 319 0 m 321 1066 l 88 1066 l 88 1251 l 321 1251 l 321 1066 z "},"ı":{"ha":379,"x_min":77,"x_max":303,"o":"m 303 0 l 77 0 l 77 741 l 303 741 l 303 0 z "},"Ĳ":{"ha":1210,"x_min":93,"x_max":1117,"o":"m 319 0 l 93 0 l 93 988 l 319 988 l 319 0 m 781 -13 q 530 63 622 -13 q 438 306 438 140 l 663 306 q 692 189 663 218 q 781 160 720 160 q 863 194 833 160 q 892 302 892 228 l 892 988 l 1117 988 l 1117 302 q 1024 71 1117 156 q 781 -13 931 -13 z "},"ĳ":{"ha":746,"x_min":73,"x_max":672,"o":"m 299 885 l 73 885 l 73 1056 l 299 1056 l 299 885 m 669 887 l 442 887 l 442 1056 l 669 1056 l 669 887 m 299 0 l 73 0 l 73 741 l 299 741 l 299 0 m 403 -288 q 351 -285 374 -288 q 292 -274 328 -283 l 303 -99 q 350 -109 335 -107 q 381 -111 365 -111 q 429 -88 413 -111 q 446 -12 446 -65 l 446 741 l 672 741 l 672 -12 q 601 -218 672 -149 q 403 -288 530 -288 z "},"Ĵ":{"ha":777,"x_min":26,"x_max":856,"o":"m 856 1056 l 688 1056 l 592 1146 l 499 1056 l 335 1056 l 335 1092 l 531 1259 l 656 1259 l 856 1090 l 856 1056 m 370 -13 q 118 63 210 -13 q 26 306 26 140 l 252 306 q 281 189 252 218 q 370 160 309 160 q 452 194 422 160 q 481 302 481 228 l 481 988 l 706 988 l 706 302 q 613 71 706 156 q 370 -13 519 -13 z "},"ĵ":{"ha":385,"x_min":-76,"x_max":444,"o":"m 444 819 l 277 819 l 181 909 l 88 819 l -76 819 l -76 855 l 119 1022 l 245 1022 l 444 853 l 444 819 m 40 -288 q -13 -285 10 -288 q -72 -274 -37 -283 l -61 -100 q -12 -111 -28 -108 q 19 -113 3 -113 q 83 -12 83 -113 l 83 741 l 308 741 l 308 -12 q 237 -218 308 -147 q 40 -288 167 -288 z "},"Ķ":{"ha":876,"x_min":81,"x_max":918,"o":"m 918 0 l 633 0 l 376 385 l 306 303 l 306 0 l 81 0 l 81 988 l 306 988 l 306 602 l 610 988 l 886 988 l 531 564 l 918 0 m 421 -360 l 301 -295 q 345 -204 333 -244 q 357 -112 357 -163 l 357 -21 l 529 -21 l 529 -103 q 503 -234 529 -166 q 421 -360 477 -301 z "},"ķ":{"ha":725,"x_min":63,"x_max":770,"o":"m 770 0 l 513 0 l 334 278 l 289 228 l 289 0 l 63 0 l 63 1056 l 289 1056 l 289 510 q 483 741 296 519 l 747 741 l 481 440 l 770 0 m 365 -360 l 245 -294 q 289 -203 276 -244 q 301 -111 301 -162 l 301 -20 l 473 -20 l 473 -102 q 447 -233 473 -165 q 365 -360 421 -301 z "},"ĸ":{"ha":801,"x_min":75,"x_max":808,"o":"m 808 0 l 523 0 l 351 268 l 301 268 l 301 0 l 75 0 l 75 741 l 301 741 l 301 469 l 331 469 l 516 741 l 797 741 l 534 393 l 808 0 z "},"Ĺ":{"ha":746,"x_min":67,"x_max":735,"o":"m 735 0 l 81 0 l 81 988 l 307 988 l 307 174 l 735 174 l 735 0 m 258 1023 l 67 1023 l 219 1224 l 472 1224 l 258 1023 z "},"ĺ":{"ha":449,"x_min":59,"x_max":464,"o":"m 249 1082 l 59 1082 l 210 1283 l 464 1283 l 249 1082 m 303 -15 q 73 211 81 -15 l 73 1056 l 299 1056 l 299 224 q 309 173 299 185 q 342 161 319 161 q 368 163 358 161 q 420 178 378 165 l 444 14 q 373 -9 403 -3 q 303 -15 343 -15 z "},"Ļ":{"ha":746,"x_min":81,"x_max":735,"o":"m 735 0 l 81 0 l 81 988 l 307 988 l 307 174 l 735 174 l 735 0 m 394 -360 l 275 -294 q 318 -203 306 -244 q 331 -111 331 -162 l 331 -20 l 503 -20 l 503 -102 q 477 -233 503 -165 q 394 -360 451 -301 z "},"ļ":{"ha":449,"x_min":44,"x_max":444,"o":"m 303 -15 q 73 211 81 -15 l 73 1056 l 299 1056 l 299 224 q 309 173 299 185 q 342 161 319 161 q 368 163 358 161 q 420 178 378 165 l 444 14 q 373 -9 403 -3 q 303 -15 343 -15 m 164 -360 l 44 -294 q 88 -203 76 -244 q 100 -111 100 -162 l 100 -20 l 272 -20 l 272 -102 q 246 -233 272 -165 q 164 -360 220 -301 z "},"Ľ":{"ha":746,"x_min":81,"x_max":735,"o":"m 517 678 l 397 744 q 441 835 428 794 q 453 927 453 876 l 453 1018 l 625 1018 l 625 936 q 599 805 625 873 q 517 678 573 738 m 735 0 l 81 0 l 81 988 l 307 988 l 307 174 l 735 174 l 735 0 z "},"ľ":{"ha":479,"x_min":73,"x_max":551,"o":"m 442 748 l 323 813 q 366 905 354 864 q 378 997 378 945 l 378 1088 l 551 1088 l 551 1006 q 525 875 551 942 q 442 748 499 807 m 303 -15 q 73 211 81 -15 l 73 1056 l 299 1056 l 299 224 q 309 173 299 185 q 342 161 319 161 q 368 163 358 161 q 420 178 378 165 l 444 14 q 373 -9 403 -3 q 303 -15 343 -15 z "},"Ŀ":{"ha":746,"x_min":81,"x_max":735,"o":"m 735 0 l 81 0 l 81 988 l 307 988 l 307 174 l 735 174 l 735 0 m 617 436 l 383 436 l 383 621 l 617 621 l 617 436 z "},"ŀ":{"ha":527,"x_min":73,"x_max":572,"o":"m 303 -15 q 73 211 81 -15 l 73 1056 l 299 1056 l 299 224 q 309 173 299 185 q 342 161 319 161 q 368 163 358 161 q 420 178 378 165 l 444 14 q 373 -9 403 -3 q 303 -15 343 -15 m 572 401 l 338 401 l 338 585 l 572 585 l 572 401 z "},"Ł":{"ha":688,"x_min":-4,"x_max":723,"o":"m 723 0 l 70 0 l 70 393 l -4 372 l -4 529 l 70 550 l 70 988 l 297 988 l 297 615 l 458 662 l 458 506 l 297 458 l 297 174 l 723 174 l 723 0 z "},"ł":{"ha":459,"x_min":-3,"x_max":456,"o":"m 315 -15 q 85 211 94 -15 l 85 400 l -3 371 l -3 528 l 85 558 l 85 1056 l 310 1056 l 310 632 l 403 663 l 403 506 l 310 475 l 310 224 q 321 173 310 185 q 354 161 331 161 q 381 163 372 161 q 433 178 390 165 l 456 14 q 385 -9 415 -3 q 315 -15 355 -15 z "},"Ń":{"ha":963,"x_min":81,"x_max":891,"o":"m 891 0 l 672 0 l 306 618 l 306 0 l 81 0 l 81 988 l 301 988 l 666 370 l 666 988 l 891 988 l 891 0 m 559 1039 l 369 1039 l 520 1240 l 774 1240 l 559 1039 z "},"ń":{"ha":766,"x_min":59,"x_max":714,"o":"m 457 818 l 267 818 l 418 1019 l 672 1019 l 457 818 m 714 0 l 488 0 l 488 459 q 465 551 488 524 q 388 578 442 578 q 285 528 319 578 l 285 0 l 59 0 l 59 741 l 271 741 l 277 670 q 359 731 310 708 q 468 754 408 754 q 714 460 714 754 l 714 0 z "},"Ņ":{"ha":963,"x_min":81,"x_max":891,"o":"m 891 0 l 672 0 l 306 618 l 306 0 l 81 0 l 81 988 l 301 988 l 666 370 l 666 988 l 891 988 l 891 0 m 474 -360 l 354 -294 q 398 -203 385 -244 q 410 -111 410 -162 l 410 -20 l 582 -20 l 582 -102 q 556 -233 582 -165 q 474 -360 530 -301 z "},"ņ":{"ha":766,"x_min":59,"x_max":714,"o":"m 714 0 l 488 0 l 488 459 q 465 551 488 524 q 388 578 442 578 q 285 528 319 578 l 285 0 l 59 0 l 59 741 l 271 741 l 277 670 q 359 731 310 708 q 468 754 408 754 q 714 460 714 754 l 714 0 m 372 -360 l 253 -294 q 296 -203 284 -244 q 308 -111 308 -162 l 308 -20 l 481 -20 l 481 -102 q 455 -233 481 -165 q 372 -360 428 -301 z "},"Ň":{"ha":963,"x_min":81,"x_max":891,"o":"m 891 0 l 672 0 l 306 618 l 306 0 l 81 0 l 81 988 l 301 988 l 666 370 l 666 988 l 891 988 l 891 0 m 563 1065 l 417 1065 l 222 1243 l 222 1272 l 411 1272 l 490 1188 l 569 1272 l 758 1272 l 758 1242 l 563 1065 z "},"ň":{"ha":766,"x_min":59,"x_max":714,"o":"m 461 844 l 315 844 l 121 1022 l 121 1051 l 310 1051 l 388 967 l 467 1051 l 656 1051 l 656 1022 l 461 844 m 714 0 l 488 0 l 488 459 q 465 551 488 524 q 388 578 442 578 q 285 528 319 578 l 285 0 l 59 0 l 59 741 l 271 741 l 277 670 q 359 731 310 708 q 468 754 408 754 q 714 460 714 754 l 714 0 z "},"ŉ":{"ha":766,"x_min":-44,"x_max":714,"o":"m 76 748 l -44 813 q 0 905 -12 864 q 12 997 12 945 l 12 1088 l 184 1088 l 184 1006 q 158 875 184 942 q 76 748 132 807 m 714 0 l 488 0 l 488 459 q 465 551 488 524 q 388 578 442 578 q 285 528 319 578 l 285 0 l 59 0 l 59 741 l 271 741 l 277 670 q 359 731 310 708 q 468 754 408 754 q 714 460 714 754 l 714 0 z "},"Ŋ":{"ha":955,"x_min":78,"x_max":888,"o":"m 619 -288 q 566 -285 590 -288 q 506 -274 542 -283 l 518 -100 q 566 -111 550 -108 q 599 -113 583 -113 q 663 -12 663 -113 l 663 10 l 303 610 l 303 0 l 78 0 l 78 988 l 298 988 l 663 378 l 663 988 l 888 988 l 888 -12 q 817 -218 888 -147 q 619 -288 747 -288 z "},"ŋ":{"ha":767,"x_min":60,"x_max":714,"o":"m 445 -288 q 392 -285 416 -288 q 333 -274 369 -283 l 344 -98 q 391 -108 374 -106 q 425 -110 408 -110 q 487 -15 487 -110 q 487 -12 487 -14 l 487 450 q 465 551 487 524 q 397 578 443 578 q 285 529 323 578 l 285 0 l 60 0 l 60 741 l 272 741 l 278 672 q 358 731 310 708 q 467 754 406 754 q 714 451 714 754 l 714 -12 q 643 -218 714 -149 q 445 -288 572 -288 z "},"Ō":{"ha":938,"x_min":56,"x_max":892,"o":"m 738 1087 l 222 1087 l 222 1222 l 738 1222 l 738 1087 m 472 -13 q 170 106 283 -13 q 56 407 56 224 l 56 581 q 169 883 56 764 q 472 1001 283 1001 q 776 882 661 1001 q 892 581 892 763 l 892 407 q 776 106 892 224 q 472 -13 661 -13 m 472 163 q 578 194 535 163 q 644 281 622 226 q 666 407 666 336 l 666 582 q 643 707 666 653 q 578 792 621 761 q 472 824 535 824 q 366 793 408 824 q 302 707 324 762 q 281 582 281 652 l 281 407 q 303 281 281 336 q 366 194 324 226 q 472 163 408 163 z "},"ō":{"ha":765,"x_min":31,"x_max":739,"o":"m 648 853 l 132 853 l 132 988 l 648 988 l 648 853 m 385 -12 q 123 92 215 -12 q 31 364 31 196 l 31 377 q 123 649 31 544 q 383 754 215 754 q 646 649 553 754 q 739 377 739 544 l 739 364 q 647 92 739 196 q 385 -12 554 -12 m 385 161 q 459 186 431 161 q 500 257 487 211 q 513 364 513 302 q 506 456 513 418 q 481 526 499 494 q 383 579 450 579 q 310 553 338 579 q 269 482 283 528 q 256 377 256 437 l 256 364 q 286 215 256 269 q 385 161 316 161 z "},"Ŏ":{"ha":938,"x_min":56,"x_max":892,"o":"m 480 1083 q 352 1107 408 1083 q 265 1180 297 1131 q 234 1303 234 1228 l 403 1303 q 420 1236 403 1256 q 480 1215 438 1215 q 538 1235 521 1215 q 556 1303 556 1256 l 726 1303 q 694 1180 726 1228 q 607 1107 663 1131 q 480 1083 551 1083 m 472 -13 q 170 106 283 -13 q 56 407 56 224 l 56 581 q 169 883 56 764 q 472 1001 283 1001 q 776 882 661 1001 q 892 581 892 763 l 892 407 q 776 106 892 224 q 472 -13 661 -13 m 472 163 q 578 194 535 163 q 644 281 622 226 q 666 407 666 336 l 666 582 q 643 707 666 653 q 578 792 621 761 q 472 824 535 824 q 366 793 408 824 q 302 707 324 762 q 281 582 281 652 l 281 407 q 303 281 281 336 q 366 194 324 226 q 472 163 408 163 z "},"ŏ":{"ha":765,"x_min":31,"x_max":739,"o":"m 390 848 q 262 872 317 848 q 175 945 206 897 q 144 1068 144 994 l 313 1068 q 330 1001 313 1022 q 390 981 347 981 q 448 1001 431 981 q 465 1068 465 1021 l 635 1068 q 604 945 635 994 q 517 872 572 897 q 390 848 461 848 m 385 -12 q 123 92 215 -12 q 31 364 31 196 l 31 377 q 123 649 31 544 q 383 754 215 754 q 646 649 553 754 q 739 377 739 544 l 739 364 q 647 92 739 196 q 385 -12 554 -12 m 385 161 q 459 186 431 161 q 500 257 487 211 q 513 364 513 302 q 506 456 513 418 q 481 526 499 494 q 383 579 450 579 q 310 553 338 579 q 269 482 283 528 q 256 377 256 437 l 256 364 q 286 215 256 269 q 385 161 316 161 z "},"Ő":{"ha":938,"x_min":56,"x_max":892,"o":"m 434 1079 l 252 1079 l 403 1282 l 621 1282 l 434 1079 m 662 1079 l 474 1079 l 660 1282 l 883 1282 l 662 1079 m 472 -13 q 170 106 283 -13 q 56 407 56 224 l 56 581 q 169 883 56 764 q 472 1001 283 1001 q 776 882 661 1001 q 892 581 892 763 l 892 407 q 776 106 892 224 q 472 -13 661 -13 m 472 163 q 578 194 535 163 q 644 281 622 226 q 666 407 666 336 l 666 582 q 643 707 666 653 q 578 792 621 761 q 472 824 535 824 q 366 793 408 824 q 302 707 324 762 q 281 582 281 652 l 281 407 q 303 281 281 336 q 366 194 324 226 q 472 163 408 163 z "},"ő":{"ha":765,"x_min":31,"x_max":793,"o":"m 344 844 l 162 844 l 313 1047 l 531 1047 l 344 844 m 572 844 l 384 844 l 569 1047 l 793 1047 l 572 844 m 385 -12 q 123 92 215 -12 q 31 364 31 196 l 31 377 q 123 649 31 544 q 383 754 215 754 q 646 649 553 754 q 739 377 739 544 l 739 364 q 647 92 739 196 q 385 -12 554 -12 m 385 161 q 459 186 431 161 q 500 257 487 211 q 513 364 513 302 q 506 456 513 418 q 481 526 499 494 q 383 579 450 579 q 310 553 338 579 q 269 482 283 528 q 256 377 256 437 l 256 364 q 286 215 256 269 q 385 161 316 161 z "},"Œ":{"ha":1310,"x_min":54,"x_max":1281,"o":"m 471 -13 q 167 99 281 -13 q 54 393 54 209 l 54 594 q 167 889 54 777 q 469 1001 280 1001 q 663 988 543 1001 l 1279 988 l 1279 813 l 815 813 l 815 597 l 1213 597 l 1213 423 l 815 423 l 815 174 l 1281 174 l 1281 0 l 663 0 q 558 -10 601 -7 q 471 -13 515 -13 m 471 161 q 589 168 541 161 l 589 818 q 469 826 520 826 q 330 771 380 826 q 279 596 279 715 l 279 393 q 330 217 279 272 q 471 161 381 161 z "},"œ":{"ha":1217,"x_min":44,"x_max":1190,"o":"m 887 -13 q 738 13 801 -13 q 640 76 674 40 q 545 13 607 40 q 397 -13 483 -13 q 135 91 226 -13 q 44 364 44 196 l 44 377 q 135 649 44 544 q 395 754 226 754 q 544 728 481 754 q 638 666 606 702 q 730 728 669 701 q 869 754 790 754 q 1108 664 1025 754 q 1190 418 1190 574 l 1190 300 l 760 300 q 804 201 767 242 q 907 160 842 160 q 1009 172 968 160 q 1115 222 1049 184 l 1176 79 q 887 -13 1065 -13 m 969 453 q 946 545 969 511 q 869 579 924 579 q 815 562 838 579 q 780 516 792 544 q 763 453 767 488 l 969 453 m 397 160 q 470 186 442 160 q 511 257 498 211 q 525 364 525 302 q 518 456 525 418 q 493 526 511 494 q 395 579 462 579 q 322 553 350 579 q 281 482 294 528 q 268 377 268 437 l 268 364 q 298 215 268 269 q 397 160 327 160 z "},"Ŕ":{"ha":883,"x_min":81,"x_max":871,"o":"m 494 1039 l 304 1039 l 456 1240 l 709 1240 l 494 1039 m 871 0 l 635 0 l 458 374 l 307 374 l 307 0 l 81 0 l 81 988 l 457 988 q 650 955 567 988 q 777 857 732 923 q 823 692 823 791 q 781 532 823 597 q 669 434 739 467 l 871 28 l 871 0 m 457 549 q 598 680 598 549 q 564 777 598 741 q 457 813 531 813 l 307 813 l 307 549 l 457 549 z "},"ŕ":{"ha":495,"x_min":63,"x_max":558,"o":"m 344 818 l 153 818 l 305 1019 l 558 1019 l 344 818 m 288 0 l 63 0 l 63 741 l 273 741 l 278 677 q 424 754 333 753 q 501 742 456 754 l 478 543 l 384 546 q 288 492 313 546 l 288 0 z "},"Ŗ":{"ha":883,"x_min":81,"x_max":871,"o":"m 871 0 l 635 0 l 458 374 l 307 374 l 307 0 l 81 0 l 81 988 l 457 988 q 650 955 567 988 q 777 857 732 923 q 823 692 823 791 q 781 532 823 597 q 669 434 739 467 l 871 28 l 871 0 m 457 549 q 598 680 598 549 q 564 777 598 741 q 457 813 531 813 l 307 813 l 307 549 l 457 549 m 410 -360 l 291 -294 q 334 -203 322 -244 q 347 -111 347 -162 l 347 -20 l 519 -20 l 519 -102 q 493 -233 519 -165 q 410 -360 467 -301 z "},"ŗ":{"ha":495,"x_min":43,"x_max":501,"o":"m 288 0 l 63 0 l 63 741 l 273 741 l 278 677 q 424 754 333 753 q 501 742 456 754 l 478 543 l 384 546 q 288 492 313 546 l 288 0 m 163 -360 l 43 -294 q 86 -203 74 -244 q 99 -111 99 -162 l 99 -20 l 271 -20 l 271 -102 q 245 -233 271 -165 q 163 -360 219 -301 z "},"Ř":{"ha":883,"x_min":81,"x_max":871,"o":"m 498 1065 l 352 1065 l 158 1243 l 158 1272 l 347 1272 l 425 1188 l 504 1272 l 693 1272 l 693 1242 l 498 1065 m 871 0 l 635 0 l 458 374 l 307 374 l 307 0 l 81 0 l 81 988 l 457 988 q 650 955 567 988 q 777 857 732 923 q 823 692 823 791 q 781 532 823 597 q 669 434 739 467 l 871 28 l 871 0 m 457 549 q 598 680 598 549 q 564 777 598 741 q 457 813 531 813 l 307 813 l 307 549 l 457 549 z "},"ř":{"ha":495,"x_min":8,"x_max":544,"o":"m 349 844 l 203 844 l 8 1022 l 8 1051 l 197 1051 l 276 967 l 355 1051 l 544 1051 l 544 1022 l 349 844 m 288 0 l 63 0 l 63 741 l 273 741 l 278 677 q 424 754 333 753 q 501 742 456 754 l 478 543 l 384 546 q 288 492 313 546 l 288 0 z "},"Ś":{"ha":849,"x_min":39,"x_max":818,"o":"m 502 1053 l 312 1053 l 463 1254 l 717 1254 l 502 1053 m 447 -13 q 160 70 281 -13 q 39 324 39 153 l 265 324 q 311 194 265 228 q 447 159 358 159 q 558 188 523 159 q 592 264 592 217 q 555 348 592 317 q 427 404 517 378 q 158 525 249 456 q 68 720 68 595 q 173 924 68 847 q 443 1001 277 1001 q 715 914 612 1001 q 818 679 818 827 l 592 679 q 440 828 592 828 q 330 798 365 828 q 294 719 294 767 q 337 646 294 674 q 484 586 379 617 q 734 466 649 540 q 818 265 818 392 q 717 60 818 133 q 447 -13 616 -13 z "},"ś":{"ha":700,"x_min":24,"x_max":667,"o":"m 418 818 l 228 818 l 379 1019 l 633 1019 l 418 818 m 351 -12 q 111 63 197 -12 q 24 253 24 139 l 240 253 q 272 166 242 188 q 355 145 301 145 q 447 210 447 145 q 447 210 447 210 q 422 256 447 236 q 315 293 396 276 q 115 373 183 320 q 47 520 47 426 q 129 686 47 619 q 349 754 211 754 q 514 725 442 754 q 625 640 585 697 q 666 499 666 583 l 440 499 q 356 595 440 595 q 354 595 355 595 q 286 576 307 595 q 265 528 265 557 q 288 483 265 501 q 394 449 311 465 q 603 366 538 422 q 667 218 667 310 q 582 51 667 115 q 351 -12 497 -12 z "},"Ŝ":{"ha":849,"x_min":39,"x_max":818,"o":"m 697 1074 l 529 1074 l 433 1163 l 340 1074 l 176 1074 l 176 1109 l 372 1276 l 497 1276 l 697 1108 l 697 1074 m 447 -13 q 160 70 281 -13 q 39 324 39 153 l 265 324 q 311 194 265 228 q 447 159 358 159 q 558 188 523 159 q 592 264 592 217 q 555 348 592 317 q 427 404 517 378 q 158 525 249 456 q 68 720 68 595 q 173 924 68 847 q 443 1001 277 1001 q 715 914 612 1001 q 818 679 818 827 l 592 679 q 440 828 592 828 q 330 798 365 828 q 294 719 294 767 q 337 646 294 674 q 484 586 379 617 q 734 466 649 540 q 818 265 818 392 q 717 60 818 133 q 447 -13 616 -13 z "},"ŝ":{"ha":700,"x_min":24,"x_max":667,"o":"m 613 839 l 445 839 l 349 928 l 256 839 l 92 839 l 92 874 l 288 1042 l 413 1042 l 613 873 l 613 839 m 351 -12 q 111 63 197 -12 q 24 253 24 139 l 240 253 q 272 166 242 188 q 355 145 301 145 q 447 210 447 145 q 447 210 447 210 q 422 256 447 236 q 315 293 396 276 q 115 373 183 320 q 47 520 47 426 q 129 686 47 619 q 349 754 211 754 q 514 725 442 754 q 625 640 585 697 q 666 499 666 583 l 440 499 q 356 595 440 595 q 354 595 355 595 q 286 576 307 595 q 265 528 265 557 q 288 483 265 501 q 394 449 311 465 q 603 366 538 422 q 667 218 667 310 q 582 51 667 115 q 351 -12 497 -12 z "},"Ş":{"ha":849,"x_min":39,"x_max":818,"o":"m 370 -309 l 365 -176 q 424 -167 409 -176 q 438 -135 438 -158 q 423 -107 438 -115 q 342 -94 408 -99 l 360 -7 q 160 70 248 9 q 39 324 39 153 l 265 324 q 311 194 265 228 q 447 159 358 159 q 558 188 523 159 q 592 264 592 217 q 555 348 592 317 q 427 404 517 378 q 158 525 249 456 q 68 720 68 595 q 173 924 68 847 q 443 1001 277 1001 q 715 914 612 1001 q 818 679 818 827 l 592 679 q 440 828 592 828 q 330 798 365 828 q 294 719 294 767 q 337 646 294 674 q 484 586 379 617 q 734 466 649 540 q 818 265 818 392 q 717 60 818 133 q 539 -7 645 8 l 537 -16 q 602 -52 569 -22 q 634 -141 634 -83 q 570 -264 634 -219 q 370 -309 506 -309 z "},"ş":{"ha":700,"x_min":24,"x_max":667,"o":"m 274 -309 l 269 -176 q 328 -167 313 -176 q 342 -135 342 -158 q 327 -107 342 -115 q 246 -94 313 -99 l 265 -6 q 111 63 172 10 q 24 253 24 139 l 240 253 q 272 166 242 188 q 355 145 301 145 q 447 210 447 145 q 447 210 447 210 q 422 256 447 236 q 315 293 396 276 q 115 373 183 320 q 47 520 47 426 q 129 686 47 619 q 349 754 211 754 q 514 725 442 754 q 625 640 585 697 q 666 499 666 583 l 440 499 q 356 595 440 595 q 354 595 355 595 q 286 576 307 595 q 265 528 265 557 q 288 483 265 501 q 394 449 311 465 q 603 366 538 422 q 667 218 667 310 q 583 51 667 115 q 443 -5 526 9 l 441 -16 q 506 -52 474 -22 q 538 -141 538 -83 q 474 -264 538 -219 q 274 -309 410 -309 z "},"Š":{"ha":849,"x_min":39,"x_max":818,"o":"m 506 1079 l 360 1079 l 165 1257 l 165 1286 l 354 1286 l 433 1201 l 512 1286 l 701 1286 l 701 1256 l 506 1079 m 447 -13 q 160 70 281 -13 q 39 324 39 153 l 265 324 q 311 194 265 228 q 447 159 358 159 q 558 188 523 159 q 592 264 592 217 q 555 348 592 317 q 427 404 517 378 q 158 525 249 456 q 68 720 68 595 q 173 924 68 847 q 443 1001 277 1001 q 715 914 612 1001 q 818 679 818 827 l 592 679 q 440 828 592 828 q 330 798 365 828 q 294 719 294 767 q 337 646 294 674 q 484 586 379 617 q 734 466 649 540 q 818 265 818 392 q 717 60 818 133 q 447 -13 616 -13 z "},"š":{"ha":700,"x_min":24,"x_max":667,"o":"m 422 844 l 276 844 l 81 1022 l 81 1051 l 270 1051 l 349 967 l 428 1051 l 617 1051 l 617 1022 l 422 844 m 351 -12 q 111 63 197 -12 q 24 253 24 139 l 240 253 q 272 166 242 188 q 355 145 301 145 q 447 210 447 145 q 447 210 447 210 q 422 256 447 236 q 315 293 396 276 q 115 373 183 320 q 47 520 47 426 q 129 686 47 619 q 349 754 211 754 q 514 725 442 754 q 625 640 585 697 q 666 499 666 583 l 440 499 q 356 595 440 595 q 354 595 355 595 q 286 576 307 595 q 265 528 265 557 q 288 483 265 501 q 394 449 311 465 q 603 366 538 422 q 667 218 667 310 q 582 51 667 115 q 351 -12 497 -12 z "},"Ţ":{"ha":860,"x_min":19,"x_max":850,"o":"m 547 0 l 533 0 l 533 -3 q 598 -39 565 -8 q 630 -128 630 -69 q 566 -251 630 -206 q 366 -296 501 -296 l 360 -162 q 419 -153 405 -162 q 434 -122 434 -144 q 419 -93 434 -101 q 338 -81 404 -85 l 355 0 l 321 0 l 321 813 l 19 813 l 19 988 l 850 988 l 850 813 l 547 813 l 547 0 z "},"ţ":{"ha":456,"x_min":1,"x_max":478,"o":"m 215 -303 l 209 -169 q 268 -160 253 -169 q 283 -128 283 -151 q 268 -100 283 -108 q 186 -87 253 -92 l 207 8 q 151 49 174 23 q 98 228 98 109 l 98 579 l 1 579 l 1 741 l 98 741 l 98 916 l 323 916 l 323 741 l 446 741 l 446 579 l 323 579 l 323 229 q 335 178 323 192 q 367 165 347 165 q 392 167 381 165 q 437 177 403 168 l 455 14 q 382 -7 419 -1 l 381 -10 q 446 -46 414 -15 q 478 -135 478 -76 q 414 -258 478 -212 q 215 -303 350 -303 z "},"Ť":{"ha":860,"x_min":19,"x_max":850,"o":"m 547 0 l 321 0 l 321 813 l 19 813 l 19 988 l 850 988 l 850 813 l 547 813 l 547 0 m 514 1065 l 368 1065 l 174 1243 l 174 1272 l 363 1272 l 441 1188 l 520 1272 l 709 1272 l 709 1242 l 514 1065 z "},"ť":{"ha":500,"x_min":1,"x_max":603,"o":"m 495 768 l 376 833 q 419 925 407 884 q 431 1017 431 965 l 431 1108 l 603 1108 l 603 1026 q 577 895 603 963 q 495 768 551 827 m 318 -12 q 151 48 205 -12 q 98 228 98 109 l 98 579 l 1 579 l 1 741 l 98 741 l 98 916 l 323 916 l 323 741 l 446 741 l 446 579 l 323 579 l 323 229 q 335 178 323 192 q 367 165 347 165 q 392 167 381 165 q 437 177 403 168 l 455 14 q 318 -12 390 -12 z "},"Ŧ":{"ha":860,"x_min":19,"x_max":850,"o":"m 547 0 l 321 0 l 321 501 l 201 501 l 201 646 l 321 646 l 321 813 l 19 813 l 19 988 l 850 988 l 850 813 l 547 813 l 547 646 l 676 646 l 676 501 l 547 501 l 547 0 z "},"ŧ":{"ha":456,"x_min":-22,"x_max":455,"o":"m 318 -12 q 151 48 205 -12 q 97 228 97 109 l 97 356 l -22 356 l -22 502 l 97 502 l 97 579 l 1 579 l 1 741 l 97 741 l 97 916 l 323 916 l 323 741 l 445 741 l 445 579 l 323 579 l 323 502 l 454 502 l 454 356 l 323 356 l 323 229 q 334 178 323 192 q 366 165 345 165 q 391 167 381 165 q 437 177 402 168 l 455 14 q 318 -12 389 -12 z "},"Ũ":{"ha":935,"x_min":70,"x_max":874,"o":"m 754 1303 q 743 1231 754 1265 q 710 1172 731 1197 q 660 1131 689 1146 q 597 1115 631 1115 q 541 1125 565 1115 q 496 1145 517 1134 q 453 1165 475 1156 q 406 1174 432 1174 q 369 1159 384 1174 q 353 1112 353 1144 l 225 1118 q 237 1189 225 1154 q 269 1249 249 1223 q 319 1290 290 1274 q 383 1306 348 1306 q 433 1297 409 1306 q 479 1277 456 1288 q 525 1257 502 1266 q 574 1249 548 1249 q 611 1264 596 1249 q 627 1310 627 1278 l 754 1303 m 471 -13 q 179 77 288 -13 q 70 337 70 167 l 70 988 l 297 988 l 297 337 q 471 160 297 160 q 602 203 557 160 q 647 337 647 246 l 647 988 l 874 988 l 874 337 q 764 77 874 167 q 471 -13 653 -13 z "},"ũ":{"ha":767,"x_min":58,"x_max":713,"o":"m 665 1068 q 654 997 665 1031 q 621 937 642 963 q 571 896 600 911 q 508 881 542 881 q 452 890 476 881 q 407 910 428 899 q 365 930 386 921 q 317 939 343 939 q 280 924 295 939 q 265 877 265 909 l 136 883 q 148 954 136 919 q 181 1014 160 988 q 230 1055 201 1040 q 294 1071 259 1071 q 344 1062 320 1071 q 390 1042 367 1053 q 436 1023 413 1031 q 485 1014 459 1014 q 523 1029 507 1014 q 538 1076 538 1044 l 665 1068 m 315 -12 q 124 63 190 -12 q 58 297 58 138 l 58 741 l 283 741 l 283 295 q 305 191 283 219 q 371 163 327 163 q 487 212 451 163 l 487 741 l 713 741 l 713 0 l 513 0 l 504 61 q 438 16 492 44 q 315 -12 385 -12 z "},"Ū":{"ha":935,"x_min":70,"x_max":874,"o":"m 737 1072 l 221 1072 l 221 1208 l 737 1208 l 737 1072 m 471 -13 q 179 77 288 -13 q 70 337 70 167 l 70 988 l 297 988 l 297 337 q 471 160 297 160 q 602 203 557 160 q 647 337 647 246 l 647 988 l 874 988 l 874 337 q 764 77 874 167 q 471 -13 653 -13 z "},"ū":{"ha":767,"x_min":58,"x_max":713,"o":"m 647 838 l 131 838 l 131 974 l 647 974 l 647 838 m 315 -12 q 124 63 190 -12 q 58 297 58 138 l 58 741 l 283 741 l 283 295 q 305 191 283 219 q 371 163 327 163 q 487 212 451 163 l 487 741 l 713 741 l 713 0 l 513 0 l 504 61 q 438 16 492 44 q 315 -12 385 -12 z "},"Ŭ":{"ha":935,"x_min":70,"x_max":874,"o":"m 478 1069 q 350 1093 406 1069 q 263 1166 294 1117 q 232 1289 232 1215 l 401 1289 q 418 1222 401 1242 q 478 1201 435 1201 q 536 1222 519 1201 q 553 1289 553 1242 l 724 1289 q 692 1166 724 1215 q 605 1093 660 1117 q 478 1069 549 1069 m 471 -13 q 179 77 288 -13 q 70 337 70 167 l 70 988 l 297 988 l 297 337 q 471 160 297 160 q 602 203 557 160 q 647 337 647 246 l 647 988 l 874 988 l 874 337 q 764 77 874 167 q 471 -13 653 -13 z "},"ŭ":{"ha":767,"x_min":58,"x_max":713,"o":"m 389 834 q 261 858 317 834 q 174 931 206 883 q 143 1054 143 980 l 313 1054 q 330 987 313 1008 q 389 967 347 967 q 447 987 430 967 q 465 1054 465 1007 l 635 1054 q 603 931 635 980 q 516 858 572 883 q 389 834 460 834 m 315 -12 q 124 63 190 -12 q 58 297 58 138 l 58 741 l 283 741 l 283 295 q 305 191 283 219 q 371 163 327 163 q 487 212 451 163 l 487 741 l 713 741 l 713 0 l 513 0 l 504 61 q 438 16 492 44 q 315 -12 385 -12 z "},"Ů":{"ha":935,"x_min":70,"x_max":874,"o":"m 481 1033 q 369 1071 414 1033 q 324 1172 324 1109 q 369 1275 324 1234 q 481 1315 413 1315 q 592 1274 548 1315 q 636 1172 636 1233 q 592 1070 636 1108 q 481 1033 547 1033 m 481 1121 q 513 1133 500 1121 q 526 1172 526 1146 q 513 1212 526 1199 q 481 1225 500 1225 q 448 1212 463 1225 q 433 1172 433 1199 q 448 1134 433 1147 q 481 1121 463 1121 m 471 -13 q 179 77 288 -13 q 70 337 70 167 l 70 988 l 297 988 l 297 337 q 471 160 297 160 q 602 203 557 160 q 647 337 647 246 l 647 988 l 874 988 l 874 337 q 764 77 874 167 q 471 -13 653 -13 z "},"ů":{"ha":767,"x_min":58,"x_max":713,"o":"m 392 798 q 280 836 325 798 q 235 938 235 874 q 280 1040 235 999 q 392 1081 324 1081 q 503 1040 459 1081 q 547 938 547 999 q 503 836 547 874 q 392 798 458 798 m 392 886 q 424 899 411 886 q 438 938 438 911 q 424 977 438 964 q 392 990 411 990 q 359 977 374 990 q 344 938 344 964 q 359 899 344 912 q 392 886 374 886 m 315 -12 q 124 63 190 -12 q 58 297 58 138 l 58 741 l 283 741 l 283 295 q 305 191 283 219 q 371 163 327 163 q 487 212 451 163 l 487 741 l 713 741 l 713 0 l 513 0 l 504 61 q 438 16 492 44 q 315 -12 385 -12 z "},"Ű":{"ha":935,"x_min":70,"x_max":881,"o":"m 432 1065 l 250 1065 l 401 1268 l 619 1268 l 432 1065 m 660 1065 l 472 1065 l 658 1268 l 881 1268 l 660 1065 m 471 -13 q 179 77 288 -13 q 70 337 70 167 l 70 988 l 297 988 l 297 337 q 471 160 297 160 q 602 203 557 160 q 647 337 647 246 l 647 988 l 874 988 l 874 337 q 764 77 874 167 q 471 -13 653 -13 z "},"ű":{"ha":767,"x_min":58,"x_max":792,"o":"m 343 831 l 161 831 l 312 1033 l 530 1033 l 343 831 m 571 831 l 383 831 l 569 1033 l 792 1033 l 571 831 m 315 -12 q 124 63 190 -12 q 58 297 58 138 l 58 741 l 283 741 l 283 295 q 305 191 283 219 q 371 163 327 163 q 487 212 451 163 l 487 741 l 713 741 l 713 0 l 513 0 l 504 61 q 438 16 492 44 q 315 -12 385 -12 z "},"Ų":{"ha":935,"x_min":70,"x_max":874,"o":"m 591 -249 q 506 -232 543 -249 q 446 -182 468 -215 q 424 -99 424 -148 q 433 -44 424 -69 q 447 -13 442 -19 l 471 -13 q 179 77 288 -13 q 70 337 70 167 l 70 988 l 297 988 l 297 337 q 471 160 297 160 q 602 203 557 160 q 647 337 647 246 l 647 988 l 874 988 l 874 337 q 827 153 874 229 q 744 58 781 76 l 738 58 q 623 -20 645 4 q 601 -75 601 -44 q 607 -98 601 -91 q 628 -105 613 -105 q 658 -99 642 -105 l 693 -85 l 718 -212 q 658 -240 687 -231 q 591 -249 628 -249 z "},"ų":{"ha":767,"x_min":58,"x_max":714,"o":"m 582 -280 q 497 -263 535 -280 q 437 -212 459 -246 q 415 -130 415 -179 q 510 24 415 -40 l 505 61 q 439 16 492 44 q 315 -12 385 -12 q 125 63 191 -12 q 58 297 58 138 l 58 741 l 283 741 l 283 295 q 306 191 283 219 q 372 163 328 163 q 488 212 451 163 l 488 741 l 714 741 l 714 0 l 683 0 q 614 -51 635 -27 q 592 -106 592 -76 q 598 -129 592 -122 q 619 -136 604 -136 q 649 -130 633 -136 l 684 -116 l 709 -243 q 649 -271 678 -262 q 582 -280 619 -280 z "},"Ŵ":{"ha":1180,"x_min":26,"x_max":1163,"o":"m 951 0 l 747 0 l 595 588 l 443 0 l 239 0 l 26 988 l 247 988 l 360 388 l 512 988 l 678 988 l 831 387 l 943 988 l 1163 988 l 951 0 m 869 1059 l 702 1059 l 606 1149 l 513 1059 l 349 1059 l 349 1094 l 544 1262 l 670 1262 l 869 1093 l 869 1059 z "},"ŵ":{"ha":992,"x_min":1,"x_max":997,"o":"m 808 0 l 619 0 l 499 402 l 377 0 l 190 0 l 1 741 l 217 741 l 300 322 l 421 741 l 577 741 l 696 323 l 781 741 l 997 741 l 808 0 m 771 825 l 603 825 l 508 915 l 414 825 l 250 825 l 250 860 l 446 1028 l 572 1028 l 771 859 l 771 825 z "},"Ŷ":{"ha":856,"x_min":-16,"x_max":880,"o":"m 542 0 l 317 0 l 317 359 l -16 988 l 231 988 l 432 564 l 633 988 l 880 988 l 542 349 l 542 0 m 705 1059 l 538 1059 l 442 1149 l 348 1059 l 184 1059 l 184 1094 l 380 1262 l 506 1262 l 705 1093 l 705 1059 z "},"ŷ":{"ha":690,"x_min":-16,"x_max":711,"o":"m 615 825 l 447 825 l 351 915 l 258 825 l 94 825 l 94 860 l 290 1028 l 415 1028 l 615 859 l 615 825 m 160 -288 q 113 -284 135 -288 q 47 -269 90 -280 l 73 -103 l 101 -107 q 124 -110 116 -110 q 186 -95 166 -110 q 221 -37 206 -80 l 241 14 l -16 741 l 226 741 l 345 331 l 468 741 l 711 741 l 415 -97 q 332 -232 388 -176 q 160 -288 276 -288 z "},"Ÿ":{"ha":856,"x_min":-16,"x_max":880,"o":"m 542 0 l 317 0 l 317 359 l -16 988 l 231 988 l 432 564 l 633 988 l 880 988 l 542 349 l 542 0 m 382 1065 l 173 1065 l 173 1226 l 382 1226 l 382 1065 m 712 1065 l 503 1065 l 503 1226 l 712 1226 l 712 1065 z "},"Ź":{"ha":800,"x_min":40,"x_max":776,"o":"m 776 0 l 40 0 l 40 117 l 486 813 l 41 813 l 41 988 l 765 988 l 765 874 l 317 174 l 776 174 l 776 0 m 475 1040 l 285 1040 l 436 1241 l 690 1241 l 475 1040 z "},"ź":{"ha":693,"x_min":37,"x_max":664,"o":"m 664 0 l 37 0 l 37 131 l 365 565 l 47 565 l 47 741 l 653 741 l 653 615 l 322 174 l 664 174 l 664 0 m 421 804 l 231 804 l 382 1006 l 635 1006 l 421 804 z "},"Ż":{"ha":800,"x_min":40,"x_max":776,"o":"m 776 0 l 40 0 l 40 117 l 486 813 l 41 813 l 41 988 l 765 988 l 765 874 l 317 174 l 776 174 l 776 0 m 526 1067 l 293 1067 l 293 1251 l 526 1251 l 526 1067 z "},"ż":{"ha":693,"x_min":37,"x_max":664,"o":"m 664 0 l 37 0 l 37 131 l 365 565 l 47 565 l 47 741 l 653 741 l 653 615 l 322 174 l 664 174 l 664 0 m 472 831 l 239 831 l 239 1016 l 472 1016 l 472 831 z "},"Ž":{"ha":800,"x_min":40,"x_max":776,"o":"m 776 0 l 40 0 l 40 117 l 486 813 l 41 813 l 41 988 l 765 988 l 765 874 l 317 174 l 776 174 l 776 0 m 478 1066 l 333 1066 l 138 1244 l 138 1273 l 327 1273 l 406 1188 l 485 1273 l 674 1273 l 674 1243 l 478 1066 z "},"ž":{"ha":693,"x_min":37,"x_max":664,"o":"m 664 0 l 37 0 l 37 131 l 365 565 l 47 565 l 47 741 l 653 741 l 653 615 l 322 174 l 664 174 l 664 0 m 424 831 l 278 831 l 84 1008 l 84 1038 l 273 1038 l 351 953 l 431 1038 l 619 1038 l 619 1008 l 424 831 z "},"ſ":{"ha":353,"x_min":66,"x_max":470,"o":"m 292 0 l 66 0 l 66 807 q 140 1004 66 938 q 347 1070 215 1070 q 398 1067 372 1070 q 470 1053 424 1063 l 450 885 l 410 892 q 372 896 391 896 q 292 807 292 896 l 292 0 z "},"ƒ":{"ha":488,"x_min":-49,"x_max":510,"o":"m 63 -288 q 11 -285 34 -288 q -49 -274 -12 -283 l -37 -100 q 11 -111 -5 -108 q 44 -113 26 -113 q 89 -89 72 -113 q 106 -12 106 -65 l 106 579 l 0 579 l 0 741 l 106 741 l 106 807 q 178 1003 106 935 q 387 1070 251 1070 q 438 1067 412 1070 q 510 1053 465 1063 l 490 883 q 445 892 460 890 q 410 894 431 894 q 350 872 368 894 q 332 807 332 849 l 332 741 l 469 741 l 469 579 l 332 579 l 331 -12 q 260 -218 331 -149 q 63 -288 190 -288 z "},"Ơ":{"ha":948,"x_min":53,"x_max":998,"o":"m 469 -13 q 167 106 281 -13 q 53 407 53 224 l 53 581 q 167 883 53 764 q 469 1001 280 1001 q 644 968 567 1001 q 772 881 721 934 q 818 927 801 888 q 835 1063 835 967 l 998 1063 q 849 766 998 814 q 877 685 865 733 q 889 581 889 637 l 889 407 q 774 106 889 224 q 469 -13 659 -13 m 469 163 q 576 194 533 163 q 641 281 619 226 q 663 407 663 336 l 663 582 q 640 707 663 653 q 575 793 618 761 q 469 824 531 824 q 363 793 405 824 q 299 707 320 762 q 278 582 278 652 l 278 407 q 300 281 278 336 q 363 194 321 226 q 469 163 406 163 z "},"ơ":{"ha":785,"x_min":31,"x_max":817,"o":"m 384 -12 q 122 92 214 -12 q 31 364 31 196 l 31 377 q 123 649 31 544 q 383 754 215 754 q 534 727 471 754 q 634 658 598 699 q 657 700 647 666 q 668 809 668 734 l 817 809 q 701 558 817 608 q 738 364 737 482 q 645 92 738 196 q 384 -12 553 -12 m 384 161 q 458 186 430 161 q 499 257 486 211 q 512 364 512 302 q 505 456 512 418 q 481 526 498 494 q 383 579 449 579 q 309 553 338 579 q 268 482 281 528 q 256 377 256 437 l 256 364 q 285 215 256 269 q 384 161 315 161 z "},"Ư":{"ha":961,"x_min":70,"x_max":1105,"o":"m 471 -13 q 179 77 288 -13 q 70 337 70 167 l 70 988 l 297 988 l 297 337 q 471 160 297 160 q 602 203 557 160 q 647 337 647 246 l 647 988 l 873 988 l 873 856 q 926 904 909 863 q 944 1053 944 945 l 1105 1053 q 1049 811 1105 890 q 873 722 993 732 l 873 337 q 763 77 873 167 q 471 -13 653 -13 z "},"ư":{"ha":822,"x_min":58,"x_max":903,"o":"m 315 -12 q 125 63 191 -12 q 58 297 58 138 l 58 741 l 283 741 l 283 295 q 305 191 283 219 q 371 163 327 163 q 488 212 451 163 l 488 741 l 713 741 l 713 655 q 744 690 731 660 q 758 803 758 719 l 903 803 q 860 613 903 678 q 713 536 816 548 l 713 0 l 513 0 l 504 61 q 439 16 492 44 q 315 -12 385 -12 z "},"Ǆ":{"ha":1697,"x_min":81,"x_max":1681,"o":"m 404 0 l 81 0 l 81 988 l 408 988 q 737 869 616 988 q 858 556 858 750 l 858 431 q 737 118 858 235 q 404 0 615 0 m 394 174 q 632 431 632 174 l 632 558 q 398 813 632 813 l 306 813 l 306 174 l 394 174 m 1681 0 l 945 0 l 945 117 l 1391 813 l 946 813 l 946 988 l 1670 988 l 1670 874 l 1222 174 l 1681 174 l 1681 0 m 1386 1073 l 1240 1073 l 1046 1251 l 1046 1280 l 1235 1280 l 1313 1195 l 1392 1280 l 1581 1280 l 1581 1250 l 1386 1073 z "},"ǅ":{"ha":1583,"x_min":76,"x_max":1565,"o":"m 399 0 l 76 0 l 76 988 l 403 988 q 732 869 611 988 q 853 556 853 750 l 853 431 q 732 118 853 235 q 399 0 610 0 m 390 174 q 627 431 627 174 l 627 558 q 393 813 627 813 l 301 813 l 301 174 l 390 174 m 1565 0 l 938 0 l 938 131 l 1266 565 l 949 565 l 949 741 l 1554 741 l 1554 615 l 1224 174 l 1565 174 l 1565 0 m 1325 826 l 1179 826 l 985 1004 l 985 1033 l 1174 1033 l 1252 949 l 1331 1033 l 1520 1033 l 1520 1003 l 1325 826 z "},"ǆ":{"ha":1451,"x_min":31,"x_max":1429,"o":"m 325 -12 q 106 86 182 -12 q 48 208 65 141 q 31 365 31 276 q 107 647 31 540 q 326 754 182 754 q 481 694 419 754 l 481 1056 l 708 1056 l 708 0 l 510 0 l 499 59 q 439 15 488 42 q 325 -12 391 -12 m 375 163 q 481 219 449 163 l 481 517 q 439 561 466 544 q 376 578 413 578 q 308 551 334 578 q 269 476 281 524 q 256 365 256 428 l 256 351 q 372 163 256 164 l 375 163 m 1429 0 l 802 0 l 802 131 l 1130 565 l 813 565 l 813 741 l 1418 741 l 1418 615 l 1088 174 l 1429 174 l 1429 0 m 1189 826 l 1043 826 l 849 1004 l 849 1033 l 1038 1033 l 1116 949 l 1195 1033 l 1384 1033 l 1384 1003 l 1189 826 z "},"Ǉ":{"ha":1513,"x_min":81,"x_max":1449,"o":"m 735 0 l 81 0 l 81 988 l 307 988 l 307 174 l 735 174 l 735 0 m 1113 -13 q 861 63 953 -13 q 769 306 769 140 l 995 306 q 1024 189 995 218 q 1113 160 1052 160 q 1195 194 1165 160 q 1224 302 1224 228 l 1224 988 l 1449 988 l 1449 302 q 1356 71 1449 156 q 1113 -13 1263 -13 z "},"ǈ":{"ha":1090,"x_min":76,"x_max":1038,"o":"m 730 0 l 76 0 l 76 988 l 302 988 l 302 174 l 730 174 l 730 0 m 1034 887 l 808 887 l 808 1056 l 1034 1056 l 1034 887 m 769 -288 q 716 -285 740 -288 q 658 -274 693 -283 l 669 -99 q 715 -109 700 -107 q 747 -111 730 -111 q 794 -88 778 -111 q 811 -12 811 -65 l 811 741 l 1038 741 l 1038 -12 q 966 -218 1038 -149 q 769 -288 895 -288 z "},"ǉ":{"ha":803,"x_min":73,"x_max":744,"o":"m 303 -15 q 73 211 81 -15 l 73 1056 l 299 1056 l 299 224 q 309 173 299 185 q 342 161 319 161 q 368 163 358 161 q 420 178 378 165 l 444 14 q 373 -9 403 -3 q 303 -15 343 -15 m 740 887 l 514 887 l 514 1056 l 740 1056 l 740 887 m 475 -288 q 423 -285 446 -288 q 364 -274 399 -283 l 375 -99 q 421 -109 406 -107 q 453 -111 436 -111 q 501 -88 484 -111 q 517 -12 517 -65 l 517 741 l 744 741 l 744 -12 q 673 -218 744 -149 q 475 -288 601 -288 z "},"Ǌ":{"ha":1731,"x_min":81,"x_max":1669,"o":"m 891 0 l 672 0 l 306 618 l 306 0 l 81 0 l 81 988 l 301 988 l 666 370 l 666 988 l 891 988 l 891 0 m 1333 -13 q 1081 63 1173 -13 q 989 306 989 140 l 1215 306 q 1243 189 1215 218 q 1333 160 1272 160 q 1414 194 1385 160 q 1444 302 1444 228 l 1444 988 l 1669 988 l 1669 302 q 1575 71 1669 156 q 1333 -13 1482 -13 z "},"ǋ":{"ha":1308,"x_min":76,"x_max":1257,"o":"m 886 0 l 667 0 l 301 618 l 301 0 l 76 0 l 76 988 l 296 988 l 661 370 l 661 988 l 886 988 l 886 0 m 1253 887 l 1027 887 l 1027 1056 l 1253 1056 l 1253 887 m 988 -288 q 936 -285 959 -288 q 877 -274 913 -283 l 888 -99 q 934 -109 919 -107 q 966 -111 949 -111 q 1014 -88 997 -111 q 1031 -12 1031 -65 l 1031 741 l 1257 741 l 1257 -12 q 1186 -218 1257 -149 q 988 -288 1115 -288 z "},"ǌ":{"ha":1120,"x_min":59,"x_max":1064,"o":"m 714 0 l 488 0 l 488 459 q 465 551 488 524 q 388 578 442 578 q 285 528 319 578 l 285 0 l 59 0 l 59 741 l 271 741 l 277 670 q 359 731 310 708 q 468 754 408 754 q 714 460 714 754 l 714 0 m 1060 887 l 834 887 l 834 1056 l 1060 1056 l 1060 887 m 795 -288 q 743 -285 766 -288 q 684 -274 719 -283 l 695 -99 q 741 -109 726 -107 q 773 -111 756 -111 q 821 -88 804 -111 q 838 -12 838 -65 l 838 741 l 1064 741 l 1064 -12 q 993 -218 1064 -149 q 795 -288 922 -288 z "},"Ǎ":{"ha":873,"x_min":-10,"x_max":892,"o":"m 542 385 l 441 710 l 339 385 l 542 385 m 892 0 l 663 0 l 597 210 l 284 210 l 219 0 l -10 0 l 329 988 l 552 988 l 892 0 m 514 1073 l 368 1073 l 174 1251 l 174 1280 l 363 1280 l 441 1195 l 520 1280 l 709 1280 l 709 1250 l 514 1073 z "},"ǎ":{"ha":728,"x_min":35,"x_max":708,"o":"m 277 -13 q 97 46 159 -13 q 35 215 35 105 q 119 390 35 331 q 367 449 203 449 l 448 449 l 448 508 q 429 572 448 556 q 357 588 410 588 q 292 570 311 588 q 274 502 274 552 l 49 502 q 132 692 49 629 q 369 754 215 754 q 594 696 514 754 q 674 507 674 638 l 674 197 q 681 100 674 142 q 708 0 687 58 l 482 0 q 467 40 472 23 l 463 50 l 464 46 q 398 9 450 32 q 277 -13 347 -13 m 334 156 q 406 168 376 156 q 448 198 435 181 l 448 313 l 367 313 q 285 290 310 313 q 260 221 260 268 q 277 171 260 186 q 334 156 294 156 m 441 826 l 295 826 l 101 1004 l 101 1033 l 290 1033 l 368 949 l 447 1033 l 636 1033 l 636 1003 l 441 826 z "},"Ǐ":{"ha":408,"x_min":-62,"x_max":474,"o":"m 319 0 l 93 0 l 93 988 l 319 988 l 319 0 m 278 1073 l 133 1073 l -62 1251 l -62 1280 l 127 1280 l 206 1195 l 285 1280 l 474 1280 l 474 1250 l 278 1073 z "},"ǐ":{"ha":379,"x_min":-78,"x_max":458,"o":"m 302 0 l 76 0 l 76 741 l 302 741 l 302 0 m 263 826 l 117 826 l -78 1004 l -78 1033 l 111 1033 l 190 949 l 269 1033 l 458 1033 l 458 1003 l 263 826 z "},"Ǒ":{"ha":938,"x_min":56,"x_max":892,"o":"m 472 -13 q 170 106 283 -13 q 56 407 56 224 l 56 581 q 169 883 56 764 q 472 1001 283 1001 q 776 882 661 1001 q 892 581 892 763 l 892 407 q 776 106 892 224 q 472 -13 661 -13 m 472 163 q 578 194 535 163 q 644 281 622 226 q 666 407 666 336 l 666 582 q 643 707 666 653 q 578 792 621 761 q 472 824 535 824 q 366 793 408 824 q 302 707 324 762 q 281 582 281 652 l 281 407 q 303 281 281 336 q 366 194 324 226 q 472 163 408 163 m 544 1073 l 399 1073 l 204 1251 l 204 1280 l 393 1280 l 472 1195 l 551 1280 l 740 1280 l 740 1250 l 544 1073 z "},"ǒ":{"ha":765,"x_min":31,"x_max":739,"o":"m 385 -12 q 123 92 215 -12 q 31 364 31 196 l 31 377 q 123 649 31 544 q 383 754 215 754 q 646 649 553 754 q 739 377 739 544 l 739 364 q 647 92 739 196 q 385 -12 554 -12 m 385 161 q 459 186 431 161 q 500 257 487 211 q 513 364 513 302 q 506 456 513 418 q 481 526 499 494 q 383 579 450 579 q 310 553 338 579 q 269 482 283 528 q 256 377 256 437 l 256 364 q 286 215 256 269 q 385 161 316 161 m 459 826 l 313 826 l 119 1004 l 119 1033 l 308 1033 l 386 949 l 465 1033 l 654 1033 l 654 1003 l 459 826 z "},"Ǔ":{"ha":935,"x_min":70,"x_max":874,"o":"m 471 -13 q 179 77 288 -13 q 70 337 70 167 l 70 988 l 297 988 l 297 337 q 471 160 297 160 q 602 203 557 160 q 647 337 647 246 l 647 988 l 874 988 l 874 337 q 764 77 874 167 q 471 -13 653 -13 m 545 1073 l 399 1073 l 205 1251 l 205 1280 l 394 1280 l 472 1195 l 551 1280 l 740 1280 l 740 1250 l 545 1073 z "},"ǔ":{"ha":767,"x_min":58,"x_max":713,"o":"m 315 -12 q 124 63 190 -12 q 58 297 58 138 l 58 741 l 283 741 l 283 295 q 305 191 283 219 q 371 163 327 163 q 487 212 451 163 l 487 741 l 713 741 l 713 0 l 513 0 l 504 61 q 438 16 492 44 q 315 -12 385 -12 m 459 826 l 313 826 l 119 1004 l 119 1033 l 308 1033 l 386 949 l 465 1033 l 654 1033 l 654 1003 l 459 826 z "},"Ǖ":{"ha":935,"x_min":70,"x_max":874,"o":"m 731 1338 l 215 1338 l 215 1474 l 731 1474 l 731 1338 m 416 1065 l 207 1065 l 207 1226 l 416 1226 l 416 1065 m 746 1065 l 538 1065 l 538 1226 l 746 1226 l 746 1065 m 471 -13 q 179 77 288 -13 q 70 337 70 167 l 70 988 l 297 988 l 297 337 q 471 160 297 160 q 602 203 557 160 q 647 337 647 246 l 647 988 l 874 988 l 874 337 q 764 77 874 167 q 471 -13 653 -13 z "},"ǖ":{"ha":767,"x_min":58,"x_max":713,"o":"m 644 1103 l 128 1103 l 128 1239 l 644 1239 l 644 1103 m 327 831 l 118 831 l 118 992 l 327 992 l 327 831 m 657 831 l 449 831 l 449 992 l 657 992 l 657 831 m 315 -12 q 124 63 190 -12 q 58 297 58 138 l 58 741 l 283 741 l 283 295 q 305 191 283 219 q 371 163 327 163 q 487 212 451 163 l 487 741 l 713 741 l 713 0 l 513 0 l 504 61 q 438 16 492 44 q 315 -12 385 -12 z "},"Ǘ":{"ha":935,"x_min":70,"x_max":874,"o":"m 524 1278 l 376 1278 l 475 1513 l 666 1513 l 524 1278 m 416 1065 l 207 1065 l 207 1226 l 416 1226 l 416 1065 m 746 1065 l 538 1065 l 538 1226 l 746 1226 l 746 1065 m 471 -13 q 179 77 288 -13 q 70 337 70 167 l 70 988 l 297 988 l 297 337 q 471 160 297 160 q 602 203 557 160 q 647 337 647 246 l 647 988 l 874 988 l 874 337 q 764 77 874 167 q 471 -13 653 -13 z "},"ǘ":{"ha":767,"x_min":58,"x_max":713,"o":"m 438 1044 l 290 1044 l 389 1278 l 580 1278 l 438 1044 m 327 831 l 118 831 l 118 992 l 327 992 l 327 831 m 657 831 l 449 831 l 449 992 l 657 992 l 657 831 m 315 -12 q 124 63 190 -12 q 58 297 58 138 l 58 741 l 283 741 l 283 295 q 305 191 283 219 q 371 163 327 163 q 487 212 451 163 l 487 741 l 713 741 l 713 0 l 513 0 l 504 61 q 438 16 492 44 q 315 -12 385 -12 z "},"Ǚ":{"ha":935,"x_min":70,"x_max":874,"o":"m 545 1312 l 399 1312 l 205 1490 l 205 1519 l 394 1519 l 472 1434 l 551 1519 l 740 1519 l 740 1489 l 545 1312 m 416 1065 l 207 1065 l 207 1226 l 416 1226 l 416 1065 m 746 1065 l 538 1065 l 538 1226 l 746 1226 l 746 1065 m 471 -13 q 179 77 288 -13 q 70 337 70 167 l 70 988 l 297 988 l 297 337 q 471 160 297 160 q 602 203 557 160 q 647 337 647 246 l 647 988 l 874 988 l 874 337 q 764 77 874 167 q 471 -13 653 -13 z "},"ǚ":{"ha":767,"x_min":58,"x_max":713,"o":"m 459 1077 l 313 1077 l 119 1255 l 119 1284 l 308 1284 l 386 1199 l 465 1284 l 654 1284 l 654 1254 l 459 1077 m 327 831 l 118 831 l 118 992 l 327 992 l 327 831 m 657 831 l 449 831 l 449 992 l 657 992 l 657 831 m 315 -12 q 124 63 190 -12 q 58 297 58 138 l 58 741 l 283 741 l 283 295 q 305 191 283 219 q 371 163 327 163 q 487 212 451 163 l 487 741 l 713 741 l 713 0 l 513 0 l 504 61 q 438 16 492 44 q 315 -12 385 -12 z "},"Ǜ":{"ha":935,"x_min":70,"x_max":874,"o":"m 569 1275 l 419 1275 l 278 1508 l 469 1508 l 569 1275 m 416 1065 l 207 1065 l 207 1226 l 416 1226 l 416 1065 m 746 1065 l 538 1065 l 538 1226 l 746 1226 l 746 1065 m 471 -13 q 179 77 288 -13 q 70 337 70 167 l 70 988 l 297 988 l 297 337 q 471 160 297 160 q 602 203 557 160 q 647 337 647 246 l 647 988 l 874 988 l 874 337 q 764 77 874 167 q 471 -13 653 -13 z "},"ǜ":{"ha":767,"x_min":58,"x_max":713,"o":"m 483 1040 l 333 1040 l 192 1274 l 383 1274 l 483 1040 m 327 831 l 118 831 l 118 992 l 327 992 l 327 831 m 657 831 l 449 831 l 449 992 l 657 992 l 657 831 m 315 -12 q 124 63 190 -12 q 58 297 58 138 l 58 741 l 283 741 l 283 295 q 305 191 283 219 q 371 163 327 163 q 487 212 451 163 l 487 741 l 713 741 l 713 0 l 513 0 l 504 61 q 438 16 492 44 q 315 -12 385 -12 z "},"ǝ":{"ha":717,"x_min":26,"x_max":685,"o":"m 329 751 q 589 649 494 751 q 685 388 685 547 l 685 362 q 595 90 685 196 q 349 -16 506 -16 l 346 -16 q 108 74 190 -16 q 26 319 26 164 l 26 438 l 456 438 q 412 536 449 496 q 309 577 374 577 q 207 565 246 577 q 100 516 169 553 l 50 669 q 172 730 103 709 q 329 751 241 751 m 247 285 q 269 193 247 227 q 346 159 292 159 q 401 176 378 159 q 437 222 424 194 q 453 285 450 250 l 247 285 z "},"Ǟ":{"ha":873,"x_min":-10,"x_max":892,"o":"m 542 385 l 441 710 l 339 385 l 542 385 m 892 0 l 663 0 l 597 210 l 284 210 l 219 0 l -10 0 l 329 988 l 552 988 l 892 0 m 384 1065 l 175 1065 l 175 1226 l 384 1226 l 384 1065 m 714 1065 l 506 1065 l 506 1226 l 714 1226 l 714 1065 m 703 1338 l 187 1338 l 187 1474 l 703 1474 l 703 1338 z "},"ǟ":{"ha":728,"x_min":35,"x_max":708,"o":"m 624 1117 l 108 1117 l 108 1253 l 624 1253 l 624 1117 m 306 844 l 97 844 l 97 1006 l 306 1006 l 306 844 m 635 844 l 427 844 l 427 1006 l 635 1006 l 635 844 m 277 -13 q 97 46 159 -13 q 35 215 35 105 q 119 390 35 331 q 367 449 203 449 l 448 449 l 448 508 q 429 572 448 556 q 357 588 410 588 q 292 570 311 588 q 274 502 274 552 l 49 502 q 132 692 49 629 q 369 754 215 754 q 594 696 514 754 q 674 507 674 638 l 674 197 q 681 100 674 142 q 708 0 687 58 l 482 0 q 467 40 472 23 l 463 50 l 464 46 q 398 9 450 32 q 277 -13 347 -13 m 334 156 q 406 168 376 156 q 448 198 435 181 l 448 313 l 367 313 q 285 290 310 313 q 260 221 260 268 q 277 171 260 186 q 334 156 294 156 z "},"Ǡ":{"ha":873,"x_min":-10,"x_max":892,"o":"m 542 385 l 441 710 l 339 385 l 542 385 m 892 0 l 663 0 l 597 210 l 284 210 l 219 0 l -10 0 l 329 988 l 552 988 l 892 0 m 557 1057 l 324 1057 l 324 1242 l 557 1242 l 557 1057 m 699 1342 l 183 1342 l 183 1478 l 699 1478 l 699 1342 z "},"ǡ":{"ha":728,"x_min":35,"x_max":708,"o":"m 277 -13 q 97 46 159 -13 q 35 215 35 105 q 119 390 35 331 q 367 449 203 449 l 448 449 l 448 508 q 429 572 448 556 q 357 588 410 588 q 292 570 311 588 q 274 502 274 552 l 49 502 q 132 692 49 629 q 369 754 215 754 q 594 696 514 754 q 674 507 674 638 l 674 197 q 681 100 674 142 q 708 0 687 58 l 482 0 q 467 40 472 23 l 463 50 l 464 46 q 398 9 450 32 q 277 -13 347 -13 m 334 156 q 406 168 376 156 q 448 198 435 181 l 448 313 l 367 313 q 285 290 310 313 q 260 221 260 268 q 277 171 260 186 q 334 156 294 156 m 484 810 l 251 810 l 251 995 l 484 995 l 484 810 m 626 1096 l 110 1096 l 110 1231 l 626 1231 l 626 1096 z "},"Ǣ":{"ha":1268,"x_min":-19,"x_max":1251,"o":"m 610 406 l 597 707 l 447 406 l 610 406 m 1251 0 l 626 0 l 617 222 l 355 222 l 243 0 l -19 0 l 513 988 l 1210 988 l 1210 811 l 818 811 l 828 596 l 1157 596 l 1157 420 l 835 420 l 844 176 l 1251 176 l 1251 0 m 976 1099 l 460 1099 l 460 1235 l 976 1235 l 976 1099 z "},"ǣ":{"ha":1139,"x_min":17,"x_max":1127,"o":"m 826 -13 q 664 15 731 -13 q 563 81 597 42 q 465 17 535 47 q 299 -13 395 -13 q 140 16 203 -13 q 48 99 78 46 q 17 223 17 152 q 54 346 17 294 q 167 426 91 398 q 362 454 243 454 l 465 454 l 465 480 q 442 555 465 531 q 378 579 418 579 q 281 497 281 579 l 281 491 l 55 506 q 97 643 55 588 q 212 726 139 699 q 381 754 285 754 q 511 735 456 754 q 598 690 567 715 q 683 735 628 716 q 810 754 738 754 q 986 712 915 754 q 1092 593 1056 669 q 1127 417 1127 517 l 1127 300 l 693 300 q 734 200 698 239 q 846 160 770 160 q 943 173 903 160 q 1049 222 983 185 l 1111 76 q 988 11 1060 35 q 826 -13 916 -13 m 905 451 q 884 545 905 511 q 810 579 863 579 q 728 543 756 579 q 695 451 701 508 l 905 451 m 335 149 q 408 167 370 149 q 465 208 445 185 l 465 307 l 363 307 q 272 281 301 307 q 242 220 242 254 q 335 149 242 149 m 831 853 l 315 853 l 315 988 l 831 988 l 831 853 z "},"Ǧ":{"ha":909,"x_min":56,"x_max":853,"o":"m 472 -13 q 170 99 285 -13 q 56 393 56 211 l 56 594 q 166 889 56 776 q 456 1001 276 1001 q 738 915 644 1001 q 853 661 833 828 l 633 661 q 579 789 619 752 q 462 826 538 826 q 331 765 381 826 q 281 596 281 703 l 281 393 q 332 224 281 288 q 472 160 382 160 q 626 200 583 160 l 626 357 l 456 357 l 456 517 l 851 517 l 851 133 q 711 30 803 72 q 472 -13 619 -13 m 528 1073 l 382 1073 l 188 1251 l 188 1280 l 376 1280 l 455 1195 l 534 1280 l 723 1280 l 723 1250 l 528 1073 z "},"ǧ":{"ha":714,"x_min":-18,"x_max":715,"o":"m 715 613 l 644 613 q 661 569 651 602 q 672 499 672 536 l 672 483 q 583 301 672 373 q 347 228 494 228 q 295 231 320 228 q 258 236 270 233 q 253 228 257 236 q 250 210 250 220 q 266 181 250 189 q 318 174 282 174 l 439 174 q 640 119 569 174 q 711 -37 711 65 q 606 -211 711 -134 q 327 -289 501 -289 q 73 -233 165 -289 q -18 -93 -18 -178 q 19 13 -18 -31 q 101 76 57 56 q 87 103 95 82 q 78 153 78 125 q 101 231 78 198 q 144 277 124 263 q 55 358 93 302 q 17 483 17 414 l 17 499 q 107 684 17 615 q 344 754 196 754 q 405 751 376 754 q 459 741 434 748 l 713 741 l 715 613 m 242 483 q 270 419 242 444 q 347 394 298 394 q 421 419 394 394 q 448 483 448 445 l 448 499 q 420 564 448 540 q 344 588 393 588 q 269 564 297 588 q 242 499 242 539 l 242 483 m 282 8 q 249 9 265 8 q 225 11 233 10 q 205 -10 215 6 q 196 -50 196 -27 q 228 -103 196 -82 q 327 -124 260 -124 q 448 -99 408 -124 q 487 -47 487 -75 q 470 -6 487 -20 q 410 8 454 8 l 282 8 m 422 826 l 276 826 l 81 1004 l 81 1033 l 270 1033 l 349 949 l 428 1033 l 617 1033 l 617 1003 l 422 826 z "},"Ǩ":{"ha":876,"x_min":81,"x_max":918,"o":"m 918 0 l 633 0 l 376 385 l 306 303 l 306 0 l 81 0 l 81 988 l 306 988 l 306 602 l 610 988 l 886 988 l 531 564 l 918 0 m 572 1073 l 426 1073 l 232 1251 l 232 1280 l 421 1280 l 499 1195 l 578 1280 l 767 1280 l 767 1250 l 572 1073 z "},"ǩ":{"ha":725,"x_min":-91,"x_max":770,"o":"m 770 0 l 513 0 l 334 278 l 289 228 l 289 0 l 63 0 l 63 1056 l 289 1056 l 289 510 q 483 741 296 519 l 747 741 l 481 440 l 770 0 m 249 1142 l 103 1142 l -91 1319 l -91 1349 l 98 1349 l 176 1264 l 256 1349 l 444 1349 l 444 1319 l 249 1142 z "},"Ǫ":{"ha":938,"x_min":56,"x_max":892,"o":"m 472 -13 q 170 106 283 -13 q 56 407 56 224 l 56 581 q 169 883 56 764 q 472 1001 283 1001 q 776 882 661 1001 q 892 581 892 763 l 892 407 q 776 106 892 224 q 472 -13 661 -13 m 472 163 q 578 194 535 163 q 644 281 622 226 q 666 407 666 336 l 666 582 q 643 707 666 653 q 578 792 621 761 q 472 824 535 824 q 366 793 408 824 q 302 707 324 762 q 281 582 281 652 l 281 407 q 303 281 281 336 q 366 194 324 226 q 472 163 408 163 m 594 -280 q 509 -263 547 -280 q 450 -212 472 -246 q 428 -130 428 -179 q 603 68 428 -10 l 720 15 q 628 -49 651 -24 q 605 -106 605 -74 q 611 -129 605 -122 q 633 -136 617 -136 q 662 -130 647 -136 l 697 -116 l 722 -243 q 661 -271 691 -262 q 594 -280 632 -280 z "},"ǫ":{"ha":765,"x_min":31,"x_max":739,"o":"m 385 -12 q 123 92 215 -12 q 31 364 31 196 l 31 377 q 123 649 31 544 q 383 754 215 754 q 646 649 553 754 q 739 377 739 544 l 739 364 q 647 92 739 196 q 385 -12 554 -12 m 385 161 q 459 186 431 161 q 500 257 487 211 q 513 364 513 302 q 506 456 513 418 q 481 526 499 494 q 383 579 450 579 q 310 553 338 579 q 269 482 283 528 q 256 377 256 437 l 256 364 q 286 215 256 269 q 385 161 316 161 m 496 -280 q 410 -263 448 -280 q 351 -212 373 -246 q 330 -130 330 -179 q 505 68 330 -10 l 622 15 q 530 -49 553 -24 q 506 -106 506 -74 q 513 -129 506 -122 q 534 -136 519 -136 q 563 -130 548 -136 l 599 -116 l 623 -243 q 563 -271 592 -262 q 496 -280 533 -280 z "},"Ǭ":{"ha":938,"x_min":56,"x_max":892,"o":"m 472 -13 q 170 106 283 -13 q 56 407 56 224 l 56 581 q 169 883 56 764 q 472 1001 283 1001 q 776 882 661 1001 q 892 581 892 763 l 892 407 q 776 106 892 224 q 472 -13 661 -13 m 472 163 q 578 194 535 163 q 644 281 622 226 q 666 407 666 336 l 666 582 q 643 707 666 653 q 578 792 621 761 q 472 824 535 824 q 366 793 408 824 q 302 707 324 762 q 281 582 281 652 l 281 407 q 303 281 281 336 q 366 194 324 226 q 472 163 408 163 m 594 -280 q 509 -263 547 -280 q 450 -212 472 -246 q 428 -130 428 -179 q 603 68 428 -10 l 720 15 q 628 -49 651 -24 q 605 -106 605 -74 q 611 -129 605 -122 q 633 -136 617 -136 q 662 -130 647 -136 l 697 -116 l 722 -243 q 661 -271 691 -262 q 594 -280 632 -280 m 730 1099 l 214 1099 l 214 1235 l 730 1235 l 730 1099 z "},"ǭ":{"ha":765,"x_min":31,"x_max":739,"o":"m 385 -12 q 123 92 215 -12 q 31 364 31 196 l 31 377 q 123 649 31 544 q 383 754 215 754 q 646 649 553 754 q 739 377 739 544 l 739 364 q 647 92 739 196 q 385 -12 554 -12 m 385 161 q 459 186 431 161 q 500 257 487 211 q 513 364 513 302 q 506 456 513 418 q 481 526 499 494 q 383 579 450 579 q 310 553 338 579 q 269 482 283 528 q 256 377 256 437 l 256 364 q 286 215 256 269 q 385 161 316 161 m 496 -280 q 410 -263 448 -280 q 351 -212 373 -246 q 330 -130 330 -179 q 505 68 330 -10 l 622 15 q 530 -49 553 -24 q 506 -106 506 -74 q 513 -129 506 -122 q 534 -136 519 -136 q 563 -130 548 -136 l 599 -116 l 623 -243 q 563 -271 592 -262 q 496 -280 533 -280 m 644 853 l 128 853 l 128 988 l 644 988 l 644 853 z "},"ǰ":{"ha":385,"x_min":-86,"x_max":449,"o":"m 254 826 l 108 826 l -86 1003 l -86 1033 l 103 1033 l 181 948 l 260 1033 l 449 1033 l 449 1003 l 254 826 m 40 -288 q -13 -285 10 -288 q -72 -274 -37 -283 l -61 -100 q -12 -111 -28 -108 q 19 -113 3 -113 q 83 -12 83 -113 l 83 741 l 308 741 l 308 -12 q 237 -218 308 -147 q 40 -288 167 -288 z "},"Ǳ":{"ha":1697,"x_min":81,"x_max":1681,"o":"m 404 0 l 81 0 l 81 988 l 408 988 q 737 869 616 988 q 858 556 858 750 l 858 431 q 737 118 858 235 q 404 0 615 0 m 394 174 q 632 431 632 174 l 632 558 q 398 813 632 813 l 306 813 l 306 174 l 394 174 m 1681 0 l 945 0 l 945 117 l 1391 813 l 946 813 l 946 988 l 1670 988 l 1670 874 l 1222 174 l 1681 174 l 1681 0 z "},"ǲ":{"ha":1583,"x_min":76,"x_max":1565,"o":"m 399 0 l 76 0 l 76 988 l 403 988 q 732 869 611 988 q 853 556 853 750 l 853 431 q 732 118 853 235 q 399 0 610 0 m 390 174 q 627 431 627 174 l 627 558 q 393 813 627 813 l 301 813 l 301 174 l 390 174 m 1565 0 l 938 0 l 938 131 l 1266 565 l 949 565 l 949 741 l 1554 741 l 1554 615 l 1224 174 l 1565 174 l 1565 0 z "},"ǳ":{"ha":1451,"x_min":31,"x_max":1429,"o":"m 325 -12 q 106 86 182 -12 q 48 208 65 141 q 31 365 31 276 q 107 647 31 540 q 326 754 182 754 q 481 694 419 754 l 481 1056 l 708 1056 l 708 0 l 510 0 l 499 59 q 439 15 488 42 q 325 -12 391 -12 m 375 163 q 481 219 449 163 l 481 517 q 439 561 466 544 q 376 578 413 578 q 308 551 334 578 q 269 476 281 524 q 256 365 256 428 l 256 351 q 372 163 256 164 l 375 163 m 1429 0 l 802 0 l 802 131 l 1130 565 l 813 565 l 813 741 l 1418 741 l 1418 615 l 1088 174 l 1429 174 l 1429 0 z "},"Ǵ":{"ha":909,"x_min":56,"x_max":853,"o":"m 472 -13 q 170 99 285 -13 q 56 393 56 211 l 56 594 q 166 889 56 776 q 456 1001 276 1001 q 738 915 644 1001 q 853 661 833 828 l 633 661 q 579 789 619 752 q 462 826 538 826 q 331 765 381 826 q 281 596 281 703 l 281 393 q 332 224 281 288 q 472 160 382 160 q 626 200 583 160 l 626 357 l 456 357 l 456 517 l 851 517 l 851 133 q 711 30 803 72 q 472 -13 619 -13 m 507 1040 l 358 1040 l 458 1274 l 649 1274 l 507 1040 z "},"ǵ":{"ha":714,"x_min":-18,"x_max":715,"o":"m 715 613 l 644 613 q 661 569 651 602 q 672 499 672 536 l 672 483 q 583 301 672 373 q 347 228 494 228 q 295 231 320 228 q 258 236 270 233 q 253 228 257 236 q 250 210 250 220 q 266 181 250 189 q 318 174 282 174 l 439 174 q 640 119 569 174 q 711 -37 711 65 q 606 -211 711 -134 q 327 -289 501 -289 q 73 -233 165 -289 q -18 -93 -18 -178 q 19 13 -18 -31 q 101 76 57 56 q 87 103 95 82 q 78 153 78 125 q 101 231 78 198 q 144 277 124 263 q 55 358 93 302 q 17 483 17 414 l 17 499 q 107 684 17 615 q 344 754 196 754 q 405 751 376 754 q 459 741 434 748 l 713 741 l 715 613 m 242 483 q 270 419 242 444 q 347 394 298 394 q 421 419 394 394 q 448 483 448 445 l 448 499 q 420 564 448 540 q 344 588 393 588 q 269 564 297 588 q 242 499 242 539 l 242 483 m 282 8 q 249 9 265 8 q 225 11 233 10 q 205 -10 215 6 q 196 -50 196 -27 q 228 -103 196 -82 q 327 -124 260 -124 q 448 -99 408 -124 q 487 -47 487 -75 q 470 -6 487 -20 q 410 8 454 8 l 282 8 m 401 793 l 253 793 l 352 1027 l 543 1027 l 401 793 z "},"Ǹ":{"ha":963,"x_min":81,"x_max":891,"o":"m 891 0 l 672 0 l 306 618 l 306 0 l 81 0 l 81 988 l 301 988 l 666 370 l 666 988 l 891 988 l 891 0 m 583 1036 l 432 1036 l 292 1269 l 483 1269 l 583 1036 z "},"ǹ":{"ha":766,"x_min":59,"x_max":714,"o":"m 714 0 l 488 0 l 488 459 q 465 551 488 524 q 388 578 442 578 q 285 528 319 578 l 285 0 l 59 0 l 59 741 l 271 741 l 277 670 q 359 731 310 708 q 468 754 408 754 q 714 460 714 754 l 714 0 m 485 790 l 334 790 l 194 1023 l 385 1023 l 485 790 z "},"Ǻ":{"ha":873,"x_min":-10,"x_max":892,"o":"m 527 1194 l 369 1194 l 517 1356 l 708 1356 l 715 1338 l 527 1194 m 892 0 l 663 0 l 597 210 l 284 210 l 219 0 l -10 0 l 326 978 q 299 1059 299 1011 q 341 1155 299 1116 q 449 1194 383 1194 q 555 1156 513 1194 q 597 1059 597 1117 q 560 966 597 1001 l 892 0 m 449 1015 q 477 1026 465 1015 q 490 1059 490 1037 q 477 1094 490 1082 q 449 1106 465 1106 q 419 1094 432 1106 q 406 1059 406 1083 q 419 1026 406 1038 q 449 1015 432 1015 m 542 385 l 441 710 l 339 385 l 542 385 z "},"ǻ":{"ha":728,"x_min":35,"x_max":708,"o":"m 448 975 l 290 975 l 438 1137 l 628 1137 l 635 1118 l 448 975 m 277 -13 q 97 46 159 -13 q 35 215 35 105 q 119 390 35 331 q 367 449 203 449 l 448 449 l 448 508 q 429 572 448 556 q 357 588 410 588 q 292 570 311 588 q 274 502 274 552 l 49 502 q 132 692 49 629 q 260 745 183 730 q 219 840 219 781 q 262 935 219 897 q 370 974 304 974 q 476 936 433 974 q 518 840 518 898 q 478 744 518 780 q 594 696 547 730 q 674 507 674 638 l 674 197 q 681 100 674 142 q 708 0 687 58 l 482 0 q 467 40 472 23 l 463 50 l 464 46 q 398 9 450 32 q 277 -13 347 -13 m 370 795 q 398 806 386 795 q 410 840 410 817 q 398 874 410 863 q 370 886 386 886 q 340 875 353 886 q 326 840 326 863 q 340 807 326 818 q 370 795 353 795 m 334 156 q 406 168 376 156 q 448 198 435 181 l 448 313 l 367 313 q 285 290 310 313 q 260 221 260 268 q 277 171 260 186 q 334 156 294 156 z "},"Ǽ":{"ha":1268,"x_min":-19,"x_max":1251,"o":"m 610 406 l 597 707 l 447 406 l 610 406 m 1251 0 l 626 0 l 617 222 l 355 222 l 243 0 l -19 0 l 513 988 l 1210 988 l 1210 811 l 818 811 l 828 596 l 1157 596 l 1157 420 l 835 420 l 844 176 l 1251 176 l 1251 0 m 703 1039 l 513 1039 l 664 1240 l 917 1240 l 703 1039 z "},"ǽ":{"ha":1139,"x_min":17,"x_max":1127,"o":"m 652 819 l 462 819 l 613 1020 l 867 1020 l 652 819 m 826 -13 q 664 15 731 -13 q 563 81 597 42 q 465 17 535 47 q 299 -13 395 -13 q 140 16 203 -13 q 48 99 78 46 q 17 223 17 152 q 54 346 17 294 q 167 426 91 398 q 362 454 243 454 l 465 454 l 465 480 q 442 555 465 531 q 378 579 418 579 q 281 497 281 579 l 281 491 l 55 506 q 97 643 55 588 q 212 726 139 699 q 381 754 285 754 q 511 735 456 754 q 598 690 567 715 q 683 735 628 716 q 810 754 738 754 q 986 712 915 754 q 1092 593 1056 669 q 1127 417 1127 517 l 1127 300 l 693 300 q 734 200 698 239 q 846 160 770 160 q 943 173 903 160 q 1049 222 983 185 l 1111 76 q 988 11 1060 35 q 826 -13 916 -13 m 905 451 q 884 545 905 511 q 810 579 863 579 q 728 543 756 579 q 695 451 701 508 l 905 451 m 335 149 q 408 167 370 149 q 465 208 445 185 l 465 307 l 363 307 q 272 281 301 307 q 242 220 242 254 q 335 149 242 149 z "},"Ǿ":{"ha":933,"x_min":53,"x_max":889,"o":"m 551 1081 l 360 1081 l 512 1283 l 765 1283 l 551 1081 m 231 -62 l 101 -62 l 188 88 q 91 220 128 139 q 53 407 53 301 l 53 581 q 167 883 53 764 q 469 1001 280 1001 q 596 985 539 1001 q 688 945 653 968 l 736 1029 l 866 1029 l 777 875 q 858 749 827 824 q 889 581 889 674 l 889 407 q 774 106 889 224 q 469 -13 660 -13 q 360 -2 409 -13 q 282 26 310 10 l 231 -62 m 300 280 l 590 778 q 541 811 572 797 q 469 824 510 824 q 363 793 405 824 q 300 707 321 762 q 278 582 278 652 l 278 407 q 287 324 278 360 q 300 280 296 288 m 469 163 q 576 194 533 163 q 641 281 619 226 q 663 407 663 336 l 663 582 q 656 653 663 612 l 654 664 l 376 187 q 413 170 388 178 q 469 163 438 163 z "},"ǿ":{"ha":765,"x_min":31,"x_max":739,"o":"m 431 815 l 241 815 l 392 1017 l 646 1017 l 431 815 m 233 -92 l 92 -92 l 164 56 q 67 176 103 98 q 31 364 31 254 l 31 377 q 123 649 31 544 q 383 754 215 754 q 451 749 420 754 q 497 738 483 743 l 542 828 l 685 828 l 610 679 q 703 558 668 635 q 739 377 739 481 l 739 364 q 647 92 739 196 q 385 -12 554 -12 q 321 -8 350 -12 q 279 0 292 -3 l 233 -92 m 265 263 l 417 575 q 412 576 416 576 q 401 578 408 577 q 383 579 392 579 q 310 553 338 579 q 269 482 283 528 q 256 377 256 437 q 257 330 256 350 q 262 290 258 310 q 265 263 265 269 m 385 161 q 459 186 431 161 q 500 257 487 211 q 513 364 513 302 q 513 406 513 388 q 505 463 512 419 l 358 163 l 361 163 q 385 161 371 161 z "},"Ȁ":{"ha":873,"x_min":-10,"x_max":892,"o":"m 542 385 l 441 710 l 339 385 l 542 385 m 892 0 l 663 0 l 597 210 l 284 210 l 219 0 l -10 0 l 329 988 l 552 988 l 892 0 m 655 1073 l 463 1073 l 276 1276 l 503 1276 l 655 1073 m 433 1073 l 235 1073 l 13 1276 l 246 1276 l 433 1073 z "},"ȁ":{"ha":728,"x_min":-60,"x_max":708,"o":"m 277 -13 q 97 46 159 -13 q 35 215 35 105 q 119 390 35 331 q 367 449 203 449 l 448 449 l 448 508 q 429 572 448 556 q 357 588 410 588 q 292 570 311 588 q 274 502 274 552 l 49 502 q 132 692 49 629 q 369 754 215 754 q 594 696 514 754 q 674 507 674 638 l 674 197 q 681 100 674 142 q 708 0 687 58 l 482 0 q 467 40 472 23 l 463 50 l 464 46 q 398 9 450 32 q 277 -13 347 -13 m 334 156 q 406 168 376 156 q 448 198 435 181 l 448 313 l 367 313 q 285 290 310 313 q 260 221 260 268 q 277 171 260 186 q 334 156 294 156 m 582 826 l 390 826 l 203 1029 l 431 1029 l 582 826 m 360 826 l 162 826 l -60 1029 l 173 1029 l 360 826 z "},"Ȃ":{"ha":873,"x_min":-10,"x_max":892,"o":"m 542 385 l 441 710 l 339 385 l 542 385 m 892 0 l 663 0 l 597 210 l 284 210 l 219 0 l -10 0 l 329 988 l 552 988 l 892 0 m 440 1319 q 568 1295 513 1319 q 656 1222 624 1271 q 687 1099 687 1174 l 517 1099 q 500 1166 517 1146 q 440 1187 483 1187 q 382 1167 399 1187 q 365 1099 365 1147 l 194 1099 q 226 1222 194 1174 q 313 1295 258 1271 q 440 1319 369 1319 z "},"ȃ":{"ha":728,"x_min":35,"x_max":708,"o":"m 277 -13 q 97 46 159 -13 q 35 215 35 105 q 119 390 35 331 q 367 449 203 449 l 448 449 l 448 508 q 429 572 448 556 q 357 588 410 588 q 292 570 311 588 q 274 502 274 552 l 49 502 q 132 692 49 629 q 369 754 215 754 q 594 696 514 754 q 674 507 674 638 l 674 197 q 681 100 674 142 q 708 0 687 58 l 482 0 q 467 40 472 23 l 463 50 l 464 46 q 398 9 450 32 q 277 -13 347 -13 m 334 156 q 406 168 376 156 q 448 198 435 181 l 448 313 l 367 313 q 285 290 310 313 q 260 221 260 268 q 277 171 260 186 q 334 156 294 156 m 367 1073 q 495 1049 440 1073 q 583 976 551 1024 q 614 853 614 927 l 444 853 q 427 920 444 899 q 367 940 410 940 q 309 920 326 940 q 292 853 292 900 l 122 853 q 153 976 122 927 q 240 1049 185 1024 q 367 1073 296 1073 z "},"Ȅ":{"ha":782,"x_min":-1,"x_max":772,"o":"m 772 0 l 81 0 l 81 988 l 771 988 l 771 813 l 306 813 l 306 597 l 705 597 l 705 423 l 306 423 l 306 174 l 772 174 l 772 0 m 641 1073 l 449 1073 l 262 1276 l 490 1276 l 641 1073 m 419 1073 l 221 1073 l -1 1276 l 232 1276 l 419 1073 z "},"ȅ":{"ha":717,"x_min":-49,"x_max":697,"o":"m 394 -12 q 134 90 229 -12 q 38 350 38 192 l 38 376 q 128 648 38 542 q 374 754 217 754 l 377 754 q 615 664 533 754 q 697 418 697 574 l 697 300 l 267 300 q 311 202 274 242 q 414 161 349 161 q 516 173 477 161 q 623 222 554 185 l 674 69 q 551 8 621 29 q 394 -12 482 -12 m 476 453 q 454 545 476 511 q 377 579 432 579 q 323 562 345 579 q 287 516 300 544 q 270 453 274 488 l 476 453 m 593 826 l 401 826 l 214 1029 l 442 1029 l 593 826 m 371 826 l 173 826 l -49 1029 l 184 1029 l 371 826 z "},"Ȇ":{"ha":782,"x_min":81,"x_max":772,"o":"m 772 0 l 81 0 l 81 988 l 771 988 l 771 813 l 306 813 l 306 597 l 705 597 l 705 423 l 306 423 l 306 174 l 772 174 l 772 0 m 426 1319 q 555 1295 499 1319 q 642 1222 610 1271 q 673 1099 673 1174 l 503 1099 q 486 1166 503 1146 q 426 1187 469 1187 q 368 1167 385 1187 q 351 1099 351 1147 l 181 1099 q 212 1222 181 1174 q 299 1295 244 1271 q 426 1319 355 1319 z "},"ȇ":{"ha":717,"x_min":38,"x_max":697,"o":"m 394 -12 q 134 90 229 -12 q 38 350 38 192 l 38 376 q 128 648 38 542 q 374 754 217 754 l 377 754 q 615 664 533 754 q 697 418 697 574 l 697 300 l 267 300 q 311 202 274 242 q 414 161 349 161 q 516 173 477 161 q 623 222 554 185 l 674 69 q 551 8 621 29 q 394 -12 482 -12 m 476 453 q 454 545 476 511 q 377 579 432 579 q 323 562 345 579 q 287 516 300 544 q 270 453 274 488 l 476 453 m 379 1073 q 507 1049 451 1073 q 594 976 563 1024 q 626 853 626 927 l 456 853 q 439 920 456 899 q 379 940 422 940 q 321 920 338 940 q 303 853 303 900 l 133 853 q 165 976 133 927 q 252 1049 197 1024 q 379 1073 308 1073 z "},"Ȉ":{"ha":408,"x_min":-222,"x_max":420,"o":"m 319 0 l 93 0 l 93 988 l 319 988 l 319 0 m 420 1073 l 228 1073 l 41 1276 l 269 1276 l 420 1073 m 198 1073 l 0 1073 l -222 1276 l 11 1276 l 198 1073 z "},"ȉ":{"ha":379,"x_min":-237,"x_max":404,"o":"m 302 0 l 76 0 l 76 741 l 302 741 l 302 0 m 404 826 l 212 826 l 25 1029 l 253 1029 l 404 826 m 182 826 l -16 826 l -237 1029 l -5 1029 l 182 826 z "},"Ȋ":{"ha":408,"x_min":-40,"x_max":452,"o":"m 319 0 l 93 0 l 93 988 l 319 988 l 319 0 m 206 1319 q 334 1295 278 1319 q 421 1222 390 1271 q 452 1099 452 1174 l 282 1099 q 265 1166 282 1146 q 206 1187 248 1187 q 147 1167 165 1187 q 130 1099 130 1147 l -40 1099 q -9 1222 -40 1174 q 78 1295 23 1271 q 206 1319 134 1319 z "},"ȋ":{"ha":379,"x_min":-56,"x_max":436,"o":"m 302 0 l 76 0 l 76 741 l 302 741 l 302 0 m 190 1073 q 318 1049 262 1073 q 405 976 374 1024 q 436 853 436 927 l 266 853 q 249 920 266 899 q 190 940 232 940 q 131 920 149 940 q 114 853 114 900 l -56 853 q -25 976 -56 927 q 63 1049 7 1024 q 190 1073 118 1073 z "},"Ȍ":{"ha":938,"x_min":44,"x_max":892,"o":"m 472 -13 q 170 106 283 -13 q 56 407 56 224 l 56 581 q 169 883 56 764 q 472 1001 283 1001 q 776 882 661 1001 q 892 581 892 763 l 892 407 q 776 106 892 224 q 472 -13 661 -13 m 472 163 q 578 194 535 163 q 644 281 622 226 q 666 407 666 336 l 666 582 q 643 707 666 653 q 578 792 621 761 q 472 824 535 824 q 366 793 408 824 q 302 707 324 762 q 281 582 281 652 l 281 407 q 303 281 281 336 q 366 194 324 226 q 472 163 408 163 m 685 1073 l 493 1073 l 306 1276 l 534 1276 l 685 1073 m 463 1073 l 265 1073 l 44 1276 l 276 1276 l 463 1073 z "},"ȍ":{"ha":765,"x_min":-42,"x_max":739,"o":"m 385 -12 q 123 92 215 -12 q 31 364 31 196 l 31 377 q 123 649 31 544 q 383 754 215 754 q 646 649 553 754 q 739 377 739 544 l 739 364 q 647 92 739 196 q 385 -12 554 -12 m 385 161 q 459 186 431 161 q 500 257 487 211 q 513 364 513 302 q 506 456 513 418 q 481 526 499 494 q 383 579 450 579 q 310 553 338 579 q 269 482 283 528 q 256 377 256 437 l 256 364 q 286 215 256 269 q 385 161 316 161 m 600 826 l 408 826 l 221 1029 l 449 1029 l 600 826 m 378 826 l 180 826 l -42 1029 l 191 1029 l 378 826 z "},"Ȏ":{"ha":938,"x_min":56,"x_max":892,"o":"m 472 -13 q 170 106 283 -13 q 56 407 56 224 l 56 581 q 169 883 56 764 q 472 1001 283 1001 q 776 882 661 1001 q 892 581 892 763 l 892 407 q 776 106 892 224 q 472 -13 661 -13 m 472 163 q 578 194 535 163 q 644 281 622 226 q 666 407 666 336 l 666 582 q 643 707 666 653 q 578 792 621 761 q 472 824 535 824 q 366 793 408 824 q 302 707 324 762 q 281 582 281 652 l 281 407 q 303 281 281 336 q 366 194 324 226 q 472 163 408 163 m 472 1319 q 600 1295 544 1319 q 687 1222 656 1271 q 718 1099 718 1174 l 548 1099 q 531 1166 548 1146 q 472 1187 514 1187 q 413 1167 431 1187 q 396 1099 396 1147 l 226 1099 q 257 1222 226 1174 q 344 1295 289 1271 q 472 1319 400 1319 z "},"ȏ":{"ha":765,"x_min":31,"x_max":739,"o":"m 385 -12 q 123 92 215 -12 q 31 364 31 196 l 31 377 q 123 649 31 544 q 383 754 215 754 q 646 649 553 754 q 739 377 739 544 l 739 364 q 647 92 739 196 q 385 -12 554 -12 m 385 161 q 459 186 431 161 q 500 257 487 211 q 513 364 513 302 q 506 456 513 418 q 481 526 499 494 q 383 579 450 579 q 310 553 338 579 q 269 482 283 528 q 256 377 256 437 l 256 364 q 286 215 256 269 q 385 161 316 161 m 386 1073 q 514 1049 458 1073 q 601 976 570 1024 q 633 853 633 927 l 463 853 q 445 920 463 899 q 386 940 428 940 q 328 920 345 940 q 310 853 310 900 l 140 853 q 172 976 140 927 q 259 1049 203 1024 q 386 1073 315 1073 z "},"Ȑ":{"ha":883,"x_min":19,"x_max":871,"o":"m 871 0 l 635 0 l 458 374 l 307 374 l 307 0 l 81 0 l 81 988 l 457 988 q 650 955 567 988 q 777 857 732 923 q 823 692 823 791 q 781 532 823 597 q 669 434 739 467 l 871 28 l 871 0 m 457 549 q 598 680 598 549 q 564 777 598 741 q 457 813 531 813 l 307 813 l 307 549 l 457 549 m 660 1073 l 468 1073 l 281 1276 l 509 1276 l 660 1073 m 438 1073 l 240 1073 l 19 1276 l 251 1276 l 438 1073 z "},"ȑ":{"ha":495,"x_min":-145,"x_max":501,"o":"m 288 0 l 63 0 l 63 741 l 273 741 l 278 677 q 424 754 333 753 q 501 742 456 754 l 478 543 l 384 546 q 288 492 313 546 l 288 0 m 497 826 l 304 826 l 117 1029 l 345 1029 l 497 826 m 274 826 l 76 826 l -145 1029 l 88 1029 l 274 826 z "},"Ȓ":{"ha":883,"x_min":81,"x_max":871,"o":"m 871 0 l 635 0 l 458 374 l 307 374 l 307 0 l 81 0 l 81 988 l 457 988 q 650 955 567 988 q 777 857 732 923 q 823 692 823 791 q 781 532 823 597 q 669 434 739 467 l 871 28 l 871 0 m 457 549 q 598 680 598 549 q 564 777 598 741 q 457 813 531 813 l 307 813 l 307 549 l 457 549 m 446 1319 q 574 1295 518 1319 q 661 1222 630 1271 q 692 1099 692 1174 l 522 1099 q 505 1166 522 1146 q 446 1187 488 1187 q 388 1167 405 1187 q 370 1099 370 1147 l 200 1099 q 232 1222 200 1174 q 319 1295 263 1271 q 446 1319 374 1319 z "},"ȓ":{"ha":495,"x_min":36,"x_max":528,"o":"m 288 0 l 63 0 l 63 741 l 273 741 l 278 677 q 424 754 333 753 q 501 742 456 754 l 478 543 l 384 546 q 288 492 313 546 l 288 0 m 282 1073 q 410 1049 354 1073 q 497 976 466 1024 q 528 853 528 927 l 358 853 q 341 920 358 899 q 282 940 324 940 q 224 920 241 940 q 206 853 206 900 l 36 853 q 68 976 36 927 q 155 1049 99 1024 q 282 1073 210 1073 z "},"Ȕ":{"ha":935,"x_min":44,"x_max":874,"o":"m 471 -13 q 179 77 288 -13 q 70 337 70 167 l 70 988 l 297 988 l 297 337 q 471 160 297 160 q 602 203 557 160 q 647 337 647 246 l 647 988 l 874 988 l 874 337 q 764 77 874 167 q 471 -13 653 -13 m 686 1073 l 494 1073 l 307 1276 l 535 1276 l 686 1073 m 464 1073 l 266 1073 l 44 1276 l 277 1276 l 464 1073 z "},"ȕ":{"ha":767,"x_min":-42,"x_max":713,"o":"m 315 -12 q 124 63 190 -12 q 58 297 58 138 l 58 741 l 283 741 l 283 295 q 305 191 283 219 q 371 163 327 163 q 487 212 451 163 l 487 741 l 713 741 l 713 0 l 513 0 l 504 61 q 438 16 492 44 q 315 -12 385 -12 m 600 826 l 408 826 l 221 1029 l 449 1029 l 600 826 m 378 826 l 180 826 l -42 1029 l 191 1029 l 378 826 z "},"Ȗ":{"ha":935,"x_min":70,"x_max":874,"o":"m 471 -13 q 179 77 288 -13 q 70 337 70 167 l 70 988 l 297 988 l 297 337 q 471 160 297 160 q 602 203 557 160 q 647 337 647 246 l 647 988 l 874 988 l 874 337 q 764 77 874 167 q 471 -13 653 -13 m 472 1319 q 600 1295 544 1319 q 688 1222 656 1271 q 719 1099 719 1174 l 549 1099 q 532 1166 549 1146 q 472 1187 515 1187 q 414 1167 431 1187 q 397 1099 397 1147 l 226 1099 q 258 1222 226 1174 q 345 1295 290 1271 q 472 1319 401 1319 z "},"ȗ":{"ha":767,"x_min":58,"x_max":713,"o":"m 315 -12 q 124 63 190 -12 q 58 297 58 138 l 58 741 l 283 741 l 283 295 q 305 191 283 219 q 371 163 327 163 q 487 212 451 163 l 487 741 l 713 741 l 713 0 l 513 0 l 504 61 q 438 16 492 44 q 315 -12 385 -12 m 386 1073 q 514 1049 458 1073 q 601 976 570 1024 q 633 853 633 927 l 463 853 q 445 920 463 899 q 386 940 428 940 q 328 920 345 940 q 310 853 310 900 l 140 853 q 172 976 140 927 q 259 1049 203 1024 q 386 1073 315 1073 z "},"Ș":{"ha":849,"x_min":39,"x_max":818,"o":"m 447 -13 q 160 70 281 -13 q 39 324 39 153 l 265 324 q 311 194 265 228 q 447 159 358 159 q 558 188 523 159 q 592 264 592 217 q 555 348 592 317 q 427 404 517 378 q 158 525 249 456 q 68 720 68 595 q 173 924 68 847 q 443 1001 277 1001 q 715 914 612 1001 q 818 679 818 827 l 592 679 q 440 828 592 828 q 330 798 365 828 q 294 719 294 767 q 337 646 294 674 q 484 586 379 617 q 734 466 649 540 q 818 265 818 392 q 717 60 818 133 q 447 -13 616 -13 m 429 -374 l 310 -308 q 353 -217 341 -258 q 365 -125 365 -176 l 365 -34 l 538 -34 l 538 -116 q 511 -247 538 -179 q 429 -374 485 -315 z "},"ș":{"ha":700,"x_min":24,"x_max":667,"o":"m 351 -12 q 111 63 197 -12 q 24 253 24 139 l 240 253 q 272 166 242 188 q 355 145 301 145 q 447 210 447 145 q 447 210 447 210 q 422 256 447 236 q 315 293 396 276 q 115 373 183 320 q 47 520 47 426 q 129 686 47 619 q 349 754 211 754 q 514 725 442 754 q 625 640 585 697 q 666 499 666 583 l 440 499 q 356 595 440 595 q 354 595 355 595 q 286 576 307 595 q 265 528 265 557 q 288 483 265 501 q 394 449 311 465 q 603 366 538 422 q 667 218 667 310 q 582 51 667 115 q 351 -12 497 -12 m 333 -374 l 214 -308 q 257 -217 245 -258 q 269 -125 269 -176 l 269 -34 l 442 -34 l 442 -116 q 416 -247 442 -179 q 333 -374 390 -315 z "},"Ț":{"ha":860,"x_min":19,"x_max":850,"o":"m 547 0 l 321 0 l 321 813 l 19 813 l 19 988 l 850 988 l 850 813 l 547 813 l 547 0 m 425 -360 l 306 -294 q 349 -203 337 -244 q 361 -111 361 -162 l 361 -20 l 533 -20 l 533 -102 q 507 -233 533 -165 q 425 -360 481 -301 z "},"ț":{"ha":456,"x_min":1,"x_max":455,"o":"m 318 -12 q 151 48 205 -12 q 98 228 98 109 l 98 579 l 1 579 l 1 741 l 98 741 l 98 916 l 323 916 l 323 741 l 446 741 l 446 579 l 323 579 l 323 229 q 335 178 323 192 q 367 165 347 165 q 392 167 381 165 q 437 177 403 168 l 455 14 q 318 -12 390 -12 m 274 -367 l 154 -301 q 198 -210 185 -251 q 210 -118 210 -169 l 210 -27 l 382 -27 l 382 -109 q 356 -240 382 -172 q 274 -367 330 -308 z "},"Ȟ":{"ha":963,"x_min":81,"x_max":891,"o":"m 891 0 l 666 0 l 666 399 l 306 399 l 306 0 l 81 0 l 81 988 l 306 988 l 306 575 l 666 575 l 666 988 l 891 988 l 891 0 m 558 1073 l 413 1073 l 218 1251 l 218 1280 l 407 1280 l 485 1195 l 565 1280 l 753 1280 l 753 1250 l 558 1073 z "},"ȟ":{"ha":767,"x_min":-97,"x_max":713,"o":"m 713 0 l 487 0 l 487 439 q 463 549 487 519 q 387 578 438 578 q 283 534 317 578 l 283 0 l 58 0 l 58 1056 l 283 1056 l 283 683 q 358 734 314 714 q 458 754 402 754 q 647 677 581 754 q 713 438 713 599 l 713 0 m 244 1142 l 98 1142 l -97 1319 l -97 1349 l 92 1349 l 171 1264 l 250 1349 l 439 1349 l 439 1319 l 244 1142 z "},"Ȧ":{"ha":873,"x_min":-10,"x_max":892,"o":"m 542 385 l 441 710 l 339 385 l 542 385 m 892 0 l 663 0 l 597 210 l 284 210 l 219 0 l -10 0 l 329 988 l 552 988 l 892 0 m 557 1057 l 324 1057 l 324 1242 l 557 1242 l 557 1057 z "},"ȧ":{"ha":728,"x_min":35,"x_max":708,"o":"m 277 -13 q 97 46 159 -13 q 35 215 35 105 q 119 390 35 331 q 367 449 203 449 l 448 449 l 448 508 q 429 572 448 556 q 357 588 410 588 q 292 570 311 588 q 274 502 274 552 l 49 502 q 132 692 49 629 q 369 754 215 754 q 594 696 514 754 q 674 507 674 638 l 674 197 q 681 100 674 142 q 708 0 687 58 l 482 0 q 467 40 472 23 l 463 50 l 464 46 q 398 9 450 32 q 277 -13 347 -13 m 334 156 q 406 168 376 156 q 448 198 435 181 l 448 313 l 367 313 q 285 290 310 313 q 260 221 260 268 q 277 171 260 186 q 334 156 294 156 m 484 810 l 251 810 l 251 995 l 484 995 l 484 810 z "},"Ȩ":{"ha":782,"x_min":81,"x_max":772,"o":"m 772 0 l 81 0 l 81 988 l 771 988 l 771 813 l 306 813 l 306 597 l 705 597 l 705 423 l 306 423 l 306 174 l 772 174 l 772 0 m 347 -303 l 342 -169 q 401 -160 386 -169 q 415 -128 415 -151 q 400 -100 415 -108 q 319 -87 385 -92 l 344 30 l 522 30 l 514 -10 q 579 -46 547 -15 q 611 -135 611 -76 q 547 -258 611 -212 q 347 -303 483 -303 z "},"ȩ":{"ha":717,"x_min":38,"x_max":697,"o":"m 394 -12 q 134 90 229 -12 q 38 350 38 192 l 38 376 q 128 648 38 542 q 374 754 217 754 l 377 754 q 615 664 533 754 q 697 418 697 574 l 697 300 l 267 300 q 311 202 274 242 q 414 161 349 161 q 516 173 477 161 q 623 222 554 185 l 674 69 q 551 8 621 29 q 394 -12 482 -12 m 476 453 q 454 545 476 511 q 377 579 432 579 q 323 562 345 579 q 287 516 300 544 q 270 453 274 488 l 476 453 m 326 -303 l 321 -169 q 380 -160 365 -169 q 394 -128 394 -151 q 380 -100 394 -108 q 298 -87 365 -92 l 324 30 l 501 30 l 493 -10 q 558 -46 526 -15 q 590 -135 590 -76 q 526 -258 590 -212 q 326 -303 462 -303 z "},"Ȫ":{"ha":938,"x_min":56,"x_max":892,"o":"m 738 1353 l 222 1353 l 222 1488 l 738 1488 l 738 1353 m 419 1079 l 210 1079 l 210 1240 l 419 1240 l 419 1079 m 749 1079 l 540 1079 l 540 1240 l 749 1240 l 749 1079 m 472 -13 q 170 106 283 -13 q 56 407 56 224 l 56 581 q 169 883 56 764 q 472 1001 283 1001 q 776 882 661 1001 q 892 581 892 763 l 892 407 q 776 106 892 224 q 472 -13 661 -13 m 472 163 q 578 194 535 163 q 644 281 622 226 q 666 407 666 336 l 666 582 q 643 707 666 653 q 578 792 621 761 q 472 824 535 824 q 366 793 408 824 q 302 707 324 762 q 281 582 281 652 l 281 407 q 303 281 281 336 q 366 194 324 226 q 472 163 408 163 z "},"ȫ":{"ha":765,"x_min":31,"x_max":739,"o":"m 644 1117 l 128 1117 l 128 1253 l 644 1253 l 644 1117 m 328 844 l 119 844 l 119 1006 l 328 1006 l 328 844 m 658 844 l 449 844 l 449 1006 l 658 1006 l 658 844 m 385 -12 q 123 92 215 -12 q 31 364 31 196 l 31 377 q 123 649 31 544 q 383 754 215 754 q 646 649 553 754 q 739 377 739 544 l 739 364 q 647 92 739 196 q 385 -12 554 -12 m 385 161 q 459 186 431 161 q 500 257 487 211 q 513 364 513 302 q 506 456 513 418 q 481 526 499 494 q 383 579 450 579 q 310 553 338 579 q 269 482 283 528 q 256 377 256 437 l 256 364 q 286 215 256 269 q 385 161 316 161 z "},"Ȭ":{"ha":938,"x_min":56,"x_max":892,"o":"m 744 1422 l 228 1422 l 228 1558 l 744 1558 l 744 1422 m 756 1318 q 745 1247 756 1281 q 712 1187 733 1213 q 662 1146 691 1161 q 599 1131 633 1131 q 543 1140 567 1131 q 498 1160 519 1149 q 456 1180 477 1171 q 408 1189 434 1189 q 371 1174 386 1189 q 356 1127 356 1159 l 227 1133 q 239 1204 227 1169 q 272 1264 251 1238 q 321 1305 292 1290 q 385 1321 350 1321 q 435 1312 411 1321 q 481 1292 458 1303 q 527 1273 504 1281 q 576 1264 550 1264 q 614 1279 598 1264 q 629 1326 629 1294 l 756 1318 m 472 -13 q 170 106 283 -13 q 56 407 56 224 l 56 581 q 169 883 56 764 q 472 1001 283 1001 q 776 882 661 1001 q 892 581 892 763 l 892 407 q 776 106 892 224 q 472 -13 661 -13 m 472 163 q 578 194 535 163 q 644 281 622 226 q 666 407 666 336 l 666 582 q 643 707 666 653 q 578 792 621 761 q 472 824 535 824 q 366 793 408 824 q 302 707 324 762 q 281 582 281 652 l 281 407 q 303 281 281 336 q 366 194 324 226 q 472 163 408 163 z "},"ȭ":{"ha":765,"x_min":31,"x_max":739,"o":"m 644 1188 l 128 1188 l 128 1323 l 644 1323 l 644 1188 m 666 1083 q 655 1011 666 1045 q 622 951 643 977 q 572 910 601 926 q 508 895 542 895 q 452 905 476 895 q 408 925 428 914 q 365 944 387 935 q 317 953 344 953 q 281 939 296 953 q 265 892 265 924 l 137 898 q 149 968 137 934 q 181 1028 160 1003 q 231 1070 202 1054 q 294 1085 260 1085 q 344 1077 321 1085 q 391 1057 368 1068 q 437 1037 414 1046 q 485 1028 460 1028 q 523 1043 508 1028 q 539 1090 539 1058 l 666 1083 m 385 -12 q 123 92 215 -12 q 31 364 31 196 l 31 377 q 123 649 31 544 q 383 754 215 754 q 646 649 553 754 q 739 377 739 544 l 739 364 q 647 92 739 196 q 385 -12 554 -12 m 385 161 q 459 186 431 161 q 500 257 487 211 q 513 364 513 302 q 506 456 513 418 q 481 526 499 494 q 383 579 450 579 q 310 553 338 579 q 269 482 283 528 q 256 377 256 437 l 256 364 q 286 215 256 269 q 385 161 316 161 z "},"Ȯ":{"ha":938,"x_min":56,"x_max":892,"o":"m 472 -13 q 170 106 283 -13 q 56 407 56 224 l 56 581 q 169 883 56 764 q 472 1001 283 1001 q 776 882 661 1001 q 892 581 892 763 l 892 407 q 776 106 892 224 q 472 -13 661 -13 m 472 163 q 578 194 535 163 q 644 281 622 226 q 666 407 666 336 l 666 582 q 643 707 666 653 q 578 792 621 761 q 472 824 535 824 q 366 793 408 824 q 302 707 324 762 q 281 582 281 652 l 281 407 q 303 281 281 336 q 366 194 324 226 q 472 163 408 163 m 588 1057 l 355 1057 l 355 1242 l 588 1242 l 588 1057 z "},"ȯ":{"ha":765,"x_min":31,"x_max":739,"o":"m 385 -12 q 123 92 215 -12 q 31 364 31 196 l 31 377 q 123 649 31 544 q 383 754 215 754 q 646 649 553 754 q 739 377 739 544 l 739 364 q 647 92 739 196 q 385 -12 554 -12 m 385 161 q 459 186 431 161 q 500 257 487 211 q 513 364 513 302 q 506 456 513 418 q 481 526 499 494 q 383 579 450 579 q 310 553 338 579 q 269 482 283 528 q 256 377 256 437 l 256 364 q 286 215 256 269 q 385 161 316 161 m 502 810 l 269 810 l 269 995 l 502 995 l 502 810 z "},"Ȱ":{"ha":938,"x_min":56,"x_max":892,"o":"m 472 -13 q 170 106 283 -13 q 56 407 56 224 l 56 581 q 169 883 56 764 q 472 1001 283 1001 q 776 882 661 1001 q 892 581 892 763 l 892 407 q 776 106 892 224 q 472 -13 661 -13 m 472 163 q 578 194 535 163 q 644 281 622 226 q 666 407 666 336 l 666 582 q 643 707 666 653 q 578 792 621 761 q 472 824 535 824 q 366 793 408 824 q 302 707 324 762 q 281 582 281 652 l 281 407 q 303 281 281 336 q 366 194 324 226 q 472 163 408 163 m 588 1057 l 355 1057 l 355 1242 l 588 1242 l 588 1057 m 730 1342 l 214 1342 l 214 1478 l 730 1478 l 730 1342 z "},"ȱ":{"ha":765,"x_min":31,"x_max":739,"o":"m 385 -12 q 123 92 215 -12 q 31 364 31 196 l 31 377 q 123 649 31 544 q 383 754 215 754 q 646 649 553 754 q 739 377 739 544 l 739 364 q 647 92 739 196 q 385 -12 554 -12 m 385 161 q 459 186 431 161 q 500 257 487 211 q 513 364 513 302 q 506 456 513 418 q 481 526 499 494 q 383 579 450 579 q 310 553 338 579 q 269 482 283 528 q 256 377 256 437 l 256 364 q 286 215 256 269 q 385 161 316 161 m 502 810 l 269 810 l 269 995 l 502 995 l 502 810 m 644 1096 l 128 1096 l 128 1231 l 644 1231 l 644 1096 z "},"Ȳ":{"ha":856,"x_min":-16,"x_max":880,"o":"m 542 0 l 317 0 l 317 359 l -16 988 l 231 988 l 432 564 l 633 988 l 880 988 l 542 349 l 542 0 m 690 1099 l 174 1099 l 174 1235 l 690 1235 l 690 1099 z "},"ȳ":{"ha":690,"x_min":-16,"x_max":711,"o":"m 160 -288 q 113 -284 135 -288 q 47 -269 90 -280 l 73 -103 l 101 -107 q 124 -110 116 -110 q 186 -95 166 -110 q 221 -37 206 -80 l 241 14 l -16 741 l 226 741 l 345 331 l 468 741 l 711 741 l 415 -97 q 332 -232 388 -176 q 160 -288 276 -288 m 606 853 l 90 853 l 90 988 l 606 988 l 606 853 z "},"ȷ":{"ha":385,"x_min":-72,"x_max":308,"o":"m 40 -288 q -12 -285 11 -288 q -72 -274 -36 -283 l -60 -100 q -12 -111 -28 -108 q 19 -113 4 -113 q 83 -12 83 -113 l 83 741 l 308 741 l 308 -12 q 238 -218 308 -147 q 40 -288 167 -288 z "},"ə":{"ha":717,"x_min":39,"x_max":698,"o":"m 363 -12 l 360 -12 q 121 78 203 -12 q 39 323 39 168 l 39 442 l 469 442 q 424 540 462 499 q 322 581 386 581 q 221 568 260 581 q 115 520 182 556 l 52 663 q 342 756 169 756 q 603 653 508 756 q 698 391 698 551 l 698 365 q 608 93 698 198 q 363 -12 518 -12 m 360 162 q 413 180 390 162 q 449 225 435 197 q 467 288 462 253 l 260 288 q 283 195 260 229 q 360 162 305 162 z "},"ʼ":{"ha":309,"x_min":19,"x_max":271,"o":"m 137 642 l 19 706 q 63 810 50 762 q 76 917 76 858 l 76 1056 l 271 1056 l 271 917 q 238 777 271 850 q 137 642 204 704 z "},"ˆ":{"ha":670,"x_min":76,"x_max":597,"o":"m 597 826 l 430 826 l 334 916 l 240 826 l 76 826 l 76 862 l 272 1029 l 398 1029 l 597 860 l 597 826 z "},"ˇ":{"ha":635,"x_min":51,"x_max":586,"o":"m 391 826 l 245 826 l 51 1004 l 51 1033 l 240 1033 l 318 949 l 397 1033 l 586 1033 l 586 1003 l 391 826 z "},"˘":{"ha":599,"x_min":55,"x_max":547,"o":"m 301 767 q 173 792 228 767 q 86 865 117 816 q 55 988 55 913 l 224 988 q 241 920 224 941 q 301 900 258 900 q 359 920 342 900 q 376 988 376 940 l 547 988 q 515 865 547 913 q 428 792 483 816 q 301 767 372 767 z "},"˙":{"ha":417,"x_min":83,"x_max":316,"o":"m 316 810 l 83 810 l 83 995 l 316 995 l 316 810 z "},"˚":{"ha":451,"x_min":72,"x_max":383,"o":"m 228 731 q 116 769 161 731 q 72 870 72 807 q 116 973 72 932 q 228 1013 160 1013 q 339 972 295 1013 q 383 870 383 931 q 339 768 383 806 q 228 731 294 731 m 228 819 q 260 831 247 819 q 274 870 274 844 q 260 910 274 897 q 228 923 247 923 q 195 910 210 923 q 181 870 181 897 q 195 832 181 844 q 228 819 210 819 z "},"˛":{"ha":408,"x_min":6,"x_max":299,"o":"m 172 -280 q 86 -263 124 -280 q 27 -212 49 -246 q 6 -130 6 -179 q 181 68 6 -10 l 297 15 q 205 -49 228 -24 q 182 -106 182 -74 q 188 -129 182 -122 q 210 -136 194 -136 q 239 -130 224 -136 l 274 -116 l 299 -243 q 239 -271 268 -262 q 172 -280 209 -280 z "},"˜":{"ha":669,"x_min":76,"x_max":606,"o":"m 606 1049 q 594 977 606 1011 q 561 917 583 943 q 511 876 540 892 q 448 861 482 861 q 392 870 416 861 q 347 891 368 880 q 305 910 326 901 q 257 919 283 919 q 220 905 235 919 q 205 858 205 890 l 76 864 q 88 934 76 900 q 121 994 100 969 q 170 1036 142 1020 q 234 1051 199 1051 q 284 1043 260 1051 q 331 1023 308 1034 q 376 1003 353 1012 q 425 994 399 994 q 463 1009 447 994 q 478 1056 478 1024 l 606 1049 z "},"˝":{"ha":571,"x_min":72,"x_max":703,"o":"m 253 826 l 72 826 l 222 1029 l 440 1029 l 253 826 m 481 826 l 294 826 l 479 1029 l 703 1029 l 481 826 z "},"˳":{"ha":440,"x_min":91,"x_max":364,"o":"m 228 -257 q 130 -223 169 -257 q 91 -137 91 -189 q 129 -50 91 -86 q 228 -15 167 -15 q 325 -50 287 -15 q 364 -137 364 -85 q 326 -223 364 -188 q 228 -257 288 -257 m 228 -169 q 248 -161 240 -169 q 256 -137 256 -153 q 248 -112 256 -120 q 228 -103 240 -103 q 208 -112 217 -103 q 199 -137 199 -120 q 208 -160 199 -152 q 228 -169 217 -169 z "},"̀":{"ha":0,"x_min":-569,"x_max":-278,"o":"m -278 790 l -428 790 l -569 1023 l -378 1023 l -278 790 z "},"́":{"ha":0,"x_min":-556,"x_max":-265,"o":"m -407 793 l -556 793 l -456 1027 l -265 1027 l -407 793 z "},"̂":{"ha":0,"x_min":-540,"x_max":-19,"o":"m -19 826 l -187 826 l -283 916 l -376 826 l -540 826 l -540 862 l -344 1029 l -219 1029 l -19 860 l -19 826 z "},"̃":{"ha":0,"x_min":-647,"x_max":-118,"o":"m -118 1049 q -130 977 -118 1011 q -162 917 -141 943 q -212 876 -183 892 q -276 861 -241 861 q -332 870 -308 861 q -376 891 -356 880 q -419 910 -397 901 q -466 919 -440 919 q -503 905 -487 919 q -519 858 -519 890 l -647 864 q -635 934 -647 900 q -603 994 -624 969 q -553 1036 -582 1020 q -489 1051 -524 1051 q -439 1043 -462 1051 q -392 1023 -415 1034 q -347 1003 -369 1012 q -299 994 -324 994 q -261 1009 -277 994 q -245 1056 -245 1024 l -118 1049 z "},"̄":{"ha":0,"x_min":-507,"x_max":9,"o":"m 9 853 l -507 853 l -507 988 l 9 988 l 9 853 z "},"̆":{"ha":0,"x_min":-520,"x_max":-28,"o":"m -274 767 q -402 792 -347 767 q -489 865 -458 816 q -520 988 -520 913 l -351 988 q -334 920 -351 941 q -274 900 -317 900 q -216 920 -233 900 q -199 988 -199 940 l -28 988 q -60 865 -28 913 q -147 792 -92 816 q -274 767 -203 767 z "},"̇":{"ha":0,"x_min":-418,"x_max":-185,"o":"m -185 810 l -418 810 l -418 995 l -185 995 l -185 810 z "},"̈":{"ha":0,"x_min":-527,"x_max":12,"o":"m -318 826 l -527 826 l -527 988 l -318 988 l -318 826 m 12 826 l -197 826 l -197 988 l 12 988 l 12 826 z "},"̉":{"ha":0,"x_min":-524,"x_max":-233,"o":"m -333 835 l -509 835 l -522 951 q -444 960 -458 953 q -429 982 -429 967 q -447 1006 -429 999 q -524 1014 -465 1014 l -517 1128 q -306 1093 -379 1128 q -233 986 -233 1058 q -266 911 -233 938 q -333 880 -299 884 l -333 835 z "},"̊":{"ha":0,"x_min":-465,"x_max":-153,"o":"m -308 731 q -420 769 -376 731 q -465 870 -465 807 q -421 973 -465 932 q -308 1013 -376 1013 q -198 972 -242 1013 q -153 870 -153 931 q -198 768 -153 806 q -308 731 -242 731 m -308 819 q -276 831 -290 819 q -263 870 -263 844 q -276 910 -263 897 q -308 923 -290 923 q -342 910 -327 923 q -356 870 -356 897 q -342 832 -356 844 q -308 819 -327 819 z "},"̋":{"ha":0,"x_min":-520,"x_max":111,"o":"m -338 826 l -520 826 l -369 1029 l -151 1029 l -338 826 m -110 826 l -298 826 l -112 1029 l 111 1029 l -110 826 z "},"̌":{"ha":0,"x_min":-540,"x_max":-5,"o":"m -200 826 l -346 826 l -540 1004 l -540 1033 l -351 1033 l -273 949 l -194 1033 l -5 1033 l -5 1003 l -200 826 z "},"̏":{"ha":0,"x_min":-750,"x_max":-108,"o":"m -108 826 l -301 826 l -487 1029 l -260 1029 l -108 826 m -331 826 l -528 826 l -750 1029 l -517 1029 l -331 826 z "},"̐":{"ha":0,"x_min":-730,"x_max":-238,"o":"m -484 767 q -612 792 -556 767 q -699 865 -667 816 q -730 988 -730 913 l -560 988 q -543 920 -560 941 q -484 900 -526 900 q -426 920 -443 900 q -408 988 -408 940 l -238 988 q -270 865 -238 913 q -357 792 -301 816 q -484 767 -412 767 m -367 988 l -601 988 l -601 1172 l -367 1172 l -367 988 z "},"̑":{"ha":0,"x_min":-520,"x_max":-28,"o":"m -274 1073 q -146 1049 -202 1073 q -59 976 -90 1024 q -28 853 -28 927 l -198 853 q -215 920 -198 899 q -274 940 -232 940 q -333 920 -315 940 q -350 853 -350 900 l -520 853 q -489 976 -520 927 q -401 1049 -457 1024 q -274 1073 -346 1073 z "},"̓":{"ha":0,"x_min":-383,"x_max":-131,"o":"m -265 642 l -383 706 q -339 810 -352 762 q -326 917 -326 858 l -326 1056 l -131 1056 l -131 917 q -165 777 -131 850 q -265 642 -198 704 z "},"̕":{"ha":343,"x_min":34,"x_max":286,"o":"m 152 637 l 34 701 q 78 805 65 757 q 92 913 92 853 l 92 1051 l 286 1051 l 286 913 q 253 772 286 845 q 152 637 219 699 z "},"̛":{"ha":0,"x_min":-144,"x_max":108,"o":"m -26 534 l -144 599 q -99 702 -112 654 q -86 810 -86 751 l -86 949 l 108 949 l 108 810 q 75 669 108 742 q -26 534 42 597 z "},"̣":{"ha":0,"x_min":-539,"x_max":-290,"o":"m -290 -233 l -539 -233 l -539 -49 l -290 -49 l -290 -233 z "},"̤":{"ha":0,"x_min":-479,"x_max":60,"o":"m -270 -269 l -479 -269 l -479 -108 l -270 -108 l -270 -269 m 60 -269 l -149 -269 l -149 -108 l 60 -108 l 60 -269 z "},"̥":{"ha":0,"x_min":-410,"x_max":-99,"o":"m -253 -350 q -366 -312 -321 -350 q -410 -210 -410 -274 q -366 -108 -410 -149 q -253 -67 -322 -67 q -143 -108 -187 -67 q -99 -210 -99 -149 q -143 -312 -99 -274 q -253 -350 -187 -350 m -253 -262 q -222 -249 -235 -262 q -208 -210 -208 -237 q -222 -171 -208 -184 q -253 -158 -235 -158 q -287 -171 -272 -158 q -301 -210 -301 -184 q -287 -249 -301 -236 q -253 -262 -272 -262 z "},"̦":{"ha":0,"x_min":-363,"x_max":-178,"o":"m -281 -351 l -363 -306 q -323 -159 -323 -240 l -323 -49 l -178 -49 l -178 -152 q -206 -255 -178 -201 q -281 -351 -233 -308 z "},"̧":{"ha":0,"x_min":-410,"x_max":-118,"o":"m -382 -303 l -387 -169 q -328 -160 -343 -169 q -314 -128 -314 -151 q -329 -100 -314 -108 q -410 -87 -344 -92 l -385 30 l -207 30 l -215 -10 q -150 -46 -183 -15 q -118 -135 -118 -76 q -182 -258 -118 -212 q -382 -303 -247 -303 z "},"̨":{"ha":0,"x_min":-219,"x_max":74,"o":"m -53 -280 q -138 -263 -101 -280 q -197 -212 -176 -246 q -219 -130 -219 -179 q -44 68 -219 -10 l 73 15 q -19 -49 4 -24 q -42 -106 -42 -74 q -36 -129 -42 -122 q -15 -136 -30 -136 q 15 -130 -1 -136 l 50 -116 l 74 -243 q 14 -271 44 -262 q -53 -280 -15 -280 z "},"̬":{"ha":0,"x_min":-519,"x_max":16,"o":"m -179 -292 l -325 -292 l -519 -115 l -519 -85 l -331 -85 l -252 -170 l -173 -85 l 16 -85 l 16 -115 l -179 -292 z "},"̭":{"ha":0,"x_min":-520,"x_max":1,"o":"m 1 -290 l -167 -290 l -262 -201 l -356 -290 l -520 -290 l -520 -255 l -324 -87 l -199 -87 l 1 -256 l 1 -290 z "},"̮":{"ha":0,"x_min":-520,"x_max":-28,"o":"m -274 -299 q -402 -275 -347 -299 q -489 -202 -458 -251 q -520 -79 -520 -153 l -351 -79 q -334 -146 -351 -126 q -274 -167 -317 -167 q -216 -147 -233 -167 q -199 -79 -199 -126 l -28 -79 q -60 -202 -28 -153 q -147 -275 -92 -251 q -274 -299 -203 -299 z "},"̯":{"ha":0,"x_min":-520,"x_max":-28,"o":"m -274 -79 q -146 -103 -202 -79 q -59 -176 -90 -128 q -28 -299 -28 -225 l -198 -299 q -215 -232 -198 -253 q -274 -212 -232 -212 q -333 -232 -315 -212 q -350 -299 -350 -252 l -520 -299 q -489 -176 -520 -225 q -401 -103 -457 -128 q -274 -79 -346 -79 z "},"̰":{"ha":0,"x_min":-508,"x_max":21,"o":"m 21 -65 q 9 -136 21 -102 q -23 -196 -2 -170 q -74 -237 -44 -222 q -137 -252 -103 -252 q -193 -243 -169 -252 q -237 -222 -217 -233 q -280 -203 -258 -212 q -328 -194 -301 -194 q -365 -209 -349 -194 q -380 -256 -380 -224 l -508 -249 q -497 -179 -508 -213 q -464 -119 -485 -144 q -414 -77 -443 -93 q -351 -62 -385 -62 q -301 -70 -324 -62 q -254 -90 -277 -79 q -208 -110 -231 -101 q -160 -119 -185 -119 q -122 -104 -137 -119 q -106 -57 -106 -89 l 21 -65 z "},"̱":{"ha":0,"x_min":-507,"x_max":9,"o":"m 9 -257 l -507 -257 l -507 -122 l 9 -122 l 9 -257 z "},"΄":{"ha":461,"x_min":142,"x_max":422,"o":"m 269 839 l 142 839 l 199 1106 l 422 1106 l 269 839 z "},"΅":{"ha":742,"x_min":88,"x_max":651,"o":"m 420 923 l 293 923 l 324 1164 l 550 1164 l 420 923 m 651 826 l 460 826 l 460 988 l 651 988 l 651 826 m 278 826 l 88 826 l 88 988 l 278 988 l 278 826 z "},"Ά":{"ha":873,"x_min":-10,"x_max":892,"o":"m 542 385 l 441 710 l 339 385 l 542 385 m 892 0 l 663 0 l 597 210 l 284 210 l 219 0 l -10 0 l 329 988 l 552 988 l 892 0 m 181 839 l 54 839 l 111 1106 l 334 1106 l 181 839 z "},"·":{"ha":411,"x_min":92,"x_max":317,"o":"m 317 375 l 92 375 l 92 574 l 317 574 l 317 375 z "},"Έ":{"ha":875,"x_min":-110,"x_max":841,"o":"m 841 0 l 149 0 l 149 988 l 840 988 l 840 813 l 375 813 l 375 597 l 774 597 l 774 423 l 375 423 l 375 174 l 841 174 l 841 0 m 17 840 l -110 840 l -53 1107 l 169 1107 l 17 840 z "},"Ή":{"ha":1060,"x_min":-83,"x_max":960,"o":"m 960 0 l 735 0 l 735 399 l 375 399 l 375 0 l 149 0 l 149 988 l 375 988 l 375 575 l 735 575 l 735 988 l 960 988 l 960 0 m 44 838 l -83 838 l -26 1105 l 197 1105 l 44 838 z "},"Ί":{"ha":485,"x_min":-76,"x_max":388,"o":"m 388 0 l 162 0 l 162 988 l 388 988 l 388 0 m 51 840 l -76 840 l -19 1107 l 203 1107 l 51 840 z "},"Ό":{"ha":983,"x_min":-21,"x_max":906,"o":"m 106 839 l -21 839 l 36 1106 l 259 1106 l 106 839 m 485 -13 q 184 106 297 -13 q 70 407 70 224 l 70 581 q 183 883 70 764 q 485 1001 297 1001 q 790 882 675 1001 q 906 581 906 763 l 906 407 q 790 106 906 224 q 485 -13 675 -13 m 485 163 q 592 194 549 163 q 658 281 635 226 q 680 407 680 336 l 680 582 q 657 707 680 653 q 592 792 635 761 q 485 824 549 824 q 380 793 422 824 q 316 707 338 762 q 295 582 295 652 l 295 407 q 317 281 295 336 q 380 194 338 226 q 485 163 422 163 z "},"Ύ":{"ha":957,"x_min":-147,"x_max":949,"o":"m -20 839 l -147 839 l -90 1106 l 133 1106 l 65 988 l 300 988 l 501 564 l 701 988 l 949 988 l 611 349 l 611 0 l 385 0 l 385 359 l 58 976 l -20 839 z "},"Ώ":{"ha":956,"x_min":-34,"x_max":866,"o":"m 93 839 l -34 839 l 23 1106 l 246 1106 l 93 839 m 856 0 l 489 0 l 489 174 q 620 518 619 217 l 620 580 q 580 765 620 706 q 468 824 540 824 q 359 765 399 824 q 318 580 318 706 l 318 518 q 350 282 318 367 q 453 174 383 198 l 453 0 l 88 0 l 88 176 l 226 176 q 148 266 183 214 q 93 382 113 318 q 73 518 73 447 l 73 578 q 181 884 73 767 q 469 1001 289 1001 q 757 884 648 1001 q 866 578 866 767 l 866 518 q 817 312 866 407 q 714 176 774 230 l 856 176 l 856 0 z "},"ΐ":{"ha":456,"x_min":-92,"x_max":472,"o":"m 241 879 l 114 879 l 145 1120 l 371 1120 l 241 879 m 472 783 l 281 783 l 281 944 l 472 944 l 472 783 m 99 783 l -92 783 l -92 944 l 99 944 l 99 783 m 310 -13 q 79 228 81 -13 l 79 740 l 305 740 l 305 225 q 316 174 305 186 q 349 163 326 163 q 376 165 366 163 q 428 179 385 167 l 451 15 q 380 -7 410 -1 q 310 -13 350 -13 z "},"Α":{"ha":873,"x_min":-10,"x_max":892,"o":"m 542 385 l 441 710 l 339 385 l 542 385 m 892 0 l 663 0 l 597 210 l 284 210 l 219 0 l -10 0 l 329 988 l 552 988 l 892 0 z "},"Β":{"ha":874,"x_min":81,"x_max":834,"o":"m 473 0 l 81 0 l 81 988 l 428 988 q 624 959 541 988 q 752 870 707 931 q 798 710 798 809 q 768 593 798 643 q 686 517 738 542 q 797 430 759 492 q 834 293 834 368 q 790 127 834 192 q 666 31 747 63 q 473 0 585 0 m 435 585 q 538 611 503 585 q 572 696 572 637 q 539 786 572 758 q 428 813 506 813 l 306 813 l 306 585 l 435 585 m 473 174 q 608 294 608 174 q 578 395 608 364 q 484 426 547 426 l 306 426 l 306 174 l 473 174 z "},"Γ":{"ha":759,"x_min":81,"x_max":740,"o":"m 306 0 l 81 0 l 81 988 l 740 988 l 740 813 l 306 813 l 306 0 z "},"Δ":{"ha":985,"x_min":-3,"x_max":1002,"o":"m 700 174 l 502 705 l 299 174 l 700 174 m 1002 0 l -3 0 l 392 988 l 613 988 l 1002 0 z "},"∆":{"ha":985,"x_min":-3,"x_max":1002,"o":"m 700 174 l 502 705 l 299 174 l 700 174 m 1002 0 l -3 0 l 392 988 l 613 988 l 1002 0 z "},"Ε":{"ha":782,"x_min":81,"x_max":772,"o":"m 772 0 l 81 0 l 81 988 l 771 988 l 771 813 l 306 813 l 306 597 l 705 597 l 705 423 l 306 423 l 306 174 l 772 174 l 772 0 z "},"Ζ":{"ha":800,"x_min":40,"x_max":776,"o":"m 776 0 l 40 0 l 40 117 l 486 813 l 41 813 l 41 988 l 765 988 l 765 874 l 317 174 l 776 174 l 776 0 z "},"Η":{"ha":963,"x_min":81,"x_max":891,"o":"m 891 0 l 666 0 l 666 399 l 306 399 l 306 0 l 81 0 l 81 988 l 306 988 l 306 575 l 666 575 l 666 988 l 891 988 l 891 0 z "},"Θ":{"ha":935,"x_min":49,"x_max":884,"o":"m 465 -13 q 163 106 276 -13 q 49 407 49 224 l 49 581 q 162 883 49 764 q 464 1001 275 1001 q 769 882 653 1001 q 884 581 884 763 l 884 407 q 769 106 884 224 q 465 -13 654 -13 m 465 163 q 571 194 528 163 q 636 281 614 226 q 658 407 658 336 l 658 582 q 636 707 658 653 q 571 793 614 761 q 464 824 528 824 q 358 793 401 824 q 295 707 316 762 q 274 582 274 652 l 274 407 q 295 281 274 336 q 359 194 317 226 q 465 163 401 163 m 617 405 l 333 405 l 333 579 l 617 579 l 617 405 z "},"Ι":{"ha":408,"x_min":93,"x_max":319,"o":"m 319 0 l 93 0 l 93 988 l 319 988 l 319 0 z "},"Κ":{"ha":876,"x_min":81,"x_max":918,"o":"m 918 0 l 633 0 l 376 385 l 306 303 l 306 0 l 81 0 l 81 988 l 306 988 l 306 602 l 610 988 l 886 988 l 531 564 l 918 0 z "},"Λ":{"ha":877,"x_min":-5,"x_max":889,"o":"m 889 0 l 651 0 l 442 713 l 233 0 l -5 0 l 330 988 l 553 988 l 889 0 z "},"Μ":{"ha":1184,"x_min":81,"x_max":1114,"o":"m 1114 0 l 888 0 l 888 300 l 902 632 l 674 0 l 519 0 l 292 628 l 306 300 l 306 0 l 81 0 l 81 988 l 361 988 l 597 310 l 832 988 l 1114 988 l 1114 0 z "},"Ν":{"ha":963,"x_min":81,"x_max":891,"o":"m 891 0 l 672 0 l 306 618 l 306 0 l 81 0 l 81 988 l 301 988 l 666 370 l 666 988 l 891 988 l 891 0 z "},"Ξ":{"ha":773,"x_min":55,"x_max":735,"o":"m 708 813 l 69 813 l 69 988 l 708 988 l 708 813 m 735 0 l 55 0 l 55 174 l 735 174 l 735 0 m 661 417 l 129 417 l 129 588 l 661 588 l 661 417 z "},"Ο":{"ha":938,"x_min":56,"x_max":892,"o":"m 472 -13 q 170 106 283 -13 q 56 407 56 224 l 56 581 q 169 883 56 764 q 472 1001 283 1001 q 776 882 661 1001 q 892 581 892 763 l 892 407 q 776 106 892 224 q 472 -13 661 -13 m 472 163 q 578 194 535 163 q 644 281 622 226 q 666 407 666 336 l 666 582 q 643 707 666 653 q 578 792 621 761 q 472 824 535 824 q 366 793 408 824 q 302 707 324 762 q 281 582 281 652 l 281 407 q 303 281 281 336 q 366 194 324 226 q 472 163 408 163 z "},"Π":{"ha":963,"x_min":81,"x_max":892,"o":"m 892 0 l 666 0 l 666 813 l 306 813 l 306 0 l 81 0 l 81 988 l 892 988 l 892 0 z "},"Ρ":{"ha":885,"x_min":81,"x_max":852,"o":"m 306 0 l 81 0 l 81 988 l 480 988 q 754 900 656 988 q 852 668 852 813 q 755 435 852 522 q 480 349 657 349 l 306 349 l 306 0 m 480 524 q 565 542 532 524 q 612 592 597 560 q 627 667 627 624 q 612 742 627 709 q 564 794 597 774 q 480 813 531 813 l 306 813 l 306 524 l 480 524 z "},"Σ":{"ha":772,"x_min":37,"x_max":752,"o":"m 752 0 l 37 0 l 37 117 l 326 498 l 37 872 l 37 988 l 734 988 l 734 813 l 340 813 l 566 506 l 566 488 l 338 175 l 752 175 l 752 0 z "},"Τ":{"ha":860,"x_min":19,"x_max":850,"o":"m 547 0 l 321 0 l 321 813 l 19 813 l 19 988 l 850 988 l 850 813 l 547 813 l 547 0 z "},"Υ":{"ha":856,"x_min":-16,"x_max":880,"o":"m 542 0 l 317 0 l 317 359 l -16 988 l 231 988 l 432 564 l 633 988 l 880 988 l 542 349 l 542 0 z "},"Φ":{"ha":1038,"x_min":38,"x_max":1015,"o":"m 640 0 l 415 0 l 415 111 q 145 216 252 115 q 38 487 38 318 q 145 764 38 659 q 415 872 252 869 l 415 988 l 640 988 l 640 872 q 908 764 801 867 q 1015 488 1015 660 q 908 218 1015 320 q 640 111 801 115 l 640 0 m 640 295 q 748 347 703 298 q 792 488 792 395 q 748 635 792 585 q 640 689 703 685 l 640 295 m 415 295 l 415 689 q 305 635 349 685 q 260 487 260 585 q 305 346 260 394 q 415 295 349 298 z "},"Χ":{"ha":861,"x_min":-6,"x_max":875,"o":"m 875 0 l 606 0 l 431 326 l 256 0 l -6 0 l 294 499 l 1 988 l 262 988 l 428 669 l 597 988 l 858 988 l 566 499 l 875 0 z "},"Ψ":{"ha":981,"x_min":26,"x_max":961,"o":"m 608 0 l 383 0 l 383 253 q 124 372 223 267 q 26 660 26 478 l 26 988 l 251 988 l 251 660 q 290 501 251 558 q 383 434 329 444 l 383 988 l 608 988 l 608 433 q 698 498 662 443 q 735 660 735 553 l 735 988 l 961 988 l 961 660 q 864 376 961 481 q 608 254 767 272 l 608 0 z "},"Ω":{"ha":914,"x_min":59,"x_max":852,"o":"m 842 0 l 475 0 l 475 174 q 606 518 606 217 l 606 580 q 566 765 606 706 q 454 824 526 824 q 345 765 385 824 q 304 580 304 706 l 304 518 q 336 282 304 367 q 440 174 369 198 l 440 0 l 74 0 l 74 176 l 212 176 q 134 266 169 214 q 79 382 99 318 q 59 518 59 447 l 59 578 q 167 884 59 767 q 455 1001 275 1001 q 743 884 634 1001 q 852 578 852 767 l 852 518 q 803 312 852 407 q 700 176 760 230 l 842 176 l 842 0 z "},"Ω":{"ha":914,"x_min":59,"x_max":852,"o":"m 842 0 l 475 0 l 475 174 q 606 518 606 217 l 606 580 q 566 765 606 706 q 454 824 526 824 q 345 765 385 824 q 304 580 304 706 l 304 518 q 336 282 304 367 q 440 174 369 198 l 440 0 l 74 0 l 74 176 l 212 176 q 134 266 169 214 q 79 382 99 318 q 59 518 59 447 l 59 578 q 167 884 59 767 q 455 1001 275 1001 q 743 884 634 1001 q 852 578 852 767 l 852 518 q 803 312 852 407 q 700 176 760 230 l 842 176 l 842 0 z "},"Ϊ":{"ha":408,"x_min":-68,"x_max":471,"o":"m 319 0 l 93 0 l 93 988 l 319 988 l 319 0 m 141 1065 l -68 1065 l -68 1226 l 141 1226 l 141 1065 m 471 1065 l 263 1065 l 263 1226 l 471 1226 l 471 1065 z "},"Ϋ":{"ha":856,"x_min":-16,"x_max":880,"o":"m 542 0 l 317 0 l 317 359 l -16 988 l 231 988 l 432 564 l 633 988 l 880 988 l 542 349 l 542 0 m 382 1065 l 173 1065 l 173 1226 l 382 1226 l 382 1065 m 712 1065 l 503 1065 l 503 1226 l 712 1226 l 712 1065 z "},"ά":{"ha":762,"x_min":35,"x_max":779,"o":"m 456 807 l 329 807 l 386 1074 l 609 1074 l 456 807 m 679 -13 q 566 16 610 -13 q 510 72 521 44 q 447 16 495 46 q 329 -13 398 -13 q 110 85 185 -13 q 52 208 69 140 q 35 365 35 276 q 111 647 35 540 q 331 754 187 754 q 439 727 393 754 q 494 686 484 700 l 503 740 l 701 740 l 701 241 q 709 180 701 194 q 732 165 718 165 q 760 175 736 166 l 779 9 q 727 -9 749 -5 q 679 -13 706 -13 m 379 160 q 476 217 449 160 l 476 519 q 381 579 444 579 q 312 552 338 579 q 273 477 285 525 q 261 365 261 428 l 261 351 q 289 209 261 257 q 379 160 317 160 z "},"έ":{"ha":755,"x_min":51,"x_max":729,"o":"m 433 806 l 306 806 l 363 1073 l 586 1073 l 433 806 m 399 -12 q 148 47 245 -12 q 51 216 51 107 q 88 325 51 281 q 163 383 124 369 q 97 437 131 395 q 63 533 63 479 q 154 697 63 640 q 399 753 245 753 q 626 691 535 753 q 717 509 717 629 l 492 509 q 465 570 492 552 q 389 588 438 588 q 312 567 335 588 q 288 519 288 547 q 390 453 288 455 l 529 453 l 529 303 l 390 303 q 302 284 328 303 q 276 228 276 265 q 302 175 276 197 q 388 153 329 153 q 476 175 449 153 q 504 238 504 197 l 729 238 q 632 47 729 106 q 399 -12 534 -12 z "},"ή":{"ha":767,"x_min":59,"x_max":713,"o":"m 428 807 l 301 807 l 358 1074 l 581 1074 l 428 807 m 713 -274 l 486 -274 l 486 450 q 465 550 486 521 q 396 579 444 579 q 285 530 320 579 l 285 0 l 59 0 l 59 741 l 271 741 l 277 672 q 357 731 309 708 q 467 754 406 754 q 650 683 587 754 q 713 451 713 611 l 713 -274 z "},"ί":{"ha":456,"x_min":79,"x_max":451,"o":"m 237 792 l 110 792 l 167 1058 l 390 1058 l 237 792 m 310 -13 q 79 228 81 -13 l 79 740 l 305 740 l 305 225 q 316 174 305 186 q 349 163 326 163 q 376 165 366 163 q 428 179 385 167 l 451 15 q 380 -7 410 -1 q 310 -13 350 -13 z "},"ΰ":{"ha":741,"x_min":63,"x_max":708,"o":"m 436 879 l 309 879 l 340 1120 l 566 1120 l 436 879 m 667 783 l 476 783 l 476 944 l 667 944 l 667 783 m 294 783 l 103 783 l 103 944 l 294 944 l 294 783 m 361 -13 q 201 19 268 -13 q 99 117 135 51 q 63 290 63 184 l 63 741 l 289 741 l 289 289 q 308 188 289 216 q 355 160 326 160 q 448 227 412 160 q 483 388 483 293 q 412 741 481 551 l 628 741 q 689 572 669 658 q 708 388 708 485 q 624 97 708 208 q 361 -13 539 -13 z "},"α":{"ha":762,"x_min":36,"x_max":780,"o":"m 680 -13 q 566 16 611 -13 q 511 72 522 44 q 447 16 496 46 q 330 -13 399 -13 q 111 85 186 -13 q 53 208 69 140 q 36 365 36 276 q 112 647 36 540 q 331 754 188 754 q 439 727 394 754 q 495 686 485 700 l 503 740 l 701 740 l 701 241 q 710 180 701 194 q 733 165 719 165 q 760 175 737 166 l 780 9 q 728 -9 749 -5 q 680 -13 707 -13 m 380 160 q 476 217 449 160 l 476 519 q 381 579 445 579 q 313 552 339 579 q 274 477 286 525 q 262 365 262 428 l 262 351 q 290 209 262 257 q 380 160 318 160 z "},"β":{"ha":817,"x_min":83,"x_max":788,"o":"m 308 -265 l 83 -265 l 83 698 q 180 917 83 833 q 419 1001 276 1001 q 590 970 516 1001 q 706 878 664 939 q 747 728 747 818 q 712 602 747 658 q 638 526 677 547 q 743 442 698 506 q 788 288 788 378 q 750 121 788 188 q 641 21 711 54 q 477 -12 571 -12 q 376 -1 424 -12 q 308 24 328 11 l 308 -265 m 434 161 q 530 197 497 161 q 563 290 563 233 q 529 396 563 360 q 438 431 496 431 l 358 431 l 358 594 l 417 594 q 495 622 469 594 q 522 715 522 651 q 496 794 522 762 q 419 826 471 826 q 340 794 372 826 q 308 698 308 762 l 308 194 q 358 170 326 180 q 434 161 391 161 z "},"γ":{"ha":690,"x_min":-8,"x_max":705,"o":"m 460 -276 l 235 -276 l 235 25 l -8 741 l 228 741 l 350 288 l 469 741 l 705 741 l 460 21 l 460 -276 z "},"δ":{"ha":764,"x_min":33,"x_max":745,"o":"m 390 -12 q 126 89 220 -12 q 33 350 33 190 q 46 464 33 414 q 93 560 59 513 q 226 662 148 637 q 146 732 178 688 q 115 840 115 776 q 193 1005 115 947 q 413 1064 272 1064 q 632 1002 513 1064 l 597 853 q 501 886 542 876 q 419 897 460 897 q 351 882 373 897 q 330 844 330 867 q 348 803 330 824 q 424 762 367 783 q 669 606 592 703 q 745 371 745 508 l 745 358 q 651 91 745 194 q 390 -12 558 -12 m 390 160 q 463 187 433 160 q 506 260 492 214 q 520 366 520 306 q 513 441 520 408 q 482 508 505 474 q 388 579 444 567 q 315 553 344 579 q 272 482 287 527 q 258 379 258 438 l 258 366 q 272 260 258 306 q 315 187 286 214 q 390 160 344 160 z "},"ε":{"ha":755,"x_min":51,"x_max":730,"o":"m 399 -12 q 149 47 246 -12 q 51 216 51 107 q 88 325 51 281 q 163 383 125 369 q 98 437 132 395 q 64 533 64 479 q 155 697 64 640 q 399 753 246 753 q 627 691 535 753 q 718 509 718 629 l 492 509 q 465 570 492 552 q 390 588 438 588 q 313 567 336 588 q 289 519 289 547 q 390 453 289 455 l 530 453 l 530 303 l 390 303 q 302 284 328 303 q 276 228 276 265 q 303 175 276 197 q 389 153 330 153 q 477 175 449 153 q 505 238 505 197 l 730 238 q 632 47 730 106 q 399 -12 535 -12 z "},"ζ":{"ha":678,"x_min":38,"x_max":660,"o":"m 469 -259 l 350 -172 q 402 -105 389 -130 q 415 -57 415 -79 q 403 -28 415 -40 q 353 -6 390 -16 l 305 6 q 121 100 177 39 q 65 265 65 160 q 109 463 65 369 q 247 672 153 556 l 368 814 l 38 814 l 38 988 l 660 988 l 660 864 l 419 579 q 318 434 347 494 q 290 292 290 374 q 311 213 290 235 q 384 175 331 189 q 510 134 462 152 q 592 93 559 117 q 639 -17 639 60 q 639 -19 639 -17 l 639 -22 q 590 -145 639 -80 q 469 -259 541 -211 z "},"η":{"ha":767,"x_min":60,"x_max":714,"o":"m 714 -274 l 487 -274 l 487 450 q 466 550 487 521 q 397 579 444 579 q 285 530 321 579 l 285 0 l 60 0 l 60 741 l 272 741 l 278 672 q 358 731 310 708 q 467 754 406 754 q 651 683 588 754 q 714 451 714 611 l 714 -274 z "},"θ":{"ha":801,"x_min":63,"x_max":747,"o":"m 406 -13 q 153 88 244 -13 q 63 388 63 189 l 63 599 q 106 827 63 738 q 225 959 148 916 q 404 1001 301 1001 q 656 899 565 1001 q 747 599 747 797 l 747 388 q 704 160 747 249 q 584 29 661 72 q 406 -13 508 -13 m 522 581 l 522 619 q 491 779 522 732 q 404 826 460 826 q 318 780 347 826 q 288 619 288 733 l 288 581 l 522 581 m 406 160 q 492 207 462 160 q 522 369 522 253 l 522 411 l 288 411 l 288 369 q 318 208 288 255 q 406 160 348 160 z "},"ι":{"ha":456,"x_min":80,"x_max":452,"o":"m 310 -13 q 80 228 81 -13 l 80 740 l 306 740 l 306 225 q 316 174 306 186 q 350 163 327 163 q 376 165 367 163 q 428 179 386 167 l 452 15 q 381 -7 410 -1 q 310 -13 351 -13 z "},"κ":{"ha":801,"x_min":74,"x_max":808,"o":"m 808 0 l 522 0 l 351 268 l 300 268 l 300 0 l 74 0 l 74 741 l 300 741 l 300 469 l 331 469 l 515 741 l 797 741 l 533 393 l 808 0 z "},"λ":{"ha":740,"x_min":-14,"x_max":756,"o":"m 667 -11 q 531 24 582 -11 q 453 143 480 60 l 356 413 l 228 0 l -14 0 l 242 710 l 197 811 q 130 862 178 862 q 128 862 129 862 l 108 862 l 74 857 l 69 1019 q 196 1037 128 1035 q 385 917 340 1037 l 663 224 q 715 165 683 165 q 716 165 715 165 q 755 167 728 165 l 756 -5 q 667 -11 709 -11 z "},"μ":{"ha":840,"x_min":81,"x_max":753,"o":"m 306 -275 l 81 -275 l 81 741 l 306 741 l 306 318 q 332 192 306 222 q 409 163 358 163 q 527 223 497 163 l 527 741 l 753 741 l 753 0 l 541 0 l 539 24 q 494 2 533 18 q 404 -13 454 -13 q 337 -6 367 -13 l 306 1 l 306 -275 z "},"ν":{"ha":690,"x_min":-9,"x_max":704,"o":"m 453 0 l 243 0 l -9 741 l 228 741 l 349 288 l 468 741 l 704 741 l 453 0 z "},"ξ":{"ha":722,"x_min":57,"x_max":699,"o":"m 528 -264 l 408 -175 q 461 -109 449 -133 q 474 -64 474 -85 l 474 -58 q 462 -29 474 -40 q 413 -10 451 -18 l 389 -3 q 138 97 219 31 q 57 310 57 163 q 110 474 57 408 q 234 560 156 532 q 152 622 185 583 q 113 737 113 669 q 202 932 113 862 q 445 1001 291 1001 q 555 993 510 1001 q 664 964 600 985 l 628 794 q 526 818 553 813 q 467 824 500 824 q 369 801 400 824 q 338 740 338 779 q 369 674 338 697 q 471 651 399 651 l 588 651 l 588 471 l 476 471 q 330 433 377 471 q 282 314 282 394 q 320 219 282 252 q 430 169 359 185 l 494 156 q 648 94 598 132 q 699 -26 699 57 q 649 -149 698 -83 q 528 -264 600 -214 z "},"ο":{"ha":765,"x_min":31,"x_max":739,"o":"m 385 -12 q 123 92 215 -12 q 31 364 31 196 l 31 377 q 123 649 31 544 q 383 754 215 754 q 646 649 553 754 q 739 377 739 544 l 739 364 q 647 92 739 196 q 385 -12 554 -12 m 385 161 q 459 186 431 161 q 500 257 487 211 q 513 364 513 302 q 506 456 513 418 q 481 526 499 494 q 383 579 450 579 q 310 553 338 579 q 269 482 283 528 q 256 377 256 437 l 256 364 q 286 215 256 269 q 385 161 316 161 z "},"π":{"ha":877,"x_min":40,"x_max":873,"o":"m 733 -12 q 502 228 503 -12 l 502 574 l 365 574 l 365 0 l 140 0 l 140 574 l 40 574 l 40 741 l 829 741 l 829 574 l 728 574 l 728 226 q 739 175 728 187 q 772 163 749 163 q 798 165 788 163 q 850 180 808 167 l 873 16 q 802 -7 832 -1 q 733 -12 773 -12 z "},"ρ":{"ha":766,"x_min":63,"x_max":740,"o":"m 288 -275 l 63 -275 l 63 394 q 154 655 63 556 q 406 754 245 754 q 655 648 570 754 q 740 365 740 541 q 722 208 740 276 q 665 86 704 141 q 446 -12 590 -12 q 288 40 349 -12 l 288 -275 m 396 161 q 515 351 515 161 q 508 449 515 408 q 485 522 501 490 q 397 579 456 579 q 317 528 343 579 q 288 392 291 477 l 306 392 l 288 374 l 288 213 q 396 161 317 161 z "},"ς":{"ha":696,"x_min":29,"x_max":685,"o":"m 453 -251 l 332 -162 q 383 -96 369 -122 q 398 -49 398 -70 q 385 -16 398 -28 q 341 3 373 -4 q 102 132 174 46 q 29 360 29 218 l 29 380 q 118 649 29 543 q 375 754 207 754 q 601 677 517 754 q 685 450 685 599 l 471 450 q 375 579 471 578 q 260 453 278 579 q 254 360 254 415 q 289 239 254 281 q 410 171 324 197 q 573 106 526 139 q 622 -11 619 72 q 573 -137 622 -72 q 453 -251 525 -201 z "},"σ":{"ha":774,"x_min":31,"x_max":779,"o":"m 385 -12 q 123 92 215 -12 q 31 364 31 196 l 31 377 q 123 640 31 538 q 385 741 215 741 l 779 741 l 779 565 l 631 565 q 700 469 672 524 q 728 350 728 415 l 728 336 q 639 85 728 183 q 385 -12 549 -12 m 385 161 q 453 186 427 161 q 491 257 479 212 q 503 364 503 302 q 497 450 503 415 q 474 516 490 486 q 386 565 445 565 q 385 565 385 565 q 310 541 338 565 q 269 476 283 518 q 256 377 256 433 l 256 364 q 286 215 256 269 q 385 161 316 161 z "},"τ":{"ha":705,"x_min":16,"x_max":695,"o":"m 463 -13 q 232 228 233 -13 l 232 567 l 16 567 l 16 741 l 695 741 l 695 567 l 458 567 l 458 225 q 468 174 458 186 q 501 163 478 163 q 528 165 518 163 q 580 179 538 167 l 603 15 q 532 -7 562 -1 q 463 -13 502 -13 z "},"υ":{"ha":741,"x_min":64,"x_max":709,"o":"m 362 -13 q 202 19 269 -13 q 100 117 135 51 q 64 290 64 184 l 64 741 l 290 741 l 290 289 q 308 188 290 216 q 356 160 327 160 q 448 227 413 160 q 484 388 484 293 q 413 741 481 551 l 629 741 q 690 572 670 658 q 709 388 709 485 q 624 97 709 208 q 362 -13 540 -13 z "},"φ":{"ha":1008,"x_min":22,"x_max":986,"o":"m 615 -315 l 390 -315 l 390 -6 q 112 128 201 17 q 22 404 22 240 q 62 595 22 506 q 187 754 102 685 l 341 636 q 248 404 250 536 q 285 250 248 308 q 390 175 322 192 l 390 547 q 452 692 390 635 q 609 749 515 749 q 890 640 794 749 q 986 381 986 531 q 896 119 986 226 q 615 -7 806 13 l 615 -315 m 615 173 q 724 244 687 188 q 760 381 760 300 q 727 522 759 468 q 633 575 694 575 q 619 570 622 575 q 615 553 615 565 l 615 173 z "},"χ":{"ha":690,"x_min":-12,"x_max":710,"o":"m 710 0 l 455 0 l 350 215 l 243 0 l -12 0 l 219 374 l -5 741 l 249 741 l 347 534 l 447 741 l 702 741 l 479 374 l 710 0 z "},"ψ":{"ha":1007,"x_min":33,"x_max":985,"o":"m 614 -315 l 388 -315 l 388 -5 q 128 115 223 15 q 33 403 33 215 l 33 741 l 258 741 l 258 401 q 298 243 258 296 q 388 176 337 190 l 388 741 l 614 741 l 614 175 q 720 248 680 190 q 760 404 760 306 q 682 741 759 541 l 894 741 q 962 582 939 663 q 985 404 985 500 q 895 125 985 238 q 614 -6 806 13 l 614 -315 z "},"ω":{"ha":1108,"x_min":44,"x_max":1078,"o":"m 774 -13 q 637 24 694 -13 q 560 101 579 61 q 484 24 542 60 q 349 -13 427 -13 q 113 95 182 -13 q 44 388 44 203 q 148 741 44 585 l 365 741 q 268 388 271 552 q 277 269 268 320 q 305 189 286 218 q 355 160 324 160 q 443 334 443 160 q 443 337 443 335 l 443 578 l 678 578 l 678 337 q 767 160 678 160 q 832 224 811 160 q 853 388 853 287 q 756 741 849 553 l 974 741 q 1078 388 1078 586 q 1009 95 1078 203 q 774 -13 940 -13 z "},"ϊ":{"ha":456,"x_min":-72,"x_max":467,"o":"m 138 830 l -72 830 l -72 991 l 138 991 l 138 830 m 467 830 l 259 830 l 259 991 l 467 991 l 467 830 m 310 -13 q 79 228 81 -13 l 79 740 l 305 740 l 305 225 q 316 174 305 186 q 349 163 326 163 q 376 165 366 163 q 428 179 385 167 l 451 15 q 380 -7 410 -1 q 310 -13 350 -13 z "},"ϋ":{"ha":741,"x_min":63,"x_max":708,"o":"m 332 831 l 123 831 l 123 992 l 332 992 l 332 831 m 662 831 l 453 831 l 453 992 l 662 992 l 662 831 m 361 -13 q 201 19 268 -13 q 99 117 135 51 q 63 290 63 184 l 63 741 l 289 741 l 289 289 q 308 188 289 216 q 355 160 326 160 q 448 227 412 160 q 483 388 483 293 q 412 741 481 551 l 628 741 q 689 572 669 658 q 708 388 708 485 q 624 97 708 208 q 361 -13 539 -13 z "}}}
